G75*
G70*
%OFA0B0*%
%FSLAX24Y24*%
%IPPOS*%
%LPD*%
%AMOC8*
5,1,8,0,0,1.08239X$1,22.5*
%
%ADD10R,0.0950X0.0320*%
%ADD11R,0.0790X0.0789*%
%ADD12R,0.0789X0.0790*%
%ADD13C,0.0000*%
%ADD14C,0.1163*%
%ADD15R,0.0714X0.0714*%
%ADD16C,0.0740*%
%ADD17C,0.0714*%
%ADD18R,0.1100X0.0300*%
%ADD19C,0.0714*%
%ADD20R,0.1080X0.0680*%
%ADD21R,0.1080X0.1530*%
%ADD22R,0.0789X0.1180*%
%ADD23OC8,0.0720*%
%ADD24R,0.0680X0.1080*%
%ADD25R,0.1530X0.1080*%
%ADD26C,0.0820*%
%ADD27C,0.1360*%
%ADD28C,0.2080*%
%ADD29R,0.0820X0.0820*%
%ADD30R,0.1180X0.0789*%
%ADD31C,0.0556*%
D10*
X011650Y011180D03*
X011650Y011680D03*
X011650Y012180D03*
X011650Y012680D03*
X011650Y013180D03*
X011650Y013680D03*
X011650Y014180D03*
X013710Y014180D03*
X013710Y013680D03*
X013710Y013180D03*
X013710Y012680D03*
X013710Y012180D03*
X013710Y011680D03*
X013710Y011180D03*
X016400Y011180D03*
X016400Y010680D03*
X016400Y011680D03*
X016400Y012180D03*
X018460Y012180D03*
X018460Y011680D03*
X018460Y011180D03*
X018460Y010680D03*
X013210Y018180D03*
X013210Y018680D03*
X013210Y019180D03*
X013210Y019680D03*
X011150Y019680D03*
X011150Y019180D03*
X011150Y018680D03*
X011150Y018180D03*
D11*
X014680Y018020D03*
X014680Y016840D03*
X015680Y014270D03*
X015680Y013090D03*
X017680Y015090D03*
X017680Y016270D03*
X019180Y016270D03*
X019180Y015090D03*
X014680Y019340D03*
X014680Y020520D03*
X019180Y020090D03*
X019180Y021270D03*
X024930Y018020D03*
X024930Y016840D03*
X024930Y013020D03*
X024930Y011840D03*
X018180Y009770D03*
X016930Y009770D03*
X016930Y008590D03*
X018180Y008590D03*
D12*
X009520Y016680D03*
X008340Y016680D03*
X011590Y017180D03*
X012770Y017180D03*
X012770Y020680D03*
X011590Y020680D03*
X016840Y021180D03*
X018020Y021180D03*
X005020Y014180D03*
X003840Y014180D03*
X003840Y011430D03*
X005020Y011430D03*
D13*
X003566Y002511D02*
X026794Y002511D01*
X026860Y002513D01*
X026926Y002518D01*
X026992Y002528D01*
X027057Y002541D01*
X027121Y002557D01*
X027184Y002577D01*
X027246Y002601D01*
X027306Y002628D01*
X027365Y002658D01*
X027422Y002692D01*
X027477Y002729D01*
X027530Y002769D01*
X027581Y002811D01*
X027629Y002857D01*
X027675Y002905D01*
X027717Y002956D01*
X027757Y003009D01*
X027794Y003064D01*
X027828Y003121D01*
X027858Y003180D01*
X027885Y003240D01*
X027909Y003302D01*
X027929Y003365D01*
X027945Y003429D01*
X027958Y003494D01*
X027968Y003560D01*
X027973Y003626D01*
X027975Y003692D01*
X027975Y023377D01*
X027973Y023443D01*
X027968Y023509D01*
X027958Y023575D01*
X027945Y023640D01*
X027929Y023704D01*
X027909Y023767D01*
X027885Y023829D01*
X027858Y023889D01*
X027828Y023948D01*
X027794Y024005D01*
X027757Y024060D01*
X027717Y024113D01*
X027675Y024164D01*
X027629Y024212D01*
X027581Y024258D01*
X027530Y024300D01*
X027477Y024340D01*
X027422Y024377D01*
X027365Y024411D01*
X027306Y024441D01*
X027246Y024468D01*
X027184Y024492D01*
X027121Y024512D01*
X027057Y024528D01*
X026992Y024541D01*
X026926Y024551D01*
X026860Y024556D01*
X026794Y024558D01*
X003566Y024558D01*
X003500Y024556D01*
X003434Y024551D01*
X003368Y024541D01*
X003303Y024528D01*
X003239Y024512D01*
X003176Y024492D01*
X003114Y024468D01*
X003054Y024441D01*
X002995Y024411D01*
X002938Y024377D01*
X002883Y024340D01*
X002830Y024300D01*
X002779Y024258D01*
X002731Y024212D01*
X002685Y024164D01*
X002643Y024113D01*
X002603Y024060D01*
X002566Y024005D01*
X002532Y023948D01*
X002502Y023889D01*
X002475Y023829D01*
X002451Y023767D01*
X002431Y023704D01*
X002415Y023640D01*
X002402Y023575D01*
X002392Y023509D01*
X002387Y023443D01*
X002385Y023377D01*
X002385Y003692D01*
X002387Y003626D01*
X002392Y003560D01*
X002402Y003494D01*
X002415Y003429D01*
X002431Y003365D01*
X002451Y003302D01*
X002475Y003240D01*
X002502Y003180D01*
X002532Y003121D01*
X002566Y003064D01*
X002603Y003009D01*
X002643Y002956D01*
X002685Y002905D01*
X002731Y002857D01*
X002779Y002811D01*
X002830Y002769D01*
X002883Y002729D01*
X002938Y002692D01*
X002995Y002658D01*
X003054Y002628D01*
X003114Y002601D01*
X003176Y002577D01*
X003239Y002557D01*
X003303Y002541D01*
X003368Y002528D01*
X003434Y002518D01*
X003500Y002513D01*
X003566Y002511D01*
X003222Y003889D02*
X003224Y003935D01*
X003230Y003980D01*
X003239Y004025D01*
X003253Y004069D01*
X003270Y004112D01*
X003291Y004153D01*
X003315Y004192D01*
X003342Y004229D01*
X003372Y004263D01*
X003406Y004295D01*
X003441Y004324D01*
X003479Y004350D01*
X003519Y004372D01*
X003561Y004391D01*
X003605Y004406D01*
X003649Y004418D01*
X003694Y004426D01*
X003740Y004430D01*
X003786Y004430D01*
X003832Y004426D01*
X003877Y004418D01*
X003921Y004406D01*
X003965Y004391D01*
X004007Y004372D01*
X004047Y004350D01*
X004085Y004324D01*
X004120Y004295D01*
X004154Y004263D01*
X004184Y004229D01*
X004211Y004192D01*
X004235Y004153D01*
X004256Y004112D01*
X004273Y004069D01*
X004287Y004025D01*
X004296Y003980D01*
X004302Y003935D01*
X004304Y003889D01*
X004302Y003843D01*
X004296Y003798D01*
X004287Y003753D01*
X004273Y003709D01*
X004256Y003666D01*
X004235Y003625D01*
X004211Y003586D01*
X004184Y003549D01*
X004154Y003515D01*
X004120Y003483D01*
X004085Y003454D01*
X004047Y003428D01*
X004007Y003406D01*
X003965Y003387D01*
X003921Y003372D01*
X003877Y003360D01*
X003832Y003352D01*
X003786Y003348D01*
X003740Y003348D01*
X003694Y003352D01*
X003649Y003360D01*
X003605Y003372D01*
X003561Y003387D01*
X003519Y003406D01*
X003479Y003428D01*
X003441Y003454D01*
X003406Y003483D01*
X003372Y003515D01*
X003342Y003549D01*
X003315Y003586D01*
X003291Y003625D01*
X003270Y003666D01*
X003253Y003709D01*
X003239Y003753D01*
X003230Y003798D01*
X003224Y003843D01*
X003222Y003889D01*
X019290Y005680D02*
X019292Y005730D01*
X019298Y005780D01*
X019308Y005829D01*
X019321Y005878D01*
X019339Y005925D01*
X019360Y005971D01*
X019384Y006014D01*
X019412Y006056D01*
X019443Y006096D01*
X019477Y006133D01*
X019514Y006167D01*
X019554Y006198D01*
X019596Y006226D01*
X019639Y006250D01*
X019685Y006271D01*
X019732Y006289D01*
X019781Y006302D01*
X019830Y006312D01*
X019880Y006318D01*
X019930Y006320D01*
X019980Y006318D01*
X020030Y006312D01*
X020079Y006302D01*
X020128Y006289D01*
X020175Y006271D01*
X020221Y006250D01*
X020264Y006226D01*
X020306Y006198D01*
X020346Y006167D01*
X020383Y006133D01*
X020417Y006096D01*
X020448Y006056D01*
X020476Y006014D01*
X020500Y005971D01*
X020521Y005925D01*
X020539Y005878D01*
X020552Y005829D01*
X020562Y005780D01*
X020568Y005730D01*
X020570Y005680D01*
X020568Y005630D01*
X020562Y005580D01*
X020552Y005531D01*
X020539Y005482D01*
X020521Y005435D01*
X020500Y005389D01*
X020476Y005346D01*
X020448Y005304D01*
X020417Y005264D01*
X020383Y005227D01*
X020346Y005193D01*
X020306Y005162D01*
X020264Y005134D01*
X020221Y005110D01*
X020175Y005089D01*
X020128Y005071D01*
X020079Y005058D01*
X020030Y005048D01*
X019980Y005042D01*
X019930Y005040D01*
X019880Y005042D01*
X019830Y005048D01*
X019781Y005058D01*
X019732Y005071D01*
X019685Y005089D01*
X019639Y005110D01*
X019596Y005134D01*
X019554Y005162D01*
X019514Y005193D01*
X019477Y005227D01*
X019443Y005264D01*
X019412Y005304D01*
X019384Y005346D01*
X019360Y005389D01*
X019339Y005435D01*
X019321Y005482D01*
X019308Y005531D01*
X019298Y005580D01*
X019292Y005630D01*
X019290Y005680D01*
X023290Y005680D02*
X023292Y005730D01*
X023298Y005780D01*
X023308Y005829D01*
X023321Y005878D01*
X023339Y005925D01*
X023360Y005971D01*
X023384Y006014D01*
X023412Y006056D01*
X023443Y006096D01*
X023477Y006133D01*
X023514Y006167D01*
X023554Y006198D01*
X023596Y006226D01*
X023639Y006250D01*
X023685Y006271D01*
X023732Y006289D01*
X023781Y006302D01*
X023830Y006312D01*
X023880Y006318D01*
X023930Y006320D01*
X023980Y006318D01*
X024030Y006312D01*
X024079Y006302D01*
X024128Y006289D01*
X024175Y006271D01*
X024221Y006250D01*
X024264Y006226D01*
X024306Y006198D01*
X024346Y006167D01*
X024383Y006133D01*
X024417Y006096D01*
X024448Y006056D01*
X024476Y006014D01*
X024500Y005971D01*
X024521Y005925D01*
X024539Y005878D01*
X024552Y005829D01*
X024562Y005780D01*
X024568Y005730D01*
X024570Y005680D01*
X024568Y005630D01*
X024562Y005580D01*
X024552Y005531D01*
X024539Y005482D01*
X024521Y005435D01*
X024500Y005389D01*
X024476Y005346D01*
X024448Y005304D01*
X024417Y005264D01*
X024383Y005227D01*
X024346Y005193D01*
X024306Y005162D01*
X024264Y005134D01*
X024221Y005110D01*
X024175Y005089D01*
X024128Y005071D01*
X024079Y005058D01*
X024030Y005048D01*
X023980Y005042D01*
X023930Y005040D01*
X023880Y005042D01*
X023830Y005048D01*
X023781Y005058D01*
X023732Y005071D01*
X023685Y005089D01*
X023639Y005110D01*
X023596Y005134D01*
X023554Y005162D01*
X023514Y005193D01*
X023477Y005227D01*
X023443Y005264D01*
X023412Y005304D01*
X023384Y005346D01*
X023360Y005389D01*
X023339Y005435D01*
X023321Y005482D01*
X023308Y005531D01*
X023298Y005580D01*
X023292Y005630D01*
X023290Y005680D01*
X026056Y003889D02*
X026058Y003935D01*
X026064Y003980D01*
X026073Y004025D01*
X026087Y004069D01*
X026104Y004112D01*
X026125Y004153D01*
X026149Y004192D01*
X026176Y004229D01*
X026206Y004263D01*
X026240Y004295D01*
X026275Y004324D01*
X026313Y004350D01*
X026353Y004372D01*
X026395Y004391D01*
X026439Y004406D01*
X026483Y004418D01*
X026528Y004426D01*
X026574Y004430D01*
X026620Y004430D01*
X026666Y004426D01*
X026711Y004418D01*
X026755Y004406D01*
X026799Y004391D01*
X026841Y004372D01*
X026881Y004350D01*
X026919Y004324D01*
X026954Y004295D01*
X026988Y004263D01*
X027018Y004229D01*
X027045Y004192D01*
X027069Y004153D01*
X027090Y004112D01*
X027107Y004069D01*
X027121Y004025D01*
X027130Y003980D01*
X027136Y003935D01*
X027138Y003889D01*
X027136Y003843D01*
X027130Y003798D01*
X027121Y003753D01*
X027107Y003709D01*
X027090Y003666D01*
X027069Y003625D01*
X027045Y003586D01*
X027018Y003549D01*
X026988Y003515D01*
X026954Y003483D01*
X026919Y003454D01*
X026881Y003428D01*
X026841Y003406D01*
X026799Y003387D01*
X026755Y003372D01*
X026711Y003360D01*
X026666Y003352D01*
X026620Y003348D01*
X026574Y003348D01*
X026528Y003352D01*
X026483Y003360D01*
X026439Y003372D01*
X026395Y003387D01*
X026353Y003406D01*
X026313Y003428D01*
X026275Y003454D01*
X026240Y003483D01*
X026206Y003515D01*
X026176Y003549D01*
X026149Y003586D01*
X026125Y003625D01*
X026104Y003666D01*
X026087Y003709D01*
X026073Y003753D01*
X026064Y003798D01*
X026058Y003843D01*
X026056Y003889D01*
X026056Y023180D02*
X026058Y023226D01*
X026064Y023271D01*
X026073Y023316D01*
X026087Y023360D01*
X026104Y023403D01*
X026125Y023444D01*
X026149Y023483D01*
X026176Y023520D01*
X026206Y023554D01*
X026240Y023586D01*
X026275Y023615D01*
X026313Y023641D01*
X026353Y023663D01*
X026395Y023682D01*
X026439Y023697D01*
X026483Y023709D01*
X026528Y023717D01*
X026574Y023721D01*
X026620Y023721D01*
X026666Y023717D01*
X026711Y023709D01*
X026755Y023697D01*
X026799Y023682D01*
X026841Y023663D01*
X026881Y023641D01*
X026919Y023615D01*
X026954Y023586D01*
X026988Y023554D01*
X027018Y023520D01*
X027045Y023483D01*
X027069Y023444D01*
X027090Y023403D01*
X027107Y023360D01*
X027121Y023316D01*
X027130Y023271D01*
X027136Y023226D01*
X027138Y023180D01*
X027136Y023134D01*
X027130Y023089D01*
X027121Y023044D01*
X027107Y023000D01*
X027090Y022957D01*
X027069Y022916D01*
X027045Y022877D01*
X027018Y022840D01*
X026988Y022806D01*
X026954Y022774D01*
X026919Y022745D01*
X026881Y022719D01*
X026841Y022697D01*
X026799Y022678D01*
X026755Y022663D01*
X026711Y022651D01*
X026666Y022643D01*
X026620Y022639D01*
X026574Y022639D01*
X026528Y022643D01*
X026483Y022651D01*
X026439Y022663D01*
X026395Y022678D01*
X026353Y022697D01*
X026313Y022719D01*
X026275Y022745D01*
X026240Y022774D01*
X026206Y022806D01*
X026176Y022840D01*
X026149Y022877D01*
X026125Y022916D01*
X026104Y022957D01*
X026087Y023000D01*
X026073Y023044D01*
X026064Y023089D01*
X026058Y023134D01*
X026056Y023180D01*
X003222Y023180D02*
X003224Y023226D01*
X003230Y023271D01*
X003239Y023316D01*
X003253Y023360D01*
X003270Y023403D01*
X003291Y023444D01*
X003315Y023483D01*
X003342Y023520D01*
X003372Y023554D01*
X003406Y023586D01*
X003441Y023615D01*
X003479Y023641D01*
X003519Y023663D01*
X003561Y023682D01*
X003605Y023697D01*
X003649Y023709D01*
X003694Y023717D01*
X003740Y023721D01*
X003786Y023721D01*
X003832Y023717D01*
X003877Y023709D01*
X003921Y023697D01*
X003965Y023682D01*
X004007Y023663D01*
X004047Y023641D01*
X004085Y023615D01*
X004120Y023586D01*
X004154Y023554D01*
X004184Y023520D01*
X004211Y023483D01*
X004235Y023444D01*
X004256Y023403D01*
X004273Y023360D01*
X004287Y023316D01*
X004296Y023271D01*
X004302Y023226D01*
X004304Y023180D01*
X004302Y023134D01*
X004296Y023089D01*
X004287Y023044D01*
X004273Y023000D01*
X004256Y022957D01*
X004235Y022916D01*
X004211Y022877D01*
X004184Y022840D01*
X004154Y022806D01*
X004120Y022774D01*
X004085Y022745D01*
X004047Y022719D01*
X004007Y022697D01*
X003965Y022678D01*
X003921Y022663D01*
X003877Y022651D01*
X003832Y022643D01*
X003786Y022639D01*
X003740Y022639D01*
X003694Y022643D01*
X003649Y022651D01*
X003605Y022663D01*
X003561Y022678D01*
X003519Y022697D01*
X003479Y022719D01*
X003441Y022745D01*
X003406Y022774D01*
X003372Y022806D01*
X003342Y022840D01*
X003315Y022877D01*
X003291Y022916D01*
X003270Y022957D01*
X003253Y023000D01*
X003239Y023044D01*
X003230Y023089D01*
X003224Y023134D01*
X003222Y023180D01*
D14*
X003763Y023180D03*
X003763Y003889D03*
X026597Y003889D03*
X026597Y023180D03*
D15*
X005680Y022680D03*
D16*
X005680Y023680D03*
X007680Y023680D03*
D17*
X007680Y022680D03*
X006680Y022680D03*
X006680Y023680D03*
X008680Y023680D03*
X008680Y022680D03*
X009680Y022680D03*
X009680Y023680D03*
X010680Y023680D03*
X010680Y022680D03*
X011680Y022680D03*
X011680Y023680D03*
X012680Y023680D03*
X012680Y022680D03*
X013680Y022680D03*
X013680Y023680D03*
X014680Y023680D03*
X014680Y022680D03*
X015680Y022680D03*
X015680Y023680D03*
X016680Y023680D03*
X016680Y022680D03*
X017680Y022680D03*
X017680Y023680D03*
X018680Y023680D03*
X018680Y022680D03*
X019680Y022680D03*
X019680Y023680D03*
X020680Y023680D03*
X020680Y022680D03*
X021680Y022680D03*
X021680Y023680D03*
X022680Y023680D03*
X022680Y022680D03*
X023680Y022680D03*
X023680Y023680D03*
X024680Y023680D03*
X024680Y022680D03*
D18*
X021530Y018330D03*
X021530Y017530D03*
X022830Y017930D03*
X021530Y013330D03*
X021530Y012530D03*
X022830Y012930D03*
D19*
X026180Y011997D02*
X026180Y011363D01*
X027180Y011363D02*
X027180Y011997D01*
X027180Y014863D02*
X027180Y015497D01*
X026180Y015497D02*
X026180Y014863D01*
X004497Y018680D02*
X003863Y018680D01*
X003863Y019680D02*
X004497Y019680D01*
X004497Y020680D02*
X003863Y020680D01*
D20*
X020830Y021086D03*
X020830Y020180D03*
X020830Y019274D03*
X020830Y016086D03*
X020830Y015180D03*
X020830Y014274D03*
D21*
X023530Y015180D03*
X023530Y020180D03*
D22*
X007520Y011680D03*
X006340Y011680D03*
X005020Y012680D03*
X003840Y012680D03*
D23*
X009180Y013180D03*
X009180Y014180D03*
X010180Y014180D03*
X010180Y013180D03*
X010180Y015180D03*
X009180Y015180D03*
X010499Y006820D03*
X011589Y006820D03*
X012680Y006820D03*
X013771Y006820D03*
X014861Y006820D03*
X014316Y005702D03*
X013225Y005702D03*
X012135Y005702D03*
X011044Y005702D03*
D24*
X006336Y010030D03*
X005430Y010030D03*
X004524Y010030D03*
D25*
X005430Y007330D03*
D26*
X005680Y005680D03*
X005680Y004680D03*
X005680Y003680D03*
X007680Y008680D03*
X007680Y009680D03*
X006680Y015680D03*
X006680Y016680D03*
X005680Y015680D03*
X004680Y015680D03*
X004680Y016680D03*
X016680Y017680D03*
X016680Y018680D03*
X020680Y009180D03*
X021680Y009180D03*
X022680Y009180D03*
X022180Y008180D03*
X023180Y008180D03*
X025180Y008180D03*
X025180Y007180D03*
X025180Y006180D03*
X021180Y008180D03*
D27*
X019930Y005680D03*
X023930Y005680D03*
D28*
X017599Y006261D03*
X007761Y006261D03*
D29*
X003680Y015680D03*
D30*
X007180Y014270D03*
X007180Y013090D03*
D31*
X005930Y013180D03*
X003680Y009680D03*
X003680Y008430D03*
X003680Y007180D03*
X008930Y007930D03*
M02*
