G75*
G70*
%OFA0B0*%
%FSLAX24Y24*%
%IPPOS*%
%LPD*%
%AMOC8*
5,1,8,0,0,1.08239X$1,22.5*
%
%ADD10R,0.0870X0.0240*%
%ADD11R,0.0710X0.0709*%
%ADD12R,0.0709X0.0710*%
%ADD13C,0.0000*%
%ADD14R,0.0634X0.0634*%
%ADD15C,0.0660*%
%ADD16C,0.0634*%
%ADD17R,0.1020X0.0220*%
%ADD18C,0.0634*%
%ADD19R,0.1000X0.0600*%
%ADD20R,0.1000X0.1450*%
%ADD21R,0.0709X0.1100*%
%ADD22OC8,0.0640*%
%ADD23R,0.0600X0.1000*%
%ADD24R,0.1450X0.1000*%
%ADD25C,0.0740*%
%ADD26C,0.2000*%
%ADD27R,0.0740X0.0740*%
%ADD28R,0.1100X0.0709*%
%ADD29C,0.0160*%
%ADD30C,0.0150*%
%ADD31C,0.0436*%
%ADD32C,0.0476*%
%ADD33C,0.0100*%
%ADD34C,0.0400*%
%ADD35C,0.0500*%
%ADD36C,0.0400*%
D10*
X011650Y011180D03*
X011650Y011680D03*
X011650Y012180D03*
X011650Y012680D03*
X011650Y013180D03*
X011650Y013680D03*
X011650Y014180D03*
X013710Y014180D03*
X013710Y013680D03*
X013710Y013180D03*
X013710Y012680D03*
X013710Y012180D03*
X013710Y011680D03*
X013710Y011180D03*
X016400Y011180D03*
X016400Y010680D03*
X016400Y011680D03*
X016400Y012180D03*
X018460Y012180D03*
X018460Y011680D03*
X018460Y011180D03*
X018460Y010680D03*
X013210Y018180D03*
X013210Y018680D03*
X013210Y019180D03*
X013210Y019680D03*
X011150Y019680D03*
X011150Y019180D03*
X011150Y018680D03*
X011150Y018180D03*
D11*
X014680Y018020D03*
X014680Y016840D03*
X015680Y014270D03*
X015680Y013090D03*
X017680Y015090D03*
X017680Y016270D03*
X019180Y016270D03*
X019180Y015090D03*
X014680Y019340D03*
X014680Y020520D03*
X019180Y020090D03*
X019180Y021270D03*
X024930Y018020D03*
X024930Y016840D03*
X024930Y013020D03*
X024930Y011840D03*
X018180Y009770D03*
X016930Y009770D03*
X016930Y008590D03*
X018180Y008590D03*
D12*
X009520Y016680D03*
X008340Y016680D03*
X011590Y017180D03*
X012770Y017180D03*
X012770Y020680D03*
X011590Y020680D03*
X016840Y021180D03*
X018020Y021180D03*
X005020Y014180D03*
X003840Y014180D03*
X003840Y011430D03*
X005020Y011430D03*
D13*
X003566Y002511D02*
X026794Y002511D01*
X026860Y002513D01*
X026926Y002518D01*
X026992Y002528D01*
X027057Y002541D01*
X027121Y002557D01*
X027184Y002577D01*
X027246Y002601D01*
X027306Y002628D01*
X027365Y002658D01*
X027422Y002692D01*
X027477Y002729D01*
X027530Y002769D01*
X027581Y002811D01*
X027629Y002857D01*
X027675Y002905D01*
X027717Y002956D01*
X027757Y003009D01*
X027794Y003064D01*
X027828Y003121D01*
X027858Y003180D01*
X027885Y003240D01*
X027909Y003302D01*
X027929Y003365D01*
X027945Y003429D01*
X027958Y003494D01*
X027968Y003560D01*
X027973Y003626D01*
X027975Y003692D01*
X027975Y023377D01*
X027973Y023443D01*
X027968Y023509D01*
X027958Y023575D01*
X027945Y023640D01*
X027929Y023704D01*
X027909Y023767D01*
X027885Y023829D01*
X027858Y023889D01*
X027828Y023948D01*
X027794Y024005D01*
X027757Y024060D01*
X027717Y024113D01*
X027675Y024164D01*
X027629Y024212D01*
X027581Y024258D01*
X027530Y024300D01*
X027477Y024340D01*
X027422Y024377D01*
X027365Y024411D01*
X027306Y024441D01*
X027246Y024468D01*
X027184Y024492D01*
X027121Y024512D01*
X027057Y024528D01*
X026992Y024541D01*
X026926Y024551D01*
X026860Y024556D01*
X026794Y024558D01*
X003566Y024558D01*
X003500Y024556D01*
X003434Y024551D01*
X003368Y024541D01*
X003303Y024528D01*
X003239Y024512D01*
X003176Y024492D01*
X003114Y024468D01*
X003054Y024441D01*
X002995Y024411D01*
X002938Y024377D01*
X002883Y024340D01*
X002830Y024300D01*
X002779Y024258D01*
X002731Y024212D01*
X002685Y024164D01*
X002643Y024113D01*
X002603Y024060D01*
X002566Y024005D01*
X002532Y023948D01*
X002502Y023889D01*
X002475Y023829D01*
X002451Y023767D01*
X002431Y023704D01*
X002415Y023640D01*
X002402Y023575D01*
X002392Y023509D01*
X002387Y023443D01*
X002385Y023377D01*
X002385Y003692D01*
X002387Y003626D01*
X002392Y003560D01*
X002402Y003494D01*
X002415Y003429D01*
X002431Y003365D01*
X002451Y003302D01*
X002475Y003240D01*
X002502Y003180D01*
X002532Y003121D01*
X002566Y003064D01*
X002603Y003009D01*
X002643Y002956D01*
X002685Y002905D01*
X002731Y002857D01*
X002779Y002811D01*
X002830Y002769D01*
X002883Y002729D01*
X002938Y002692D01*
X002995Y002658D01*
X003054Y002628D01*
X003114Y002601D01*
X003176Y002577D01*
X003239Y002557D01*
X003303Y002541D01*
X003368Y002528D01*
X003434Y002518D01*
X003500Y002513D01*
X003566Y002511D01*
X003222Y003889D02*
X003224Y003935D01*
X003230Y003980D01*
X003239Y004025D01*
X003253Y004069D01*
X003270Y004112D01*
X003291Y004153D01*
X003315Y004192D01*
X003342Y004229D01*
X003372Y004263D01*
X003406Y004295D01*
X003441Y004324D01*
X003479Y004350D01*
X003519Y004372D01*
X003561Y004391D01*
X003605Y004406D01*
X003649Y004418D01*
X003694Y004426D01*
X003740Y004430D01*
X003786Y004430D01*
X003832Y004426D01*
X003877Y004418D01*
X003921Y004406D01*
X003965Y004391D01*
X004007Y004372D01*
X004047Y004350D01*
X004085Y004324D01*
X004120Y004295D01*
X004154Y004263D01*
X004184Y004229D01*
X004211Y004192D01*
X004235Y004153D01*
X004256Y004112D01*
X004273Y004069D01*
X004287Y004025D01*
X004296Y003980D01*
X004302Y003935D01*
X004304Y003889D01*
X004302Y003843D01*
X004296Y003798D01*
X004287Y003753D01*
X004273Y003709D01*
X004256Y003666D01*
X004235Y003625D01*
X004211Y003586D01*
X004184Y003549D01*
X004154Y003515D01*
X004120Y003483D01*
X004085Y003454D01*
X004047Y003428D01*
X004007Y003406D01*
X003965Y003387D01*
X003921Y003372D01*
X003877Y003360D01*
X003832Y003352D01*
X003786Y003348D01*
X003740Y003348D01*
X003694Y003352D01*
X003649Y003360D01*
X003605Y003372D01*
X003561Y003387D01*
X003519Y003406D01*
X003479Y003428D01*
X003441Y003454D01*
X003406Y003483D01*
X003372Y003515D01*
X003342Y003549D01*
X003315Y003586D01*
X003291Y003625D01*
X003270Y003666D01*
X003253Y003709D01*
X003239Y003753D01*
X003230Y003798D01*
X003224Y003843D01*
X003222Y003889D01*
X019290Y005680D02*
X019292Y005730D01*
X019298Y005780D01*
X019308Y005829D01*
X019321Y005878D01*
X019339Y005925D01*
X019360Y005971D01*
X019384Y006014D01*
X019412Y006056D01*
X019443Y006096D01*
X019477Y006133D01*
X019514Y006167D01*
X019554Y006198D01*
X019596Y006226D01*
X019639Y006250D01*
X019685Y006271D01*
X019732Y006289D01*
X019781Y006302D01*
X019830Y006312D01*
X019880Y006318D01*
X019930Y006320D01*
X019980Y006318D01*
X020030Y006312D01*
X020079Y006302D01*
X020128Y006289D01*
X020175Y006271D01*
X020221Y006250D01*
X020264Y006226D01*
X020306Y006198D01*
X020346Y006167D01*
X020383Y006133D01*
X020417Y006096D01*
X020448Y006056D01*
X020476Y006014D01*
X020500Y005971D01*
X020521Y005925D01*
X020539Y005878D01*
X020552Y005829D01*
X020562Y005780D01*
X020568Y005730D01*
X020570Y005680D01*
X020568Y005630D01*
X020562Y005580D01*
X020552Y005531D01*
X020539Y005482D01*
X020521Y005435D01*
X020500Y005389D01*
X020476Y005346D01*
X020448Y005304D01*
X020417Y005264D01*
X020383Y005227D01*
X020346Y005193D01*
X020306Y005162D01*
X020264Y005134D01*
X020221Y005110D01*
X020175Y005089D01*
X020128Y005071D01*
X020079Y005058D01*
X020030Y005048D01*
X019980Y005042D01*
X019930Y005040D01*
X019880Y005042D01*
X019830Y005048D01*
X019781Y005058D01*
X019732Y005071D01*
X019685Y005089D01*
X019639Y005110D01*
X019596Y005134D01*
X019554Y005162D01*
X019514Y005193D01*
X019477Y005227D01*
X019443Y005264D01*
X019412Y005304D01*
X019384Y005346D01*
X019360Y005389D01*
X019339Y005435D01*
X019321Y005482D01*
X019308Y005531D01*
X019298Y005580D01*
X019292Y005630D01*
X019290Y005680D01*
X023290Y005680D02*
X023292Y005730D01*
X023298Y005780D01*
X023308Y005829D01*
X023321Y005878D01*
X023339Y005925D01*
X023360Y005971D01*
X023384Y006014D01*
X023412Y006056D01*
X023443Y006096D01*
X023477Y006133D01*
X023514Y006167D01*
X023554Y006198D01*
X023596Y006226D01*
X023639Y006250D01*
X023685Y006271D01*
X023732Y006289D01*
X023781Y006302D01*
X023830Y006312D01*
X023880Y006318D01*
X023930Y006320D01*
X023980Y006318D01*
X024030Y006312D01*
X024079Y006302D01*
X024128Y006289D01*
X024175Y006271D01*
X024221Y006250D01*
X024264Y006226D01*
X024306Y006198D01*
X024346Y006167D01*
X024383Y006133D01*
X024417Y006096D01*
X024448Y006056D01*
X024476Y006014D01*
X024500Y005971D01*
X024521Y005925D01*
X024539Y005878D01*
X024552Y005829D01*
X024562Y005780D01*
X024568Y005730D01*
X024570Y005680D01*
X024568Y005630D01*
X024562Y005580D01*
X024552Y005531D01*
X024539Y005482D01*
X024521Y005435D01*
X024500Y005389D01*
X024476Y005346D01*
X024448Y005304D01*
X024417Y005264D01*
X024383Y005227D01*
X024346Y005193D01*
X024306Y005162D01*
X024264Y005134D01*
X024221Y005110D01*
X024175Y005089D01*
X024128Y005071D01*
X024079Y005058D01*
X024030Y005048D01*
X023980Y005042D01*
X023930Y005040D01*
X023880Y005042D01*
X023830Y005048D01*
X023781Y005058D01*
X023732Y005071D01*
X023685Y005089D01*
X023639Y005110D01*
X023596Y005134D01*
X023554Y005162D01*
X023514Y005193D01*
X023477Y005227D01*
X023443Y005264D01*
X023412Y005304D01*
X023384Y005346D01*
X023360Y005389D01*
X023339Y005435D01*
X023321Y005482D01*
X023308Y005531D01*
X023298Y005580D01*
X023292Y005630D01*
X023290Y005680D01*
X026056Y003889D02*
X026058Y003935D01*
X026064Y003980D01*
X026073Y004025D01*
X026087Y004069D01*
X026104Y004112D01*
X026125Y004153D01*
X026149Y004192D01*
X026176Y004229D01*
X026206Y004263D01*
X026240Y004295D01*
X026275Y004324D01*
X026313Y004350D01*
X026353Y004372D01*
X026395Y004391D01*
X026439Y004406D01*
X026483Y004418D01*
X026528Y004426D01*
X026574Y004430D01*
X026620Y004430D01*
X026666Y004426D01*
X026711Y004418D01*
X026755Y004406D01*
X026799Y004391D01*
X026841Y004372D01*
X026881Y004350D01*
X026919Y004324D01*
X026954Y004295D01*
X026988Y004263D01*
X027018Y004229D01*
X027045Y004192D01*
X027069Y004153D01*
X027090Y004112D01*
X027107Y004069D01*
X027121Y004025D01*
X027130Y003980D01*
X027136Y003935D01*
X027138Y003889D01*
X027136Y003843D01*
X027130Y003798D01*
X027121Y003753D01*
X027107Y003709D01*
X027090Y003666D01*
X027069Y003625D01*
X027045Y003586D01*
X027018Y003549D01*
X026988Y003515D01*
X026954Y003483D01*
X026919Y003454D01*
X026881Y003428D01*
X026841Y003406D01*
X026799Y003387D01*
X026755Y003372D01*
X026711Y003360D01*
X026666Y003352D01*
X026620Y003348D01*
X026574Y003348D01*
X026528Y003352D01*
X026483Y003360D01*
X026439Y003372D01*
X026395Y003387D01*
X026353Y003406D01*
X026313Y003428D01*
X026275Y003454D01*
X026240Y003483D01*
X026206Y003515D01*
X026176Y003549D01*
X026149Y003586D01*
X026125Y003625D01*
X026104Y003666D01*
X026087Y003709D01*
X026073Y003753D01*
X026064Y003798D01*
X026058Y003843D01*
X026056Y003889D01*
X026056Y023180D02*
X026058Y023226D01*
X026064Y023271D01*
X026073Y023316D01*
X026087Y023360D01*
X026104Y023403D01*
X026125Y023444D01*
X026149Y023483D01*
X026176Y023520D01*
X026206Y023554D01*
X026240Y023586D01*
X026275Y023615D01*
X026313Y023641D01*
X026353Y023663D01*
X026395Y023682D01*
X026439Y023697D01*
X026483Y023709D01*
X026528Y023717D01*
X026574Y023721D01*
X026620Y023721D01*
X026666Y023717D01*
X026711Y023709D01*
X026755Y023697D01*
X026799Y023682D01*
X026841Y023663D01*
X026881Y023641D01*
X026919Y023615D01*
X026954Y023586D01*
X026988Y023554D01*
X027018Y023520D01*
X027045Y023483D01*
X027069Y023444D01*
X027090Y023403D01*
X027107Y023360D01*
X027121Y023316D01*
X027130Y023271D01*
X027136Y023226D01*
X027138Y023180D01*
X027136Y023134D01*
X027130Y023089D01*
X027121Y023044D01*
X027107Y023000D01*
X027090Y022957D01*
X027069Y022916D01*
X027045Y022877D01*
X027018Y022840D01*
X026988Y022806D01*
X026954Y022774D01*
X026919Y022745D01*
X026881Y022719D01*
X026841Y022697D01*
X026799Y022678D01*
X026755Y022663D01*
X026711Y022651D01*
X026666Y022643D01*
X026620Y022639D01*
X026574Y022639D01*
X026528Y022643D01*
X026483Y022651D01*
X026439Y022663D01*
X026395Y022678D01*
X026353Y022697D01*
X026313Y022719D01*
X026275Y022745D01*
X026240Y022774D01*
X026206Y022806D01*
X026176Y022840D01*
X026149Y022877D01*
X026125Y022916D01*
X026104Y022957D01*
X026087Y023000D01*
X026073Y023044D01*
X026064Y023089D01*
X026058Y023134D01*
X026056Y023180D01*
X003222Y023180D02*
X003224Y023226D01*
X003230Y023271D01*
X003239Y023316D01*
X003253Y023360D01*
X003270Y023403D01*
X003291Y023444D01*
X003315Y023483D01*
X003342Y023520D01*
X003372Y023554D01*
X003406Y023586D01*
X003441Y023615D01*
X003479Y023641D01*
X003519Y023663D01*
X003561Y023682D01*
X003605Y023697D01*
X003649Y023709D01*
X003694Y023717D01*
X003740Y023721D01*
X003786Y023721D01*
X003832Y023717D01*
X003877Y023709D01*
X003921Y023697D01*
X003965Y023682D01*
X004007Y023663D01*
X004047Y023641D01*
X004085Y023615D01*
X004120Y023586D01*
X004154Y023554D01*
X004184Y023520D01*
X004211Y023483D01*
X004235Y023444D01*
X004256Y023403D01*
X004273Y023360D01*
X004287Y023316D01*
X004296Y023271D01*
X004302Y023226D01*
X004304Y023180D01*
X004302Y023134D01*
X004296Y023089D01*
X004287Y023044D01*
X004273Y023000D01*
X004256Y022957D01*
X004235Y022916D01*
X004211Y022877D01*
X004184Y022840D01*
X004154Y022806D01*
X004120Y022774D01*
X004085Y022745D01*
X004047Y022719D01*
X004007Y022697D01*
X003965Y022678D01*
X003921Y022663D01*
X003877Y022651D01*
X003832Y022643D01*
X003786Y022639D01*
X003740Y022639D01*
X003694Y022643D01*
X003649Y022651D01*
X003605Y022663D01*
X003561Y022678D01*
X003519Y022697D01*
X003479Y022719D01*
X003441Y022745D01*
X003406Y022774D01*
X003372Y022806D01*
X003342Y022840D01*
X003315Y022877D01*
X003291Y022916D01*
X003270Y022957D01*
X003253Y023000D01*
X003239Y023044D01*
X003230Y023089D01*
X003224Y023134D01*
X003222Y023180D01*
D14*
X005680Y022680D03*
D15*
X005680Y023680D03*
X007680Y023680D03*
D16*
X007680Y022680D03*
X006680Y022680D03*
X006680Y023680D03*
X008680Y023680D03*
X008680Y022680D03*
X009680Y022680D03*
X009680Y023680D03*
X010680Y023680D03*
X010680Y022680D03*
X011680Y022680D03*
X011680Y023680D03*
X012680Y023680D03*
X012680Y022680D03*
X013680Y022680D03*
X013680Y023680D03*
X014680Y023680D03*
X014680Y022680D03*
X015680Y022680D03*
X015680Y023680D03*
X016680Y023680D03*
X016680Y022680D03*
X017680Y022680D03*
X017680Y023680D03*
X018680Y023680D03*
X018680Y022680D03*
X019680Y022680D03*
X019680Y023680D03*
X020680Y023680D03*
X020680Y022680D03*
X021680Y022680D03*
X021680Y023680D03*
X022680Y023680D03*
X022680Y022680D03*
X023680Y022680D03*
X023680Y023680D03*
X024680Y023680D03*
X024680Y022680D03*
D17*
X021530Y018330D03*
X021530Y017530D03*
X022830Y017930D03*
X021530Y013330D03*
X021530Y012530D03*
X022830Y012930D03*
D18*
X026180Y011997D02*
X026180Y011363D01*
X027180Y011363D02*
X027180Y011997D01*
X027180Y014863D02*
X027180Y015497D01*
X026180Y015497D02*
X026180Y014863D01*
X004497Y018680D02*
X003863Y018680D01*
X003863Y019680D02*
X004497Y019680D01*
X004497Y020680D02*
X003863Y020680D01*
D19*
X020830Y021086D03*
X020830Y020180D03*
X020830Y019274D03*
X020830Y016086D03*
X020830Y015180D03*
X020830Y014274D03*
D20*
X023530Y015180D03*
X023530Y020180D03*
D21*
X007520Y011680D03*
X006340Y011680D03*
X005020Y012680D03*
X003840Y012680D03*
D22*
X009180Y013180D03*
X009180Y014180D03*
X010180Y014180D03*
X010180Y013180D03*
X010180Y015180D03*
X009180Y015180D03*
X010499Y006820D03*
X011589Y006820D03*
X012680Y006820D03*
X013771Y006820D03*
X014861Y006820D03*
X014316Y005702D03*
X013225Y005702D03*
X012135Y005702D03*
X011044Y005702D03*
D23*
X006336Y010030D03*
X005430Y010030D03*
X004524Y010030D03*
D24*
X005430Y007330D03*
D25*
X005680Y005680D03*
X005680Y004680D03*
X005680Y003680D03*
X007680Y008680D03*
X007680Y009680D03*
X006680Y015680D03*
X006680Y016680D03*
X005680Y015680D03*
X004680Y015680D03*
X004680Y016680D03*
X016680Y017680D03*
X016680Y018680D03*
X020680Y009180D03*
X021680Y009180D03*
X022680Y009180D03*
X022180Y008180D03*
X023180Y008180D03*
X025180Y008180D03*
X025180Y007180D03*
X025180Y006180D03*
X021180Y008180D03*
D26*
X017599Y006261D03*
X007761Y006261D03*
D27*
X003680Y015680D03*
D28*
X007180Y014270D03*
X007180Y013090D03*
D29*
X006420Y012493D02*
X006420Y011760D01*
X006260Y011760D01*
X006260Y012510D01*
X005958Y012510D01*
X005904Y012499D01*
X005853Y012478D01*
X005807Y012447D01*
X005768Y012408D01*
X005737Y012363D01*
X005716Y012312D01*
X005706Y012258D01*
X005706Y011760D01*
X006260Y011760D01*
X006260Y011600D01*
X005706Y011600D01*
X005706Y011102D01*
X005716Y011048D01*
X005737Y010997D01*
X005768Y010952D01*
X005807Y010913D01*
X005853Y010882D01*
X005904Y010861D01*
X005958Y010850D01*
X005971Y010850D01*
X005854Y010801D01*
X005840Y010788D01*
X005812Y010799D01*
X005758Y010810D01*
X005500Y010810D01*
X005500Y010100D01*
X005716Y010100D01*
X005716Y009960D01*
X005500Y009960D01*
X005500Y009250D01*
X005758Y009250D01*
X005812Y009261D01*
X005840Y009273D01*
X005854Y009259D01*
X005972Y009210D01*
X006699Y009210D01*
X006817Y009259D01*
X006843Y009285D01*
X007099Y009285D01*
X007204Y009180D01*
X007099Y009075D01*
X004975Y009075D01*
X004975Y009246D01*
X005006Y009259D01*
X005020Y009273D01*
X005048Y009261D01*
X005102Y009250D01*
X005360Y009250D01*
X005360Y009960D01*
X005500Y009960D01*
X005500Y010100D01*
X005360Y010100D01*
X005144Y010100D01*
X005144Y009960D01*
X005360Y009960D01*
X005360Y010100D01*
X005360Y010795D01*
X005402Y010795D01*
X005456Y010806D01*
X005507Y010827D01*
X005553Y010858D01*
X005592Y010897D01*
X005623Y010942D01*
X005644Y010993D01*
X005654Y011048D01*
X005654Y011350D01*
X005100Y011350D01*
X005100Y011510D01*
X004940Y011510D01*
X004910Y011510D01*
X004910Y011350D01*
X004940Y011350D01*
X004940Y011510D01*
X004940Y012600D01*
X004910Y012600D01*
X004910Y012760D01*
X004940Y012760D01*
X004940Y012600D01*
X005100Y012600D01*
X005100Y012065D01*
X005100Y011510D01*
X005654Y011510D01*
X005654Y011812D01*
X005644Y011867D01*
X005623Y011918D01*
X005596Y011957D01*
X005623Y011997D01*
X005644Y012048D01*
X005654Y012102D01*
X005654Y012600D01*
X005100Y012600D01*
X005100Y012760D01*
X005654Y012760D01*
X005654Y013258D01*
X005644Y013312D01*
X005623Y013363D01*
X005592Y013408D01*
X005553Y013447D01*
X005507Y013478D01*
X005456Y013499D01*
X005427Y013505D01*
X005438Y013505D01*
X005556Y013554D01*
X005646Y013644D01*
X005694Y013761D01*
X005694Y014599D01*
X005646Y014716D01*
X005556Y014806D01*
X005438Y014855D01*
X005325Y014855D01*
X005325Y015009D01*
X005265Y015154D01*
X005197Y015221D01*
X005208Y015232D01*
X005251Y015190D01*
X005318Y015138D01*
X005392Y015096D01*
X005471Y015063D01*
X005553Y015041D01*
X005637Y015030D01*
X005660Y015030D01*
X005660Y015660D01*
X005700Y015660D01*
X005700Y015030D01*
X005723Y015030D01*
X005807Y015041D01*
X005889Y015063D01*
X005968Y015096D01*
X006042Y015138D01*
X006109Y015190D01*
X006152Y015232D01*
X006287Y015098D01*
X006345Y014956D01*
X006427Y014874D01*
X006359Y014806D01*
X006310Y014688D01*
X006310Y012672D01*
X006359Y012554D01*
X006420Y012493D01*
X006406Y012507D02*
X006260Y012507D01*
X006260Y012349D02*
X006420Y012349D01*
X006420Y012190D02*
X006260Y012190D01*
X006260Y012032D02*
X006420Y012032D01*
X006420Y011873D02*
X006260Y011873D01*
X006260Y011715D02*
X005654Y011715D01*
X005641Y011873D02*
X005706Y011873D01*
X005706Y012032D02*
X005637Y012032D01*
X005654Y012190D02*
X005706Y012190D01*
X005732Y012349D02*
X005654Y012349D01*
X005654Y012507D02*
X005943Y012507D01*
X006313Y012666D02*
X005100Y012666D01*
X005100Y012507D02*
X004940Y012507D01*
X004940Y012349D02*
X005100Y012349D01*
X005100Y012190D02*
X004940Y012190D01*
X004940Y012032D02*
X005100Y012032D01*
X005100Y011873D02*
X004940Y011873D01*
X004940Y011715D02*
X005100Y011715D01*
X005100Y011556D02*
X004940Y011556D01*
X004940Y011398D02*
X004910Y011398D01*
X005100Y011398D02*
X005706Y011398D01*
X005706Y011556D02*
X005654Y011556D01*
X005654Y011239D02*
X005706Y011239D01*
X005710Y011081D02*
X005654Y011081D01*
X005609Y010922D02*
X005798Y010922D01*
X005500Y010764D02*
X005360Y010764D01*
X005360Y010605D02*
X005500Y010605D01*
X005500Y010447D02*
X005360Y010447D01*
X005360Y010288D02*
X005500Y010288D01*
X005500Y010130D02*
X005360Y010130D01*
X005360Y009971D02*
X005144Y009971D01*
X005360Y009813D02*
X005500Y009813D01*
X005500Y009971D02*
X005716Y009971D01*
X005500Y009654D02*
X005360Y009654D01*
X005360Y009496D02*
X005500Y009496D01*
X005500Y009337D02*
X005360Y009337D01*
X004975Y009179D02*
X007203Y009179D01*
X007099Y008285D02*
X007289Y008095D01*
X007543Y007990D01*
X007817Y007990D01*
X008071Y008095D01*
X008265Y008289D01*
X008370Y008543D01*
X008370Y008817D01*
X008265Y009071D01*
X008156Y009180D01*
X008265Y009289D01*
X008370Y009543D01*
X008370Y009817D01*
X008265Y010071D01*
X008075Y010261D01*
X008075Y010878D01*
X008146Y010949D01*
X008194Y011066D01*
X008194Y012294D01*
X008146Y012411D01*
X008056Y012501D01*
X007980Y012533D01*
X008001Y012554D01*
X008050Y012672D01*
X008050Y014688D01*
X008001Y014806D01*
X007911Y014896D01*
X007794Y014944D01*
X007474Y014944D01*
X007404Y015015D01*
X007197Y015221D01*
X007265Y015289D01*
X007370Y015543D01*
X007370Y015817D01*
X007265Y016071D01*
X007156Y016180D01*
X007261Y016285D01*
X007666Y016285D01*
X007666Y016261D01*
X007714Y016144D01*
X007804Y016054D01*
X007922Y016005D01*
X008758Y016005D01*
X008770Y016010D01*
X009154Y016010D01*
X009238Y016045D01*
X009440Y016045D01*
X009440Y016600D01*
X009600Y016600D01*
X009600Y016045D01*
X009902Y016045D01*
X009956Y016056D01*
X010007Y016077D01*
X010053Y016108D01*
X010092Y016147D01*
X010123Y016192D01*
X010144Y016243D01*
X010154Y016298D01*
X010154Y016600D01*
X009600Y016600D01*
X009600Y016760D01*
X009440Y016760D01*
X009440Y017315D01*
X009238Y017315D01*
X009154Y017350D01*
X008770Y017350D01*
X008758Y017355D01*
X007922Y017355D01*
X007804Y017306D01*
X007714Y017216D01*
X007666Y017099D01*
X007666Y017075D01*
X007261Y017075D01*
X007071Y017265D01*
X006817Y017370D01*
X006543Y017370D01*
X006289Y017265D01*
X006095Y017071D01*
X005990Y016817D01*
X005990Y016543D01*
X006095Y016289D01*
X006204Y016180D01*
X006152Y016128D01*
X006109Y016170D01*
X006042Y016222D01*
X005968Y016264D01*
X005889Y016297D01*
X005807Y016319D01*
X005723Y016330D01*
X005700Y016330D01*
X005700Y015700D01*
X005660Y015700D01*
X005660Y016330D01*
X005637Y016330D01*
X005553Y016319D01*
X005471Y016297D01*
X005392Y016264D01*
X005318Y016222D01*
X005251Y016170D01*
X005250Y016169D01*
X005250Y016274D01*
X005265Y016289D01*
X005370Y016543D01*
X005370Y016817D01*
X005265Y017071D01*
X005071Y017265D01*
X004817Y017370D01*
X004543Y017370D01*
X004289Y017265D01*
X004224Y017200D01*
X003325Y017200D01*
X003325Y018318D01*
X003502Y018140D01*
X003736Y018043D01*
X004624Y018043D01*
X004858Y018140D01*
X005037Y018319D01*
X005134Y018553D01*
X005134Y018807D01*
X005037Y019041D01*
X004897Y019180D01*
X005037Y019319D01*
X005134Y019553D01*
X005134Y019807D01*
X005037Y020041D01*
X004867Y020211D01*
X004886Y020225D01*
X004952Y020291D01*
X005007Y020367D01*
X005050Y020451D01*
X005079Y020540D01*
X005094Y020633D01*
X005094Y020662D01*
X004198Y020662D01*
X004198Y020698D01*
X005094Y020698D01*
X005094Y020727D01*
X005079Y020820D01*
X005050Y020909D01*
X005007Y020993D01*
X004995Y021010D01*
X005058Y021010D01*
X005250Y021089D01*
X005396Y021235D01*
X005475Y021427D01*
X005475Y022043D01*
X006061Y022043D01*
X006178Y022092D01*
X006268Y022182D01*
X006271Y022188D01*
X006310Y022149D01*
X006310Y021606D01*
X006366Y021470D01*
X006470Y021366D01*
X009470Y018366D01*
X009606Y018310D01*
X010435Y018310D01*
X010435Y018180D01*
X011150Y018180D01*
X011150Y018180D01*
X011150Y018240D01*
X011150Y018240D01*
X011150Y018180D01*
X011535Y018180D01*
X011535Y018180D01*
X011150Y018180D01*
X011150Y018180D01*
X011150Y017803D01*
X011150Y017803D01*
X011150Y018180D01*
X011150Y018180D01*
X011150Y018180D01*
X010435Y018180D01*
X010435Y018032D01*
X010446Y017978D01*
X010467Y017927D01*
X010498Y017882D01*
X010537Y017843D01*
X010582Y017812D01*
X010633Y017791D01*
X010687Y017780D01*
X011098Y017780D01*
X011057Y017752D01*
X011018Y017713D01*
X010987Y017668D01*
X010966Y017617D01*
X010956Y017562D01*
X010956Y017260D01*
X011510Y017260D01*
X011510Y017100D01*
X011670Y017100D01*
X011700Y017100D01*
X011700Y017260D01*
X011670Y017260D01*
X011670Y017100D01*
X011670Y016545D01*
X011872Y016545D01*
X011956Y016510D01*
X012340Y016510D01*
X012352Y016505D01*
X013188Y016505D01*
X013189Y016506D01*
X013239Y016385D01*
X013310Y016315D01*
X013310Y014620D01*
X013211Y014620D01*
X013094Y014571D01*
X013004Y014481D01*
X012955Y014364D01*
X012955Y013996D01*
X012982Y013930D01*
X012955Y013864D01*
X012955Y013496D01*
X013004Y013379D01*
X013005Y013378D01*
X012995Y013328D01*
X012995Y013180D01*
X013710Y013180D01*
X014425Y013180D01*
X014425Y013223D01*
X014577Y013160D01*
X014783Y013160D01*
X014975Y013239D01*
X015045Y013310D01*
X015045Y013170D01*
X015600Y013170D01*
X015600Y013200D01*
X015760Y013200D01*
X015760Y013170D01*
X015600Y013170D01*
X015600Y013010D01*
X015045Y013010D01*
X015045Y012838D01*
X014890Y012994D01*
X014754Y013050D01*
X014425Y013050D01*
X014425Y013180D01*
X013710Y013180D01*
X013710Y013180D01*
X013710Y013180D01*
X012995Y013180D01*
X012995Y013032D01*
X013005Y012982D01*
X013004Y012981D01*
X012955Y012864D01*
X012955Y012496D01*
X012982Y012430D01*
X012955Y012364D01*
X012955Y011996D01*
X012982Y011930D01*
X012955Y011864D01*
X012955Y011496D01*
X012982Y011430D01*
X012955Y011364D01*
X012955Y010996D01*
X013004Y010879D01*
X013094Y010789D01*
X013211Y010740D01*
X013467Y010740D01*
X012720Y009994D01*
X012616Y009890D01*
X012560Y009754D01*
X012560Y007460D01*
X012415Y007460D01*
X012135Y007180D01*
X011855Y007460D01*
X011385Y007460D01*
X011358Y007525D01*
X011300Y007583D01*
X011300Y009254D01*
X011244Y009390D01*
X011140Y009494D01*
X010550Y010083D01*
X010550Y010401D01*
X010573Y010392D01*
X010787Y010392D01*
X010985Y010474D01*
X011136Y010625D01*
X011200Y010780D01*
X011650Y010780D01*
X012113Y010780D01*
X012167Y010791D01*
X012218Y010812D01*
X012263Y010843D01*
X012302Y010882D01*
X012333Y010927D01*
X012354Y010978D01*
X012365Y011032D01*
X012365Y011180D01*
X012365Y011328D01*
X012355Y011378D01*
X012356Y011379D01*
X012405Y011496D01*
X012405Y011864D01*
X012378Y011930D01*
X012405Y011996D01*
X012405Y012364D01*
X012378Y012430D01*
X012405Y012496D01*
X012405Y012864D01*
X012378Y012930D01*
X012405Y012996D01*
X012405Y013364D01*
X012378Y013430D01*
X012405Y013496D01*
X012405Y013864D01*
X012378Y013930D01*
X012405Y013996D01*
X012405Y014364D01*
X012356Y014481D01*
X012266Y014571D01*
X012149Y014620D01*
X011550Y014620D01*
X011550Y015515D01*
X011621Y015585D01*
X011700Y015777D01*
X011700Y015983D01*
X011621Y016175D01*
X011475Y016321D01*
X011283Y016400D01*
X011077Y016400D01*
X010885Y016321D01*
X010739Y016175D01*
X010660Y015983D01*
X010660Y015777D01*
X010739Y015585D01*
X010810Y015515D01*
X010810Y014455D01*
X010557Y014708D01*
X010780Y014931D01*
X010780Y015160D01*
X010200Y015160D01*
X010200Y015200D01*
X010160Y015200D01*
X010160Y015780D01*
X009931Y015780D01*
X009680Y015529D01*
X009429Y015780D01*
X009200Y015780D01*
X009200Y015200D01*
X009780Y015200D01*
X010160Y015200D01*
X010160Y015160D01*
X009200Y015160D01*
X009200Y015200D01*
X009160Y015200D01*
X009160Y015780D01*
X008931Y015780D01*
X008580Y015429D01*
X008580Y015200D01*
X009160Y015200D01*
X009160Y015160D01*
X008580Y015160D01*
X008580Y014931D01*
X008803Y014708D01*
X008645Y014550D01*
X008606Y014550D01*
X008470Y014494D01*
X008366Y014390D01*
X008116Y014140D01*
X008060Y014004D01*
X008060Y012856D01*
X008116Y012720D01*
X008220Y012616D01*
X008616Y012220D01*
X008720Y012116D01*
X008856Y012060D01*
X010037Y012060D01*
X009720Y011744D01*
X009616Y011640D01*
X009560Y011504D01*
X009560Y009606D01*
X009616Y009470D01*
X009720Y009366D01*
X010310Y008777D01*
X010310Y007583D01*
X010289Y007563D01*
X010185Y007458D01*
X010152Y007378D01*
X009859Y007085D01*
X009859Y006555D01*
X010234Y006180D01*
X010617Y006180D01*
X010404Y005967D01*
X010404Y005437D01*
X010779Y005062D01*
X011309Y005062D01*
X011589Y005342D01*
X011765Y005167D01*
X011765Y005152D01*
X011821Y005016D01*
X012337Y004500D01*
X007916Y004500D01*
X007376Y005040D01*
X007449Y005018D01*
X007573Y004993D01*
X007681Y004982D01*
X007681Y006181D01*
X006482Y006181D01*
X006493Y006073D01*
X006518Y005949D01*
X006540Y005876D01*
X006253Y006163D01*
X006116Y006220D01*
X006071Y006265D01*
X005817Y006370D01*
X005543Y006370D01*
X005289Y006265D01*
X005274Y006250D01*
X003325Y006250D01*
X003325Y010795D01*
X003385Y010770D01*
X003385Y010601D01*
X003445Y010456D01*
X003556Y010345D01*
X003701Y010285D01*
X003904Y010285D01*
X003904Y009467D01*
X003953Y009349D01*
X004043Y009259D01*
X004161Y009210D01*
X004185Y009210D01*
X004185Y008601D01*
X004245Y008456D01*
X004356Y008345D01*
X004501Y008285D01*
X007099Y008285D01*
X007157Y008228D02*
X003325Y008228D01*
X003325Y008386D02*
X004315Y008386D01*
X004209Y008545D02*
X003325Y008545D01*
X003325Y008703D02*
X004185Y008703D01*
X004185Y008862D02*
X003325Y008862D01*
X003325Y009020D02*
X004185Y009020D01*
X004185Y009179D02*
X003325Y009179D01*
X003325Y009337D02*
X003965Y009337D01*
X003904Y009496D02*
X003325Y009496D01*
X003325Y009654D02*
X003904Y009654D01*
X003904Y009813D02*
X003325Y009813D01*
X003325Y009971D02*
X003904Y009971D01*
X003904Y010130D02*
X003325Y010130D01*
X003325Y010288D02*
X003694Y010288D01*
X003455Y010447D02*
X003325Y010447D01*
X003325Y010605D02*
X003385Y010605D01*
X003385Y010764D02*
X003325Y010764D01*
X004910Y012666D02*
X004940Y012666D01*
X005654Y012824D02*
X006310Y012824D01*
X006310Y012983D02*
X005654Y012983D01*
X005654Y013141D02*
X006310Y013141D01*
X006310Y013300D02*
X005646Y013300D01*
X005537Y013458D02*
X006310Y013458D01*
X006310Y013617D02*
X005618Y013617D01*
X005694Y013775D02*
X006310Y013775D01*
X006310Y013934D02*
X005694Y013934D01*
X005694Y014092D02*
X006310Y014092D01*
X006310Y014251D02*
X005694Y014251D01*
X005694Y014409D02*
X006310Y014409D01*
X006310Y014568D02*
X005694Y014568D01*
X005636Y014726D02*
X006326Y014726D01*
X006417Y014885D02*
X005325Y014885D01*
X005311Y015043D02*
X005546Y015043D01*
X005660Y015043D02*
X005700Y015043D01*
X005814Y015043D02*
X006309Y015043D01*
X006183Y015202D02*
X006121Y015202D01*
X005700Y015202D02*
X005660Y015202D01*
X005660Y015360D02*
X005700Y015360D01*
X005700Y015519D02*
X005660Y015519D01*
X005239Y015202D02*
X005217Y015202D01*
X005660Y015836D02*
X005700Y015836D01*
X005700Y015994D02*
X005660Y015994D01*
X005660Y016153D02*
X005700Y016153D01*
X005700Y016311D02*
X005660Y016311D01*
X005524Y016311D02*
X005274Y016311D01*
X005340Y016470D02*
X006020Y016470D01*
X005990Y016628D02*
X005370Y016628D01*
X005370Y016787D02*
X005990Y016787D01*
X006043Y016945D02*
X005317Y016945D01*
X005232Y017104D02*
X006128Y017104D01*
X006286Y017262D02*
X005074Y017262D01*
X004286Y017262D02*
X003325Y017262D01*
X003325Y017421D02*
X010956Y017421D01*
X010959Y017579D02*
X003325Y017579D01*
X003325Y017738D02*
X011042Y017738D01*
X011150Y017896D02*
X011150Y017896D01*
X011150Y018055D02*
X011150Y018055D01*
X011150Y018213D02*
X011150Y018213D01*
X010435Y018213D02*
X004931Y018213D01*
X005058Y018372D02*
X009465Y018372D01*
X009307Y018530D02*
X005124Y018530D01*
X005134Y018689D02*
X009148Y018689D01*
X008990Y018847D02*
X005117Y018847D01*
X005051Y019006D02*
X008831Y019006D01*
X008673Y019164D02*
X004913Y019164D01*
X005038Y019323D02*
X008514Y019323D01*
X008356Y019481D02*
X005104Y019481D01*
X005134Y019640D02*
X008197Y019640D01*
X008039Y019798D02*
X005134Y019798D01*
X005072Y019957D02*
X007880Y019957D01*
X007722Y020115D02*
X004962Y020115D01*
X004934Y020274D02*
X007563Y020274D01*
X007405Y020432D02*
X005040Y020432D01*
X005087Y020591D02*
X007246Y020591D01*
X007088Y020749D02*
X005090Y020749D01*
X005050Y020908D02*
X006929Y020908D01*
X006771Y021066D02*
X005194Y021066D01*
X005385Y021225D02*
X006612Y021225D01*
X006454Y021383D02*
X005457Y021383D01*
X005475Y021542D02*
X006337Y021542D01*
X006310Y021700D02*
X005475Y021700D01*
X005475Y021859D02*
X006310Y021859D01*
X006310Y022017D02*
X005475Y022017D01*
X006262Y022176D02*
X006284Y022176D01*
X008050Y022149D02*
X008050Y021333D01*
X008374Y021009D01*
X008485Y021121D01*
X008677Y021200D01*
X008883Y021200D01*
X009075Y021121D01*
X009120Y021075D01*
X010859Y021075D01*
X010916Y021051D01*
X010916Y021099D01*
X010964Y021216D01*
X011054Y021306D01*
X011172Y021355D01*
X011325Y021355D01*
X011345Y021404D01*
X011456Y021515D01*
X011956Y022015D01*
X012101Y022075D01*
X012476Y022075D01*
X012319Y022140D01*
X012180Y022279D01*
X012041Y022140D01*
X011807Y022043D01*
X011553Y022043D01*
X011319Y022140D01*
X011180Y022279D01*
X011041Y022140D01*
X010807Y022043D01*
X010553Y022043D01*
X010319Y022140D01*
X010149Y022310D01*
X010135Y022291D01*
X010069Y022225D01*
X009993Y022170D01*
X009909Y022127D01*
X009820Y022098D01*
X009727Y022083D01*
X009698Y022083D01*
X009698Y022662D01*
X009662Y022662D01*
X009662Y022083D01*
X009633Y022083D01*
X009540Y022098D01*
X009451Y022127D01*
X009367Y022170D01*
X009291Y022225D01*
X009225Y022291D01*
X009211Y022310D01*
X009041Y022140D01*
X008807Y022043D01*
X008553Y022043D01*
X008319Y022140D01*
X008180Y022279D01*
X008050Y022149D01*
X008076Y022176D02*
X008284Y022176D01*
X008050Y022017D02*
X011961Y022017D01*
X012076Y022176D02*
X012284Y022176D01*
X011800Y021859D02*
X008050Y021859D01*
X008050Y021700D02*
X011641Y021700D01*
X011483Y021542D02*
X008050Y021542D01*
X008050Y021383D02*
X011337Y021383D01*
X010973Y021225D02*
X008159Y021225D01*
X008317Y021066D02*
X008431Y021066D01*
X009076Y022176D02*
X009359Y022176D01*
X009662Y022176D02*
X009698Y022176D01*
X009698Y022334D02*
X009662Y022334D01*
X009662Y022493D02*
X009698Y022493D01*
X009698Y022651D02*
X009662Y022651D01*
X010001Y022176D02*
X010284Y022176D01*
X011076Y022176D02*
X011284Y022176D01*
X010916Y021066D02*
X010880Y021066D01*
X012660Y020760D02*
X012690Y020760D01*
X012690Y020600D01*
X012660Y020600D01*
X012660Y020760D01*
X012660Y020749D02*
X012690Y020749D01*
X012850Y020749D02*
X013790Y020749D01*
X013806Y020765D02*
X013404Y020363D01*
X013404Y020600D01*
X012850Y020600D01*
X012850Y020760D01*
X013404Y020760D01*
X013404Y021062D01*
X013394Y021117D01*
X013373Y021168D01*
X013342Y021213D01*
X013303Y021252D01*
X013257Y021283D01*
X013252Y021285D01*
X013259Y021285D01*
X013404Y021345D01*
X013515Y021456D01*
X013948Y021889D01*
X013970Y021866D01*
X013970Y021866D01*
X014116Y021720D01*
X014220Y021616D01*
X014356Y021560D01*
X015527Y021560D01*
X016166Y020921D01*
X016166Y020761D01*
X016214Y020644D01*
X016304Y020554D01*
X016422Y020505D01*
X017258Y020505D01*
X017270Y020510D01*
X017590Y020510D01*
X017602Y020505D01*
X018438Y020505D01*
X018510Y020535D01*
X018510Y020456D01*
X018545Y020372D01*
X018545Y020170D01*
X019100Y020170D01*
X019100Y020010D01*
X018545Y020010D01*
X018545Y019708D01*
X018556Y019654D01*
X018577Y019603D01*
X018608Y019557D01*
X018647Y019518D01*
X018692Y019487D01*
X018743Y019466D01*
X018798Y019456D01*
X019100Y019456D01*
X019100Y020010D01*
X019260Y020010D01*
X019260Y020170D01*
X019815Y020170D01*
X019815Y020372D01*
X019850Y020456D01*
X019850Y020785D01*
X020010Y020785D01*
X020010Y020722D01*
X020047Y020633D01*
X020010Y020544D01*
X020010Y019816D01*
X020059Y019699D01*
X020072Y019685D01*
X020061Y019656D01*
X020050Y019602D01*
X020050Y019344D01*
X020760Y019344D01*
X020760Y019204D01*
X020900Y019204D01*
X020900Y018694D01*
X020903Y018694D01*
X020887Y018688D01*
X020842Y018657D01*
X020803Y018618D01*
X020772Y018573D01*
X020751Y018522D01*
X020740Y018468D01*
X020740Y018330D01*
X021530Y018330D01*
X021530Y018330D01*
X021530Y018720D01*
X022068Y018720D01*
X022122Y018709D01*
X022173Y018688D01*
X022218Y018657D01*
X022257Y018618D01*
X022288Y018573D01*
X022309Y018522D01*
X022320Y018468D01*
X022320Y018360D01*
X023110Y018360D01*
X023110Y019135D01*
X022967Y019135D01*
X022849Y019184D01*
X022759Y019274D01*
X022710Y019391D01*
X022710Y019610D01*
X021608Y019610D01*
X021610Y019602D01*
X021610Y019344D01*
X020900Y019344D01*
X020900Y019204D01*
X021610Y019204D01*
X021610Y018947D01*
X021599Y018893D01*
X021578Y018842D01*
X021547Y018796D01*
X021508Y018757D01*
X021462Y018726D01*
X021447Y018720D01*
X021530Y018720D01*
X021530Y018330D01*
X021530Y018330D01*
X020740Y018330D01*
X020740Y018192D01*
X020751Y018138D01*
X020772Y018087D01*
X020803Y018042D01*
X020842Y018003D01*
X020887Y017972D01*
X020936Y017952D01*
X020839Y017911D01*
X020749Y017821D01*
X020700Y017704D01*
X020700Y017356D01*
X020749Y017239D01*
X020839Y017149D01*
X020956Y017100D01*
X022104Y017100D01*
X022221Y017149D01*
X022311Y017239D01*
X022360Y017356D01*
X022360Y017500D01*
X023304Y017500D01*
X023357Y017447D01*
X023567Y017360D01*
X024260Y017360D01*
X024260Y017270D01*
X024255Y017258D01*
X024255Y016422D01*
X024304Y016304D01*
X024394Y016214D01*
X024511Y016166D01*
X024535Y016166D01*
X024535Y013851D01*
X024595Y013706D01*
X024607Y013694D01*
X024511Y013694D01*
X024394Y013646D01*
X024304Y013556D01*
X024281Y013500D01*
X024250Y013500D01*
X024250Y014222D01*
X024301Y014274D01*
X024350Y014391D01*
X024350Y015969D01*
X024301Y016086D01*
X024211Y016176D01*
X024094Y016225D01*
X022967Y016225D01*
X022849Y016176D01*
X022759Y016086D01*
X022710Y015969D01*
X022710Y015750D01*
X021650Y015750D01*
X021650Y016449D01*
X021601Y016567D01*
X021511Y016657D01*
X021393Y016706D01*
X020266Y016706D01*
X020149Y016657D01*
X020067Y016575D01*
X019855Y016575D01*
X019855Y016688D01*
X019806Y016806D01*
X019716Y016896D01*
X019599Y016944D01*
X018761Y016944D01*
X018644Y016896D01*
X018554Y016806D01*
X018505Y016688D01*
X018505Y016575D01*
X018355Y016575D01*
X018355Y016688D01*
X018306Y016806D01*
X018216Y016896D01*
X018099Y016944D01*
X017261Y016944D01*
X017144Y016896D01*
X017054Y016806D01*
X017005Y016688D01*
X017005Y015900D01*
X016877Y015900D01*
X016685Y015821D01*
X016539Y015675D01*
X016460Y015483D01*
X016460Y015277D01*
X016539Y015085D01*
X016685Y014939D01*
X016877Y014860D01*
X017005Y014860D01*
X017005Y014672D01*
X017054Y014554D01*
X017144Y014464D01*
X017261Y014416D01*
X018099Y014416D01*
X018216Y014464D01*
X018306Y014554D01*
X018355Y014672D01*
X018355Y015508D01*
X018350Y015520D01*
X018350Y015785D01*
X018510Y015785D01*
X018510Y015456D01*
X018545Y015372D01*
X018545Y015170D01*
X019100Y015170D01*
X019100Y015010D01*
X018545Y015010D01*
X018545Y014708D01*
X018556Y014654D01*
X018577Y014603D01*
X018608Y014557D01*
X018647Y014518D01*
X018692Y014487D01*
X018743Y014466D01*
X018798Y014456D01*
X019100Y014456D01*
X019100Y015010D01*
X019260Y015010D01*
X019260Y015170D01*
X019815Y015170D01*
X019815Y015372D01*
X019850Y015456D01*
X019850Y015785D01*
X020010Y015785D01*
X020010Y015722D01*
X020047Y015633D01*
X020010Y015544D01*
X020010Y014816D01*
X020059Y014699D01*
X020072Y014685D01*
X020061Y014656D01*
X020050Y014602D01*
X020050Y014344D01*
X020760Y014344D01*
X020760Y014204D01*
X020900Y014204D01*
X020900Y013694D01*
X020903Y013694D01*
X020887Y013688D01*
X020842Y013657D01*
X020803Y013618D01*
X020772Y013573D01*
X020751Y013522D01*
X020740Y013468D01*
X020740Y013330D01*
X021530Y013330D01*
X021530Y013330D01*
X021530Y013720D01*
X022068Y013720D01*
X022122Y013709D01*
X022173Y013688D01*
X022218Y013657D01*
X022257Y013618D01*
X022288Y013573D01*
X022309Y013522D01*
X022320Y013468D01*
X022320Y013360D01*
X023110Y013360D01*
X023110Y014135D01*
X022967Y014135D01*
X022849Y014184D01*
X022759Y014274D01*
X022710Y014391D01*
X022710Y014610D01*
X021608Y014610D01*
X021610Y014602D01*
X021610Y014344D01*
X020900Y014344D01*
X020900Y014204D01*
X021610Y014204D01*
X021610Y013947D01*
X021599Y013893D01*
X021578Y013842D01*
X021547Y013796D01*
X021508Y013757D01*
X021462Y013726D01*
X021447Y013720D01*
X021530Y013720D01*
X021530Y013330D01*
X021530Y013330D01*
X020740Y013330D01*
X020740Y013192D01*
X020751Y013138D01*
X020772Y013087D01*
X020803Y013042D01*
X020842Y013003D01*
X020887Y012972D01*
X020936Y012952D01*
X020839Y012911D01*
X020749Y012821D01*
X020700Y012704D01*
X020700Y012683D01*
X020390Y012994D01*
X020254Y013050D01*
X017795Y013050D01*
X017725Y013121D01*
X017533Y013200D01*
X017327Y013200D01*
X017135Y013121D01*
X016989Y012975D01*
X016910Y012783D01*
X016910Y012615D01*
X016899Y012620D01*
X016290Y012620D01*
X016304Y012654D01*
X016315Y012708D01*
X016315Y013010D01*
X015760Y013010D01*
X015760Y013170D01*
X016315Y013170D01*
X016315Y013372D01*
X016350Y013456D01*
X016350Y013840D01*
X016355Y013852D01*
X016355Y014688D01*
X016306Y014806D01*
X016216Y014896D01*
X016099Y014944D01*
X015261Y014944D01*
X015144Y014896D01*
X015075Y014827D01*
X015075Y016166D01*
X015099Y016166D01*
X015216Y016214D01*
X015306Y016304D01*
X015355Y016422D01*
X015355Y016785D01*
X015509Y016785D01*
X015654Y016845D01*
X015765Y016956D01*
X015825Y017101D01*
X015825Y020009D01*
X015765Y020154D01*
X015654Y020265D01*
X015355Y020564D01*
X015355Y020938D01*
X015306Y021056D01*
X015216Y021146D01*
X015099Y021194D01*
X014261Y021194D01*
X014144Y021146D01*
X014054Y021056D01*
X014005Y020938D01*
X014005Y020825D01*
X013951Y020825D01*
X013806Y020765D01*
X014005Y020908D02*
X013404Y020908D01*
X013404Y021066D02*
X014064Y021066D01*
X013632Y020591D02*
X013404Y020591D01*
X013404Y020432D02*
X013473Y020432D01*
X013331Y021225D02*
X015862Y021225D01*
X015704Y021383D02*
X013442Y021383D01*
X013600Y021542D02*
X015545Y021542D01*
X015296Y021066D02*
X016021Y021066D01*
X016166Y020908D02*
X015355Y020908D01*
X015355Y020749D02*
X016171Y020749D01*
X016268Y020591D02*
X015355Y020591D01*
X015487Y020432D02*
X018520Y020432D01*
X018545Y020274D02*
X015645Y020274D01*
X015781Y020115D02*
X019100Y020115D01*
X019100Y019957D02*
X019260Y019957D01*
X019260Y020010D02*
X019260Y019456D01*
X019562Y019456D01*
X019617Y019466D01*
X019668Y019487D01*
X019713Y019518D01*
X019752Y019557D01*
X019783Y019603D01*
X019804Y019654D01*
X019815Y019708D01*
X019815Y020010D01*
X019260Y020010D01*
X019260Y020115D02*
X020010Y020115D01*
X020010Y019957D02*
X019815Y019957D01*
X019815Y019798D02*
X020017Y019798D01*
X020057Y019640D02*
X019798Y019640D01*
X019652Y019481D02*
X020050Y019481D01*
X020050Y019204D02*
X020050Y018947D01*
X020061Y018893D01*
X020082Y018842D01*
X020112Y018796D01*
X020151Y018757D01*
X020197Y018726D01*
X020248Y018705D01*
X020302Y018694D01*
X020760Y018694D01*
X020760Y019204D01*
X020050Y019204D01*
X020050Y019164D02*
X017172Y019164D01*
X017265Y019071D02*
X017071Y019265D01*
X016817Y019370D01*
X016543Y019370D01*
X016289Y019265D01*
X016095Y019071D01*
X015990Y018817D01*
X015990Y018543D01*
X016095Y018289D01*
X016232Y018152D01*
X016190Y018109D01*
X016138Y018042D01*
X016096Y017968D01*
X016063Y017889D01*
X016041Y017807D01*
X016030Y017723D01*
X016030Y017700D01*
X016660Y017700D01*
X016660Y017660D01*
X016030Y017660D01*
X016030Y017637D01*
X016041Y017553D01*
X016063Y017471D01*
X016096Y017392D01*
X016138Y017318D01*
X016190Y017251D01*
X016251Y017190D01*
X016318Y017138D01*
X016392Y017096D01*
X016471Y017063D01*
X016553Y017041D01*
X016637Y017030D01*
X016660Y017030D01*
X016660Y017660D01*
X016700Y017660D01*
X016700Y017700D01*
X017330Y017700D01*
X017330Y017723D01*
X017319Y017807D01*
X017297Y017889D01*
X017264Y017968D01*
X017222Y018042D01*
X017170Y018109D01*
X017128Y018152D01*
X017265Y018289D01*
X017370Y018543D01*
X017370Y018817D01*
X017265Y019071D01*
X017292Y019006D02*
X020050Y019006D01*
X020080Y018847D02*
X017358Y018847D01*
X017370Y018689D02*
X020888Y018689D01*
X020900Y018847D02*
X020760Y018847D01*
X020760Y019006D02*
X020900Y019006D01*
X020900Y019164D02*
X020760Y019164D01*
X020760Y019323D02*
X016932Y019323D01*
X016428Y019323D02*
X015825Y019323D01*
X015825Y019481D02*
X018708Y019481D01*
X018562Y019640D02*
X015825Y019640D01*
X015825Y019798D02*
X018545Y019798D01*
X018545Y019957D02*
X015825Y019957D01*
X015825Y019164D02*
X016188Y019164D01*
X016068Y019006D02*
X015825Y019006D01*
X015825Y018847D02*
X016002Y018847D01*
X015990Y018689D02*
X015825Y018689D01*
X015825Y018530D02*
X015995Y018530D01*
X016061Y018372D02*
X015825Y018372D01*
X015825Y018213D02*
X016171Y018213D01*
X016148Y018055D02*
X015825Y018055D01*
X015825Y017896D02*
X016066Y017896D01*
X016032Y017738D02*
X015825Y017738D01*
X015825Y017579D02*
X016038Y017579D01*
X016084Y017421D02*
X015825Y017421D01*
X015825Y017262D02*
X016181Y017262D01*
X016378Y017104D02*
X015825Y017104D01*
X015754Y016945D02*
X024255Y016945D01*
X024255Y016787D02*
X019814Y016787D01*
X019855Y016628D02*
X020120Y016628D01*
X020739Y017262D02*
X017179Y017262D01*
X017170Y017251D02*
X017222Y017318D01*
X017264Y017392D01*
X017297Y017471D01*
X017319Y017553D01*
X017330Y017637D01*
X017330Y017660D01*
X016700Y017660D01*
X016700Y017030D01*
X016723Y017030D01*
X016807Y017041D01*
X016889Y017063D01*
X016968Y017096D01*
X017042Y017138D01*
X017109Y017190D01*
X017170Y017251D01*
X017276Y017421D02*
X020700Y017421D01*
X020700Y017579D02*
X017322Y017579D01*
X017328Y017738D02*
X020714Y017738D01*
X020823Y017896D02*
X017294Y017896D01*
X017212Y018055D02*
X020794Y018055D01*
X020740Y018213D02*
X017189Y018213D01*
X017299Y018372D02*
X020740Y018372D01*
X020754Y018530D02*
X017365Y018530D01*
X016700Y017579D02*
X016660Y017579D01*
X016660Y017421D02*
X016700Y017421D01*
X016700Y017262D02*
X016660Y017262D01*
X016660Y017104D02*
X016700Y017104D01*
X016982Y017104D02*
X020948Y017104D01*
X021540Y016628D02*
X024255Y016628D01*
X024255Y016470D02*
X021641Y016470D01*
X021650Y016311D02*
X024301Y016311D01*
X024235Y016153D02*
X024535Y016153D01*
X024535Y015994D02*
X024340Y015994D01*
X024350Y015836D02*
X024535Y015836D01*
X024535Y015677D02*
X024350Y015677D01*
X024350Y015519D02*
X024535Y015519D01*
X024535Y015360D02*
X024350Y015360D01*
X024350Y015202D02*
X024535Y015202D01*
X024535Y015043D02*
X024350Y015043D01*
X024350Y014885D02*
X024535Y014885D01*
X024535Y014726D02*
X024350Y014726D01*
X024350Y014568D02*
X024535Y014568D01*
X024535Y014409D02*
X024350Y014409D01*
X024278Y014251D02*
X024535Y014251D01*
X024535Y014092D02*
X024250Y014092D01*
X024250Y013934D02*
X024535Y013934D01*
X024567Y013775D02*
X024250Y013775D01*
X024250Y013617D02*
X024365Y013617D01*
X023110Y013617D02*
X022259Y013617D01*
X022320Y013458D02*
X023110Y013458D01*
X023110Y013775D02*
X021526Y013775D01*
X021530Y013617D02*
X021530Y013617D01*
X021530Y013458D02*
X021530Y013458D01*
X021607Y013934D02*
X023110Y013934D01*
X023110Y014092D02*
X021610Y014092D01*
X021610Y014409D02*
X022710Y014409D01*
X022710Y014568D02*
X021610Y014568D01*
X020900Y014251D02*
X022782Y014251D01*
X022710Y015836D02*
X021650Y015836D01*
X021650Y015994D02*
X022721Y015994D01*
X022825Y016153D02*
X021650Y016153D01*
X022112Y017104D02*
X024255Y017104D01*
X024257Y017262D02*
X022321Y017262D01*
X022360Y017421D02*
X023421Y017421D01*
X023110Y018372D02*
X022320Y018372D01*
X022306Y018530D02*
X023110Y018530D01*
X023110Y018689D02*
X022172Y018689D01*
X021580Y018847D02*
X023110Y018847D01*
X023110Y019006D02*
X021610Y019006D01*
X021610Y019164D02*
X022896Y019164D01*
X022739Y019323D02*
X020900Y019323D01*
X021610Y019481D02*
X022710Y019481D01*
X021530Y018689D02*
X021530Y018689D01*
X021530Y018530D02*
X021530Y018530D01*
X021530Y018372D02*
X021530Y018372D01*
X020010Y020274D02*
X019815Y020274D01*
X019840Y020432D02*
X020010Y020432D01*
X020029Y020591D02*
X019850Y020591D01*
X019850Y020749D02*
X020010Y020749D01*
X020067Y021575D02*
X019855Y021575D01*
X019855Y021688D01*
X019806Y021806D01*
X019716Y021896D01*
X019599Y021944D01*
X018761Y021944D01*
X018644Y021896D01*
X018555Y021807D01*
X018438Y021855D01*
X017602Y021855D01*
X017590Y021850D01*
X017270Y021850D01*
X017258Y021855D01*
X016422Y021855D01*
X016320Y021813D01*
X016007Y022126D01*
X016041Y022140D01*
X016180Y022279D01*
X016319Y022140D01*
X016553Y022043D01*
X016807Y022043D01*
X017041Y022140D01*
X017211Y022310D01*
X017225Y022291D01*
X017291Y022225D01*
X017367Y022170D01*
X017451Y022127D01*
X017540Y022098D01*
X017633Y022083D01*
X017662Y022083D01*
X017662Y022662D01*
X017698Y022662D01*
X017698Y022083D01*
X017727Y022083D01*
X017820Y022098D01*
X017909Y022127D01*
X017993Y022170D01*
X018069Y022225D01*
X018135Y022291D01*
X018149Y022310D01*
X018319Y022140D01*
X018553Y022043D01*
X018807Y022043D01*
X019041Y022140D01*
X019180Y022279D01*
X019319Y022140D01*
X019553Y022043D01*
X019807Y022043D01*
X020041Y022140D01*
X020180Y022279D01*
X020319Y022140D01*
X020553Y022043D01*
X020807Y022043D01*
X021041Y022140D01*
X021180Y022279D01*
X021319Y022140D01*
X021553Y022043D01*
X021807Y022043D01*
X022041Y022140D01*
X022180Y022279D01*
X022319Y022140D01*
X022553Y022043D01*
X022807Y022043D01*
X023041Y022140D01*
X023180Y022279D01*
X023319Y022140D01*
X023553Y022043D01*
X023807Y022043D01*
X024041Y022140D01*
X024211Y022310D01*
X024225Y022291D01*
X024291Y022225D01*
X024367Y022170D01*
X024451Y022127D01*
X024540Y022098D01*
X024633Y022083D01*
X024662Y022083D01*
X024662Y022662D01*
X024698Y022662D01*
X024698Y022083D01*
X024727Y022083D01*
X024820Y022098D01*
X024909Y022127D01*
X024993Y022170D01*
X025069Y022225D01*
X025135Y022291D01*
X025190Y022367D01*
X025233Y022451D01*
X025235Y022458D01*
X025365Y022234D01*
X025651Y021947D01*
X026003Y021745D01*
X026395Y021640D01*
X026800Y021640D01*
X027192Y021745D01*
X027543Y021947D01*
X027655Y022059D01*
X027655Y015922D01*
X027541Y016037D01*
X027307Y016134D01*
X027053Y016134D01*
X026819Y016037D01*
X026750Y015967D01*
X026750Y018043D01*
X026663Y018253D01*
X026503Y018413D01*
X026293Y018500D01*
X025579Y018500D01*
X025556Y018556D01*
X025466Y018646D01*
X025349Y018694D01*
X024511Y018694D01*
X024394Y018646D01*
X024304Y018556D01*
X024281Y018500D01*
X024250Y018500D01*
X024250Y019222D01*
X024301Y019274D01*
X024350Y019391D01*
X024350Y020969D01*
X024301Y021086D01*
X024211Y021176D01*
X024094Y021225D01*
X022967Y021225D01*
X022849Y021176D01*
X022759Y021086D01*
X022710Y020969D01*
X022710Y020750D01*
X021650Y020750D01*
X021650Y021449D01*
X021601Y021567D01*
X021511Y021657D01*
X021393Y021706D01*
X020266Y021706D01*
X020149Y021657D01*
X020067Y021575D01*
X020253Y021700D02*
X019850Y021700D01*
X019753Y021859D02*
X025805Y021859D01*
X025582Y022017D02*
X016116Y022017D01*
X016076Y022176D02*
X016284Y022176D01*
X016275Y021859D02*
X018607Y021859D01*
X018284Y022176D02*
X018001Y022176D01*
X017698Y022176D02*
X017662Y022176D01*
X017662Y022334D02*
X017698Y022334D01*
X017698Y022493D02*
X017662Y022493D01*
X017662Y022651D02*
X017698Y022651D01*
X017359Y022176D02*
X017076Y022176D01*
X019076Y022176D02*
X019284Y022176D01*
X020076Y022176D02*
X020284Y022176D01*
X021076Y022176D02*
X021284Y022176D01*
X021407Y021700D02*
X026169Y021700D01*
X027026Y021700D02*
X027655Y021700D01*
X027655Y021542D02*
X021612Y021542D01*
X021650Y021383D02*
X027655Y021383D01*
X027655Y021225D02*
X024095Y021225D01*
X024310Y021066D02*
X027655Y021066D01*
X027655Y020908D02*
X024350Y020908D01*
X024350Y020749D02*
X027655Y020749D01*
X027655Y020591D02*
X024350Y020591D01*
X024350Y020432D02*
X027655Y020432D01*
X027655Y020274D02*
X024350Y020274D01*
X024350Y020115D02*
X027655Y020115D01*
X027655Y019957D02*
X024350Y019957D01*
X024350Y019798D02*
X027655Y019798D01*
X027655Y019640D02*
X024350Y019640D01*
X024350Y019481D02*
X027655Y019481D01*
X027655Y019323D02*
X024322Y019323D01*
X024250Y019164D02*
X027655Y019164D01*
X027655Y019006D02*
X024250Y019006D01*
X024250Y018847D02*
X027655Y018847D01*
X027655Y018689D02*
X025363Y018689D01*
X025567Y018530D02*
X027655Y018530D01*
X027655Y018372D02*
X026545Y018372D01*
X026680Y018213D02*
X027655Y018213D01*
X027655Y018055D02*
X026745Y018055D01*
X026750Y017896D02*
X027655Y017896D01*
X027655Y017738D02*
X026750Y017738D01*
X026750Y017579D02*
X027655Y017579D01*
X027655Y017421D02*
X026750Y017421D01*
X026750Y017262D02*
X027655Y017262D01*
X027655Y017104D02*
X026750Y017104D01*
X026750Y016945D02*
X027655Y016945D01*
X027655Y016787D02*
X026750Y016787D01*
X026750Y016628D02*
X027655Y016628D01*
X027655Y016470D02*
X026750Y016470D01*
X026750Y016311D02*
X027655Y016311D01*
X027655Y016153D02*
X026750Y016153D01*
X026750Y015994D02*
X026777Y015994D01*
X027583Y015994D02*
X027655Y015994D01*
X024497Y018689D02*
X024250Y018689D01*
X024250Y018530D02*
X024293Y018530D01*
X022710Y020908D02*
X021650Y020908D01*
X021650Y021066D02*
X022750Y021066D01*
X022965Y021225D02*
X021650Y021225D01*
X022076Y022176D02*
X022284Y022176D01*
X023076Y022176D02*
X023284Y022176D01*
X024076Y022176D02*
X024359Y022176D01*
X024662Y022176D02*
X024698Y022176D01*
X024698Y022334D02*
X024662Y022334D01*
X024662Y022493D02*
X024698Y022493D01*
X024698Y022651D02*
X024662Y022651D01*
X025001Y022176D02*
X025423Y022176D01*
X025307Y022334D02*
X025166Y022334D01*
X027389Y021859D02*
X027655Y021859D01*
X027655Y022017D02*
X027613Y022017D01*
X020028Y015677D02*
X019850Y015677D01*
X019850Y015519D02*
X020010Y015519D01*
X020010Y015360D02*
X019815Y015360D01*
X019815Y015202D02*
X020010Y015202D01*
X020010Y015043D02*
X019260Y015043D01*
X019260Y015010D02*
X019815Y015010D01*
X019815Y014708D01*
X019804Y014654D01*
X019783Y014603D01*
X019752Y014557D01*
X019713Y014518D01*
X019668Y014487D01*
X019617Y014466D01*
X019562Y014456D01*
X019260Y014456D01*
X019260Y015010D01*
X019260Y014885D02*
X019100Y014885D01*
X019100Y015043D02*
X018355Y015043D01*
X018355Y014885D02*
X018545Y014885D01*
X018545Y014726D02*
X018355Y014726D01*
X018312Y014568D02*
X018601Y014568D01*
X019100Y014568D02*
X019260Y014568D01*
X019260Y014726D02*
X019100Y014726D01*
X018545Y015202D02*
X018355Y015202D01*
X018355Y015360D02*
X018545Y015360D01*
X018510Y015519D02*
X018350Y015519D01*
X018350Y015677D02*
X018510Y015677D01*
X018505Y016628D02*
X018355Y016628D01*
X018314Y016787D02*
X018546Y016787D01*
X017046Y016787D02*
X015512Y016787D01*
X015355Y016628D02*
X017005Y016628D01*
X017005Y016470D02*
X015355Y016470D01*
X015309Y016311D02*
X017005Y016311D01*
X017005Y016153D02*
X015075Y016153D01*
X015075Y015994D02*
X017005Y015994D01*
X016721Y015836D02*
X015075Y015836D01*
X015075Y015677D02*
X016542Y015677D01*
X016475Y015519D02*
X015075Y015519D01*
X015075Y015360D02*
X016460Y015360D01*
X016491Y015202D02*
X015075Y015202D01*
X015075Y015043D02*
X016582Y015043D01*
X016817Y014885D02*
X016227Y014885D01*
X016339Y014726D02*
X017005Y014726D01*
X017048Y014568D02*
X016355Y014568D01*
X016355Y014409D02*
X020050Y014409D01*
X020050Y014568D02*
X019759Y014568D01*
X019815Y014726D02*
X020047Y014726D01*
X020010Y014885D02*
X019815Y014885D01*
X020050Y014204D02*
X020050Y013947D01*
X020061Y013893D01*
X020082Y013842D01*
X020112Y013796D01*
X020151Y013757D01*
X020197Y013726D01*
X020248Y013705D01*
X020302Y013694D01*
X020760Y013694D01*
X020760Y014204D01*
X020050Y014204D01*
X020050Y014092D02*
X016355Y014092D01*
X016355Y013934D02*
X020053Y013934D01*
X020133Y013775D02*
X016350Y013775D01*
X016350Y013617D02*
X020801Y013617D01*
X020760Y013775D02*
X020900Y013775D01*
X020900Y013934D02*
X020760Y013934D01*
X020760Y014092D02*
X020900Y014092D01*
X020760Y014251D02*
X016355Y014251D01*
X016350Y013458D02*
X020740Y013458D01*
X020740Y013300D02*
X016315Y013300D01*
X016315Y012983D02*
X016997Y012983D01*
X016927Y012824D02*
X016315Y012824D01*
X016306Y012666D02*
X016910Y012666D01*
X017184Y013141D02*
X015760Y013141D01*
X015760Y013010D02*
X015760Y012548D01*
X015694Y012481D01*
X015645Y012364D01*
X015645Y011996D01*
X015672Y011930D01*
X015645Y011864D01*
X015645Y011496D01*
X015672Y011430D01*
X015645Y011364D01*
X015645Y010996D01*
X015672Y010930D01*
X015645Y010864D01*
X015645Y010496D01*
X015694Y010379D01*
X015784Y010289D01*
X015798Y010283D01*
X015739Y010225D01*
X015660Y010033D01*
X015660Y009827D01*
X015739Y009635D01*
X015885Y009489D01*
X016077Y009410D01*
X016255Y009410D01*
X016255Y009352D01*
X016260Y009340D01*
X016260Y008956D01*
X016295Y008872D01*
X016295Y008670D01*
X016850Y008670D01*
X016850Y008510D01*
X016295Y008510D01*
X016295Y008208D01*
X016306Y008154D01*
X016327Y008103D01*
X016358Y008057D01*
X016397Y008018D01*
X016442Y007987D01*
X016493Y007966D01*
X016548Y007956D01*
X016850Y007956D01*
X016850Y008510D01*
X017010Y008510D01*
X017010Y008670D01*
X017565Y008670D01*
X018100Y008670D01*
X018100Y008700D01*
X018260Y008700D01*
X018260Y008670D01*
X018100Y008670D01*
X018100Y008510D01*
X017010Y008510D01*
X017010Y007956D01*
X017312Y007956D01*
X017367Y007966D01*
X017418Y007987D01*
X017463Y008018D01*
X017502Y008057D01*
X017533Y008103D01*
X017554Y008154D01*
X017555Y008158D01*
X017556Y008154D01*
X017577Y008103D01*
X017608Y008057D01*
X017647Y008018D01*
X017692Y007987D01*
X017743Y007966D01*
X017798Y007956D01*
X018100Y007956D01*
X018100Y008510D01*
X018260Y008510D01*
X018260Y008670D01*
X018815Y008670D01*
X018815Y008872D01*
X018850Y008956D01*
X018850Y009340D01*
X018855Y009352D01*
X018855Y010188D01*
X018833Y010240D01*
X018959Y010240D01*
X019076Y010289D01*
X019166Y010379D01*
X019215Y010496D01*
X019215Y010864D01*
X019166Y010981D01*
X019165Y010982D01*
X019175Y011032D01*
X019175Y011180D01*
X019175Y011328D01*
X019165Y011378D01*
X019166Y011379D01*
X019215Y011496D01*
X019215Y011810D01*
X020027Y011810D01*
X021970Y009866D01*
X022106Y009810D01*
X022398Y009810D01*
X022289Y009765D01*
X022152Y009628D01*
X022109Y009670D01*
X022042Y009722D01*
X021968Y009764D01*
X021889Y009797D01*
X021807Y009819D01*
X021723Y009830D01*
X021700Y009830D01*
X021700Y009200D01*
X021660Y009200D01*
X021660Y009830D01*
X021637Y009830D01*
X021553Y009819D01*
X021471Y009797D01*
X021392Y009764D01*
X021318Y009722D01*
X021251Y009670D01*
X021208Y009628D01*
X021071Y009765D01*
X020817Y009870D01*
X020543Y009870D01*
X020289Y009765D01*
X020095Y009571D01*
X019990Y009317D01*
X019990Y009043D01*
X020035Y008934D01*
X020035Y006851D01*
X020095Y006706D01*
X020190Y006611D01*
X020121Y006640D01*
X019739Y006640D01*
X019386Y006494D01*
X019116Y006224D01*
X018970Y005871D01*
X018970Y005489D01*
X019116Y005136D01*
X019386Y004866D01*
X019739Y004720D01*
X020121Y004720D01*
X020474Y004866D01*
X020653Y005046D01*
X020724Y004875D01*
X020875Y004724D01*
X021073Y004642D01*
X021287Y004642D01*
X021485Y004724D01*
X021636Y004875D01*
X021718Y005073D01*
X021718Y005287D01*
X021636Y005485D01*
X021575Y005546D01*
X021575Y006259D01*
X021515Y006404D01*
X021404Y006515D01*
X020825Y007094D01*
X020825Y007634D01*
X020892Y007596D01*
X020971Y007563D01*
X021053Y007541D01*
X021137Y007530D01*
X021160Y007530D01*
X021160Y008160D01*
X021200Y008160D01*
X021200Y007530D01*
X021223Y007530D01*
X021307Y007541D01*
X021389Y007563D01*
X021468Y007596D01*
X021542Y007638D01*
X021609Y007690D01*
X021652Y007732D01*
X021789Y007595D01*
X022043Y007490D01*
X022317Y007490D01*
X022338Y007499D01*
X022720Y007116D01*
X022856Y007060D01*
X023504Y007060D01*
X023640Y007116D01*
X023744Y007220D01*
X024140Y007616D01*
X024244Y007720D01*
X024300Y007856D01*
X024300Y010004D01*
X024244Y010140D01*
X024140Y010244D01*
X023744Y010640D01*
X023640Y010744D01*
X023504Y010800D01*
X022583Y010800D01*
X021283Y012100D01*
X022104Y012100D01*
X022221Y012149D01*
X022311Y012239D01*
X022360Y012356D01*
X022360Y012500D01*
X023304Y012500D01*
X023357Y012447D01*
X023567Y012360D01*
X024260Y012360D01*
X024260Y012270D01*
X024255Y012258D01*
X024255Y011422D01*
X024304Y011304D01*
X024394Y011214D01*
X024511Y011166D01*
X025349Y011166D01*
X025466Y011214D01*
X025537Y011285D01*
X025543Y011285D01*
X025543Y011236D01*
X025610Y011075D01*
X025610Y008726D01*
X025571Y008765D01*
X025317Y008870D01*
X025043Y008870D01*
X024789Y008765D01*
X024595Y008571D01*
X024490Y008317D01*
X024490Y008043D01*
X024595Y007789D01*
X024732Y007652D01*
X024690Y007609D01*
X024638Y007542D01*
X024596Y007468D01*
X024563Y007389D01*
X024541Y007307D01*
X024530Y007223D01*
X024530Y007200D01*
X025160Y007200D01*
X025160Y007160D01*
X024530Y007160D01*
X024530Y007137D01*
X024541Y007053D01*
X024563Y006971D01*
X024596Y006892D01*
X024638Y006818D01*
X024690Y006751D01*
X024732Y006708D01*
X024595Y006571D01*
X024537Y006431D01*
X024474Y006494D01*
X024121Y006640D01*
X023739Y006640D01*
X023386Y006494D01*
X023116Y006224D01*
X022970Y005871D01*
X022970Y005489D01*
X023116Y005136D01*
X023386Y004866D01*
X023739Y004720D01*
X024121Y004720D01*
X024194Y004750D01*
X023944Y004500D01*
X015523Y004500D01*
X015994Y004970D01*
X016050Y005106D01*
X016050Y008004D01*
X015994Y008140D01*
X015890Y008244D01*
X015550Y008583D01*
X015550Y012254D01*
X015494Y012390D01*
X015428Y012456D01*
X015600Y012456D01*
X015600Y013010D01*
X015760Y013010D01*
X015760Y012983D02*
X015600Y012983D01*
X015600Y013141D02*
X014425Y013141D01*
X014901Y012983D02*
X015045Y012983D01*
X015035Y013300D02*
X015045Y013300D01*
X015600Y012824D02*
X015760Y012824D01*
X015760Y012666D02*
X015600Y012666D01*
X015600Y012507D02*
X015719Y012507D01*
X015645Y012349D02*
X015511Y012349D01*
X015550Y012190D02*
X015645Y012190D01*
X015645Y012032D02*
X015550Y012032D01*
X015550Y011873D02*
X015649Y011873D01*
X015645Y011715D02*
X015550Y011715D01*
X015550Y011556D02*
X015645Y011556D01*
X015659Y011398D02*
X015550Y011398D01*
X015550Y011239D02*
X015645Y011239D01*
X015645Y011081D02*
X015550Y011081D01*
X015550Y010922D02*
X015669Y010922D01*
X015645Y010764D02*
X015550Y010764D01*
X015550Y010605D02*
X015645Y010605D01*
X015666Y010447D02*
X015550Y010447D01*
X015550Y010288D02*
X015785Y010288D01*
X015700Y010130D02*
X015550Y010130D01*
X015550Y009971D02*
X015660Y009971D01*
X015666Y009813D02*
X015550Y009813D01*
X015550Y009654D02*
X015731Y009654D01*
X015879Y009496D02*
X015550Y009496D01*
X015550Y009337D02*
X016260Y009337D01*
X016260Y009179D02*
X015550Y009179D01*
X015550Y009020D02*
X016260Y009020D01*
X016295Y008862D02*
X015550Y008862D01*
X015550Y008703D02*
X016295Y008703D01*
X016295Y008386D02*
X015747Y008386D01*
X015589Y008545D02*
X016850Y008545D01*
X016850Y008386D02*
X017010Y008386D01*
X017010Y008228D02*
X016850Y008228D01*
X016850Y008069D02*
X017010Y008069D01*
X017510Y008069D02*
X017600Y008069D01*
X018100Y008069D02*
X018260Y008069D01*
X018260Y007956D02*
X018562Y007956D01*
X018617Y007966D01*
X018668Y007987D01*
X018713Y008018D01*
X018752Y008057D01*
X018783Y008103D01*
X018804Y008154D01*
X018815Y008208D01*
X018815Y008510D01*
X018260Y008510D01*
X018260Y007956D01*
X018260Y008228D02*
X018100Y008228D01*
X018100Y008386D02*
X018260Y008386D01*
X018260Y008545D02*
X020035Y008545D01*
X020035Y008703D02*
X018815Y008703D01*
X018815Y008862D02*
X020035Y008862D01*
X019999Y009020D02*
X018850Y009020D01*
X018850Y009179D02*
X019990Y009179D01*
X019998Y009337D02*
X018850Y009337D01*
X018855Y009496D02*
X020064Y009496D01*
X020178Y009654D02*
X018855Y009654D01*
X018855Y009813D02*
X020404Y009813D01*
X020956Y009813D02*
X021529Y009813D01*
X021660Y009813D02*
X021700Y009813D01*
X021831Y009813D02*
X022100Y009813D01*
X022125Y009654D02*
X022178Y009654D01*
X021866Y009971D02*
X018855Y009971D01*
X018855Y010130D02*
X021707Y010130D01*
X021549Y010288D02*
X019075Y010288D01*
X019194Y010447D02*
X021390Y010447D01*
X021232Y010605D02*
X019215Y010605D01*
X019215Y010764D02*
X021073Y010764D01*
X020915Y010922D02*
X019191Y010922D01*
X019175Y011081D02*
X020756Y011081D01*
X020598Y011239D02*
X019175Y011239D01*
X019175Y011180D02*
X018460Y011180D01*
X018460Y011240D01*
X018460Y011240D01*
X018460Y011180D01*
X018460Y011180D01*
X018460Y011180D01*
X018460Y011180D01*
X017745Y011180D01*
X017745Y011310D01*
X017356Y011310D01*
X017220Y011366D01*
X017136Y011451D01*
X017128Y011430D01*
X017155Y011364D01*
X017155Y010996D01*
X017128Y010930D01*
X017155Y010864D01*
X017155Y010496D01*
X017134Y010444D01*
X017349Y010444D01*
X017466Y010396D01*
X017555Y010307D01*
X017644Y010396D01*
X017732Y010432D01*
X017705Y010496D01*
X017705Y010864D01*
X017754Y010981D01*
X017755Y010982D01*
X017745Y011032D01*
X017745Y011180D01*
X018460Y011180D01*
X018460Y011120D01*
X018460Y011120D01*
X018460Y011180D01*
X018460Y011180D01*
X019175Y011180D01*
X019174Y011398D02*
X020439Y011398D01*
X020281Y011556D02*
X019215Y011556D01*
X019215Y011715D02*
X020122Y011715D01*
X020559Y012824D02*
X020751Y012824D01*
X020871Y012983D02*
X020401Y012983D01*
X020750Y013141D02*
X017676Y013141D01*
X017189Y011398D02*
X017141Y011398D01*
X017155Y011239D02*
X017745Y011239D01*
X017745Y011081D02*
X017155Y011081D01*
X017131Y010922D02*
X017729Y010922D01*
X017705Y010764D02*
X017155Y010764D01*
X017155Y010605D02*
X017705Y010605D01*
X017726Y010447D02*
X017134Y010447D01*
X018460Y011239D02*
X018460Y011239D01*
X021182Y009654D02*
X021235Y009654D01*
X021660Y009654D02*
X021700Y009654D01*
X021700Y009496D02*
X021660Y009496D01*
X021660Y009337D02*
X021700Y009337D01*
X021200Y008069D02*
X021160Y008069D01*
X021160Y007911D02*
X021200Y007911D01*
X021200Y007752D02*
X021160Y007752D01*
X021160Y007594D02*
X021200Y007594D01*
X021463Y007594D02*
X021793Y007594D01*
X022402Y007435D02*
X020825Y007435D01*
X020825Y007277D02*
X022560Y007277D01*
X022719Y007118D02*
X020825Y007118D01*
X020959Y006960D02*
X024568Y006960D01*
X024533Y007118D02*
X023641Y007118D01*
X023800Y007277D02*
X024537Y007277D01*
X024582Y007435D02*
X023958Y007435D01*
X024117Y007594D02*
X024678Y007594D01*
X024632Y007752D02*
X024257Y007752D01*
X024300Y007911D02*
X024545Y007911D01*
X024490Y008069D02*
X024300Y008069D01*
X024300Y008228D02*
X024490Y008228D01*
X024518Y008386D02*
X024300Y008386D01*
X024300Y008545D02*
X024584Y008545D01*
X024727Y008703D02*
X024300Y008703D01*
X024300Y008862D02*
X025022Y008862D01*
X025338Y008862D02*
X025610Y008862D01*
X025610Y009020D02*
X024300Y009020D01*
X024300Y009179D02*
X025610Y009179D01*
X025610Y009337D02*
X024300Y009337D01*
X024300Y009496D02*
X025610Y009496D01*
X025610Y009654D02*
X024300Y009654D01*
X024300Y009813D02*
X025610Y009813D01*
X025610Y009971D02*
X024300Y009971D01*
X024248Y010130D02*
X025610Y010130D01*
X025610Y010288D02*
X024095Y010288D01*
X023937Y010447D02*
X025610Y010447D01*
X025610Y010605D02*
X023778Y010605D01*
X023592Y010764D02*
X025610Y010764D01*
X025610Y010922D02*
X022461Y010922D01*
X022303Y011081D02*
X025608Y011081D01*
X025543Y011239D02*
X025491Y011239D01*
X024369Y011239D02*
X022144Y011239D01*
X021986Y011398D02*
X024265Y011398D01*
X024255Y011556D02*
X021827Y011556D01*
X021669Y011715D02*
X024255Y011715D01*
X024255Y011873D02*
X021510Y011873D01*
X021352Y012032D02*
X024255Y012032D01*
X024255Y012190D02*
X022263Y012190D01*
X022357Y012349D02*
X024260Y012349D01*
X020035Y008386D02*
X018815Y008386D01*
X018815Y008228D02*
X020035Y008228D01*
X020035Y008069D02*
X018760Y008069D01*
X018100Y008545D02*
X017010Y008545D01*
X016295Y008228D02*
X015906Y008228D01*
X016023Y008069D02*
X016350Y008069D01*
X016050Y007911D02*
X020035Y007911D01*
X020035Y007752D02*
X016050Y007752D01*
X016050Y007594D02*
X020035Y007594D01*
X020035Y007435D02*
X018109Y007435D01*
X018147Y007419D02*
X018031Y007467D01*
X017911Y007504D01*
X017787Y007528D01*
X017679Y007539D01*
X017679Y006341D01*
X017519Y006341D01*
X017519Y007539D01*
X017411Y007528D01*
X017288Y007504D01*
X017168Y007467D01*
X017051Y007419D01*
X016940Y007360D01*
X016836Y007290D01*
X016739Y007210D01*
X016650Y007121D01*
X016570Y007024D01*
X016500Y006920D01*
X016441Y006809D01*
X016393Y006692D01*
X016356Y006572D01*
X016332Y006449D01*
X016321Y006341D01*
X017519Y006341D01*
X017519Y006181D01*
X016321Y006181D01*
X016332Y006073D01*
X016356Y005949D01*
X016393Y005829D01*
X016441Y005713D01*
X016500Y005602D01*
X016570Y005497D01*
X016650Y005400D01*
X016739Y005311D01*
X016836Y005231D01*
X016940Y005161D01*
X017051Y005102D01*
X017168Y005054D01*
X017288Y005018D01*
X017411Y004993D01*
X017519Y004982D01*
X017519Y006181D01*
X017679Y006181D01*
X017679Y004982D01*
X017787Y004993D01*
X017911Y005018D01*
X018031Y005054D01*
X018147Y005102D01*
X018258Y005161D01*
X018363Y005231D01*
X018460Y005311D01*
X018549Y005400D01*
X018629Y005497D01*
X018699Y005602D01*
X018758Y005713D01*
X018806Y005829D01*
X018842Y005949D01*
X018867Y006073D01*
X018878Y006181D01*
X017679Y006181D01*
X017679Y006341D01*
X018878Y006341D01*
X018867Y006449D01*
X018842Y006572D01*
X018806Y006692D01*
X018758Y006809D01*
X018699Y006920D01*
X018629Y007024D01*
X018549Y007121D01*
X018460Y007210D01*
X018363Y007290D01*
X018258Y007360D01*
X018147Y007419D01*
X018379Y007277D02*
X020035Y007277D01*
X020035Y007118D02*
X018552Y007118D01*
X018672Y006960D02*
X020035Y006960D01*
X020056Y006801D02*
X018761Y006801D01*
X018821Y006643D02*
X020159Y006643D01*
X019376Y006484D02*
X018860Y006484D01*
X018876Y006167D02*
X019093Y006167D01*
X019027Y006009D02*
X018854Y006009D01*
X018812Y005850D02*
X018970Y005850D01*
X018970Y005692D02*
X018746Y005692D01*
X018652Y005533D02*
X018970Y005533D01*
X019017Y005375D02*
X018523Y005375D01*
X018340Y005216D02*
X019083Y005216D01*
X019195Y005058D02*
X018039Y005058D01*
X017679Y005058D02*
X017519Y005058D01*
X017519Y005216D02*
X017679Y005216D01*
X017679Y005375D02*
X017519Y005375D01*
X017519Y005533D02*
X017679Y005533D01*
X017679Y005692D02*
X017519Y005692D01*
X017519Y005850D02*
X017679Y005850D01*
X017679Y006009D02*
X017519Y006009D01*
X017519Y006167D02*
X017679Y006167D01*
X017679Y006326D02*
X019218Y006326D01*
X019353Y004899D02*
X015922Y004899D01*
X016030Y005058D02*
X017159Y005058D01*
X016859Y005216D02*
X016050Y005216D01*
X016050Y005375D02*
X016675Y005375D01*
X016546Y005533D02*
X016050Y005533D01*
X016050Y005692D02*
X016452Y005692D01*
X016386Y005850D02*
X016050Y005850D01*
X016050Y006009D02*
X016344Y006009D01*
X016322Y006167D02*
X016050Y006167D01*
X016050Y006326D02*
X017519Y006326D01*
X017519Y006484D02*
X017679Y006484D01*
X017679Y006643D02*
X017519Y006643D01*
X017519Y006801D02*
X017679Y006801D01*
X017679Y006960D02*
X017519Y006960D01*
X017519Y007118D02*
X017679Y007118D01*
X017679Y007277D02*
X017519Y007277D01*
X017519Y007435D02*
X017679Y007435D01*
X017090Y007435D02*
X016050Y007435D01*
X016050Y007277D02*
X016819Y007277D01*
X016647Y007118D02*
X016050Y007118D01*
X016050Y006960D02*
X016527Y006960D01*
X016438Y006801D02*
X016050Y006801D01*
X016050Y006643D02*
X016378Y006643D01*
X016339Y006484D02*
X016050Y006484D01*
X015060Y007460D02*
X014596Y007460D01*
X014288Y007151D01*
X014019Y007420D01*
X013791Y007420D01*
X013791Y006840D01*
X013751Y006840D01*
X013751Y007420D01*
X013550Y007420D01*
X013550Y009277D01*
X014560Y010287D01*
X014560Y008106D01*
X014616Y007970D01*
X015060Y007527D01*
X015060Y007460D01*
X014993Y007594D02*
X013550Y007594D01*
X013550Y007752D02*
X014835Y007752D01*
X014676Y007911D02*
X013550Y007911D01*
X013550Y008069D02*
X014575Y008069D01*
X014560Y008228D02*
X013550Y008228D01*
X013550Y008386D02*
X014560Y008386D01*
X014560Y008545D02*
X013550Y008545D01*
X013550Y008703D02*
X014560Y008703D01*
X014560Y008862D02*
X013550Y008862D01*
X013550Y009020D02*
X014560Y009020D01*
X014560Y009179D02*
X013550Y009179D01*
X013610Y009337D02*
X014560Y009337D01*
X014560Y009496D02*
X013769Y009496D01*
X013927Y009654D02*
X014560Y009654D01*
X014560Y009813D02*
X014086Y009813D01*
X014244Y009971D02*
X014560Y009971D01*
X014560Y010130D02*
X014403Y010130D01*
X013332Y010605D02*
X011116Y010605D01*
X011193Y010764D02*
X013155Y010764D01*
X012986Y010922D02*
X012330Y010922D01*
X012365Y011081D02*
X012955Y011081D01*
X012955Y011239D02*
X012365Y011239D01*
X012365Y011180D02*
X011650Y011180D01*
X011650Y011180D01*
X012365Y011180D01*
X012364Y011398D02*
X012969Y011398D01*
X012955Y011556D02*
X012405Y011556D01*
X012405Y011715D02*
X012955Y011715D01*
X012959Y011873D02*
X012401Y011873D01*
X012405Y012032D02*
X012955Y012032D01*
X012955Y012190D02*
X012405Y012190D01*
X012405Y012349D02*
X012955Y012349D01*
X012955Y012507D02*
X012405Y012507D01*
X012405Y012666D02*
X012955Y012666D01*
X012955Y012824D02*
X012405Y012824D01*
X012399Y012983D02*
X013005Y012983D01*
X012995Y013141D02*
X012405Y013141D01*
X012405Y013300D02*
X012995Y013300D01*
X012971Y013458D02*
X012389Y013458D01*
X012405Y013617D02*
X012955Y013617D01*
X012955Y013775D02*
X012405Y013775D01*
X012379Y013934D02*
X012981Y013934D01*
X012955Y014092D02*
X012405Y014092D01*
X012405Y014251D02*
X012955Y014251D01*
X012974Y014409D02*
X012386Y014409D01*
X012270Y014568D02*
X013090Y014568D01*
X013310Y014726D02*
X011550Y014726D01*
X011550Y014885D02*
X013310Y014885D01*
X013310Y015043D02*
X011550Y015043D01*
X011550Y015202D02*
X013310Y015202D01*
X013310Y015360D02*
X011550Y015360D01*
X011554Y015519D02*
X013310Y015519D01*
X013310Y015677D02*
X011659Y015677D01*
X011700Y015836D02*
X013310Y015836D01*
X013310Y015994D02*
X011696Y015994D01*
X011630Y016153D02*
X013310Y016153D01*
X013310Y016311D02*
X011484Y016311D01*
X011510Y016545D02*
X011208Y016545D01*
X011154Y016556D01*
X011103Y016577D01*
X011057Y016608D01*
X011018Y016647D01*
X010987Y016692D01*
X010966Y016743D01*
X010956Y016798D01*
X010956Y017100D01*
X011510Y017100D01*
X011510Y016545D01*
X011510Y016628D02*
X011670Y016628D01*
X011670Y016787D02*
X011510Y016787D01*
X011510Y016945D02*
X011670Y016945D01*
X011670Y017104D02*
X011700Y017104D01*
X011510Y017104D02*
X010146Y017104D01*
X010144Y017117D02*
X010123Y017168D01*
X010092Y017213D01*
X010053Y017252D01*
X010007Y017283D01*
X009956Y017304D01*
X009902Y017315D01*
X009600Y017315D01*
X009600Y016760D01*
X010154Y016760D01*
X010154Y017062D01*
X010144Y017117D01*
X010154Y016945D02*
X010956Y016945D01*
X010958Y016787D02*
X010154Y016787D01*
X010154Y016470D02*
X013204Y016470D01*
X015075Y014885D02*
X015133Y014885D01*
X011037Y016628D02*
X009600Y016628D01*
X009600Y016470D02*
X009440Y016470D01*
X009440Y016311D02*
X009600Y016311D01*
X009600Y016153D02*
X009440Y016153D01*
X009532Y015677D02*
X009828Y015677D01*
X010160Y015677D02*
X010200Y015677D01*
X010200Y015780D02*
X010200Y015200D01*
X010780Y015200D01*
X010780Y015429D01*
X010429Y015780D01*
X010200Y015780D01*
X010200Y015519D02*
X010160Y015519D01*
X010160Y015360D02*
X010200Y015360D01*
X010200Y015202D02*
X010160Y015202D01*
X010532Y015677D02*
X010701Y015677D01*
X010690Y015519D02*
X010806Y015519D01*
X010810Y015360D02*
X010780Y015360D01*
X010780Y015202D02*
X010810Y015202D01*
X010810Y015043D02*
X010780Y015043D01*
X010810Y014885D02*
X010733Y014885D01*
X010810Y014726D02*
X010575Y014726D01*
X010698Y014568D02*
X010810Y014568D01*
X010660Y015836D02*
X007362Y015836D01*
X007370Y015677D02*
X008828Y015677D01*
X008670Y015519D02*
X007360Y015519D01*
X007294Y015360D02*
X008580Y015360D01*
X008580Y015202D02*
X007217Y015202D01*
X007376Y015043D02*
X008580Y015043D01*
X008627Y014885D02*
X007923Y014885D01*
X008034Y014726D02*
X008785Y014726D01*
X008662Y014568D02*
X008050Y014568D01*
X008050Y014409D02*
X008386Y014409D01*
X008227Y014251D02*
X008050Y014251D01*
X008050Y014092D02*
X008097Y014092D01*
X008060Y013934D02*
X008050Y013934D01*
X008050Y013775D02*
X008060Y013775D01*
X008050Y013617D02*
X008060Y013617D01*
X008050Y013458D02*
X008060Y013458D01*
X008050Y013300D02*
X008060Y013300D01*
X008050Y013141D02*
X008060Y013141D01*
X008050Y012983D02*
X008060Y012983D01*
X008050Y012824D02*
X008073Y012824D01*
X008047Y012666D02*
X008171Y012666D01*
X008042Y012507D02*
X008330Y012507D01*
X008172Y012349D02*
X008488Y012349D01*
X008647Y012190D02*
X008194Y012190D01*
X008194Y012032D02*
X010008Y012032D01*
X009850Y011873D02*
X008194Y011873D01*
X008194Y011715D02*
X009691Y011715D01*
X009720Y011744D02*
X009720Y011744D01*
X009582Y011556D02*
X008194Y011556D01*
X008194Y011398D02*
X009560Y011398D01*
X009560Y011239D02*
X008194Y011239D01*
X008194Y011081D02*
X009560Y011081D01*
X009560Y010922D02*
X008119Y010922D01*
X008075Y010764D02*
X009560Y010764D01*
X009560Y010605D02*
X008075Y010605D01*
X008075Y010447D02*
X009560Y010447D01*
X009560Y010288D02*
X008075Y010288D01*
X008206Y010130D02*
X009560Y010130D01*
X009560Y009971D02*
X008306Y009971D01*
X008370Y009813D02*
X009560Y009813D01*
X009560Y009654D02*
X008370Y009654D01*
X008350Y009496D02*
X009606Y009496D01*
X009750Y009337D02*
X008285Y009337D01*
X008157Y009179D02*
X009908Y009179D01*
X010067Y009020D02*
X008286Y009020D01*
X008352Y008862D02*
X010225Y008862D01*
X010310Y008703D02*
X008370Y008703D01*
X008370Y008545D02*
X010310Y008545D01*
X010310Y008386D02*
X008305Y008386D01*
X008203Y008228D02*
X010310Y008228D01*
X010310Y008069D02*
X008008Y008069D01*
X007949Y007528D02*
X007841Y007539D01*
X007841Y006341D01*
X007681Y006341D01*
X007681Y007539D01*
X007573Y007528D01*
X007449Y007504D01*
X007329Y007467D01*
X007213Y007419D01*
X007102Y007360D01*
X006997Y007290D01*
X006900Y007210D01*
X006811Y007121D01*
X006731Y007024D01*
X006661Y006920D01*
X006602Y006809D01*
X006554Y006692D01*
X006518Y006572D01*
X006493Y006449D01*
X006482Y006341D01*
X007681Y006341D01*
X007681Y006181D01*
X007841Y006181D01*
X007841Y006341D01*
X009039Y006341D01*
X009028Y006449D01*
X009004Y006572D01*
X008967Y006692D01*
X008919Y006809D01*
X008860Y006920D01*
X008790Y007024D01*
X008710Y007121D01*
X008621Y007210D01*
X008524Y007290D01*
X008420Y007360D01*
X008309Y007419D01*
X008192Y007467D01*
X008072Y007504D01*
X007949Y007528D01*
X007841Y007435D02*
X007681Y007435D01*
X007681Y007277D02*
X007841Y007277D01*
X007841Y007118D02*
X007681Y007118D01*
X007681Y006960D02*
X007841Y006960D01*
X007841Y006801D02*
X007681Y006801D01*
X007681Y006643D02*
X007841Y006643D01*
X007841Y006484D02*
X007681Y006484D01*
X007681Y006326D02*
X005925Y006326D01*
X006244Y006167D02*
X006484Y006167D01*
X006506Y006009D02*
X006408Y006009D01*
X006500Y006484D02*
X003325Y006484D01*
X003325Y006326D02*
X005435Y006326D01*
X006539Y006643D02*
X003325Y006643D01*
X003325Y006801D02*
X006599Y006801D01*
X006688Y006960D02*
X003325Y006960D01*
X003325Y007118D02*
X006808Y007118D01*
X006981Y007277D02*
X003325Y007277D01*
X003325Y007435D02*
X007251Y007435D01*
X007352Y008069D02*
X003325Y008069D01*
X003325Y007911D02*
X010310Y007911D01*
X010310Y007752D02*
X003325Y007752D01*
X003325Y007594D02*
X010310Y007594D01*
X010289Y007563D02*
X010289Y007563D01*
X010176Y007435D02*
X008270Y007435D01*
X008541Y007277D02*
X010051Y007277D01*
X009892Y007118D02*
X008713Y007118D01*
X008833Y006960D02*
X009859Y006960D01*
X009859Y006801D02*
X008922Y006801D01*
X008982Y006643D02*
X009859Y006643D01*
X009930Y006484D02*
X009021Y006484D01*
X009039Y006181D02*
X007841Y006181D01*
X007841Y004982D01*
X007949Y004993D01*
X008072Y005018D01*
X008192Y005054D01*
X008309Y005102D01*
X008420Y005161D01*
X008524Y005231D01*
X008621Y005311D01*
X008710Y005400D01*
X008790Y005497D01*
X008860Y005602D01*
X008919Y005713D01*
X008967Y005829D01*
X009004Y005949D01*
X009028Y006073D01*
X009039Y006181D01*
X009038Y006167D02*
X010604Y006167D01*
X010446Y006009D02*
X009016Y006009D01*
X008974Y005850D02*
X010404Y005850D01*
X010404Y005692D02*
X008908Y005692D01*
X008814Y005533D02*
X010404Y005533D01*
X010466Y005375D02*
X008685Y005375D01*
X008501Y005216D02*
X010625Y005216D01*
X011464Y005216D02*
X011715Y005216D01*
X011804Y005058D02*
X008201Y005058D01*
X007841Y005058D02*
X007681Y005058D01*
X007681Y005216D02*
X007841Y005216D01*
X007841Y005375D02*
X007681Y005375D01*
X007681Y005533D02*
X007841Y005533D01*
X007841Y005692D02*
X007681Y005692D01*
X007681Y005850D02*
X007841Y005850D01*
X007841Y006009D02*
X007681Y006009D01*
X007681Y006167D02*
X007841Y006167D01*
X007841Y006326D02*
X010088Y006326D01*
X011300Y007594D02*
X012560Y007594D01*
X012560Y007752D02*
X011300Y007752D01*
X011300Y007911D02*
X012560Y007911D01*
X012560Y008069D02*
X011300Y008069D01*
X011300Y008228D02*
X012560Y008228D01*
X012560Y008386D02*
X011300Y008386D01*
X011300Y008545D02*
X012560Y008545D01*
X012560Y008703D02*
X011300Y008703D01*
X011300Y008862D02*
X012560Y008862D01*
X012560Y009020D02*
X011300Y009020D01*
X011300Y009179D02*
X012560Y009179D01*
X012560Y009337D02*
X011265Y009337D01*
X011138Y009496D02*
X012560Y009496D01*
X012560Y009654D02*
X010979Y009654D01*
X010821Y009813D02*
X012584Y009813D01*
X012698Y009971D02*
X010662Y009971D01*
X010550Y010130D02*
X012856Y010130D01*
X013015Y010288D02*
X010550Y010288D01*
X010919Y010447D02*
X013173Y010447D01*
X011650Y010780D02*
X011650Y011180D01*
X011650Y011180D01*
X011650Y010780D01*
X011650Y010922D02*
X011650Y010922D01*
X011650Y011081D02*
X011650Y011081D01*
X011879Y007435D02*
X012390Y007435D01*
X012232Y007277D02*
X012038Y007277D01*
X013550Y007435D02*
X014571Y007435D01*
X014413Y007277D02*
X014162Y007277D01*
X013791Y007277D02*
X013751Y007277D01*
X013751Y007118D02*
X013791Y007118D01*
X013791Y006960D02*
X013751Y006960D01*
X013751Y006800D02*
X013791Y006800D01*
X013791Y006220D01*
X013929Y006220D01*
X013771Y006061D01*
X013612Y006220D01*
X013751Y006220D01*
X013751Y006800D01*
X013751Y006643D02*
X013791Y006643D01*
X013791Y006484D02*
X013751Y006484D01*
X013751Y006326D02*
X013791Y006326D01*
X013876Y006167D02*
X013665Y006167D01*
X012096Y004741D02*
X007676Y004741D01*
X007517Y004899D02*
X011938Y004899D01*
X012255Y004582D02*
X007834Y004582D01*
X007014Y003790D02*
X006370Y003790D01*
X006370Y003817D02*
X006265Y004071D01*
X006156Y004180D01*
X006265Y004289D01*
X006338Y004466D01*
X007197Y003607D01*
X007357Y003447D01*
X007567Y003360D01*
X024293Y003360D01*
X024503Y003447D01*
X025057Y004001D01*
X025057Y003686D01*
X025162Y003294D01*
X025365Y002943D01*
X025477Y002831D01*
X004883Y002831D01*
X004995Y002943D01*
X005159Y003226D01*
X005289Y003095D01*
X005543Y002990D01*
X005817Y002990D01*
X006071Y003095D01*
X006265Y003289D01*
X006370Y003543D01*
X006370Y003817D01*
X006316Y003948D02*
X006856Y003948D01*
X006697Y004107D02*
X006229Y004107D01*
X006241Y004265D02*
X006539Y004265D01*
X006380Y004424D02*
X006321Y004424D01*
X006370Y003631D02*
X007173Y003631D01*
X007331Y003473D02*
X006341Y003473D01*
X006275Y003314D02*
X025156Y003314D01*
X025114Y003473D02*
X024529Y003473D01*
X024687Y003631D02*
X025072Y003631D01*
X025057Y003790D02*
X024846Y003790D01*
X025004Y003948D02*
X025057Y003948D01*
X025242Y003156D02*
X006131Y003156D01*
X005834Y002997D02*
X025333Y002997D01*
X025469Y002839D02*
X004891Y002839D01*
X005027Y002997D02*
X005526Y002997D01*
X005229Y003156D02*
X005118Y003156D01*
X015605Y004582D02*
X024026Y004582D01*
X024170Y004741D02*
X024184Y004741D01*
X023690Y004741D02*
X021502Y004741D01*
X021646Y004899D02*
X023353Y004899D01*
X023195Y005058D02*
X021712Y005058D01*
X021718Y005216D02*
X023083Y005216D01*
X023017Y005375D02*
X021682Y005375D01*
X021588Y005533D02*
X022970Y005533D01*
X022970Y005692D02*
X021575Y005692D01*
X021575Y005850D02*
X022970Y005850D01*
X023027Y006009D02*
X021575Y006009D01*
X021575Y006167D02*
X023093Y006167D01*
X023218Y006326D02*
X021547Y006326D01*
X021435Y006484D02*
X023376Y006484D01*
X024484Y006484D02*
X024559Y006484D01*
X024667Y006643D02*
X021276Y006643D01*
X021118Y006801D02*
X024652Y006801D01*
X020897Y007594D02*
X020825Y007594D01*
X020714Y004899D02*
X020507Y004899D01*
X020170Y004741D02*
X020858Y004741D01*
X019690Y004741D02*
X015764Y004741D01*
X004451Y014850D02*
X004206Y014850D01*
X004122Y014815D01*
X003920Y014815D01*
X003920Y014260D01*
X003760Y014260D01*
X003760Y014815D01*
X003458Y014815D01*
X003404Y014804D01*
X003353Y014783D01*
X003325Y014764D01*
X003325Y015030D01*
X003660Y015030D01*
X003660Y015660D01*
X003700Y015660D01*
X003700Y015030D01*
X004078Y015030D01*
X004132Y015041D01*
X004183Y015062D01*
X004228Y015093D01*
X004260Y015124D01*
X004287Y015098D01*
X004345Y014956D01*
X004451Y014850D01*
X004417Y014885D02*
X003325Y014885D01*
X003660Y015043D02*
X003700Y015043D01*
X003700Y015202D02*
X003660Y015202D01*
X003660Y015360D02*
X003700Y015360D01*
X003700Y015519D02*
X003660Y015519D01*
X004137Y015043D02*
X004309Y015043D01*
X003920Y014726D02*
X003760Y014726D01*
X003760Y014568D02*
X003920Y014568D01*
X003920Y014409D02*
X003760Y014409D01*
X003760Y014260D02*
X003325Y014260D01*
X003325Y014100D01*
X003760Y014100D01*
X003760Y014260D01*
X003760Y014251D02*
X003325Y014251D01*
X005836Y016311D02*
X006086Y016311D01*
X006127Y016153D02*
X006177Y016153D01*
X007183Y016153D02*
X007711Y016153D01*
X007297Y015994D02*
X010664Y015994D01*
X010730Y016153D02*
X010096Y016153D01*
X010154Y016311D02*
X010876Y016311D01*
X010956Y017262D02*
X010039Y017262D01*
X009600Y017262D02*
X009440Y017262D01*
X009440Y017104D02*
X009600Y017104D01*
X009600Y016945D02*
X009440Y016945D01*
X009440Y016787D02*
X009600Y016787D01*
X009200Y015677D02*
X009160Y015677D01*
X009160Y015519D02*
X009200Y015519D01*
X009200Y015360D02*
X009160Y015360D01*
X009160Y015202D02*
X009200Y015202D01*
X007668Y017104D02*
X007232Y017104D01*
X007074Y017262D02*
X007760Y017262D01*
X010435Y018055D02*
X004651Y018055D01*
X003709Y018055D02*
X003325Y018055D01*
X003325Y018213D02*
X003429Y018213D01*
X003325Y017896D02*
X010488Y017896D01*
X013759Y021700D02*
X014137Y021700D01*
X014116Y021720D02*
X014116Y021720D01*
X013978Y021859D02*
X013917Y021859D01*
X019100Y019798D02*
X019260Y019798D01*
X019260Y019640D02*
X019100Y019640D01*
X019100Y019481D02*
X019260Y019481D01*
D30*
X019180Y019180D02*
X018680Y019180D01*
X017180Y017680D01*
X016680Y017680D01*
X016680Y017180D01*
X016430Y016930D01*
X016430Y013180D01*
X018180Y013180D01*
X019180Y014180D01*
X019180Y015090D01*
X019180Y014180D02*
X020830Y014180D01*
X020830Y014274D01*
X020830Y013330D01*
X021530Y013330D01*
X022830Y012930D02*
X023680Y012930D01*
X024930Y012930D02*
X024930Y013020D01*
X024930Y013930D02*
X027180Y013930D01*
X027180Y015180D01*
X024930Y013930D02*
X024930Y016840D01*
X024930Y017930D02*
X024930Y018020D01*
X023680Y017930D02*
X022830Y017930D01*
X021530Y018330D02*
X020830Y018330D01*
X020830Y019274D01*
X020680Y019180D01*
X019180Y019180D01*
X019180Y020090D01*
X019090Y020180D01*
X016430Y020180D01*
X015430Y021180D01*
X013430Y021180D01*
X013430Y020680D01*
X012770Y020680D01*
X012680Y020680D01*
X012680Y020590D02*
X012770Y020680D01*
X012680Y020590D02*
X012680Y020430D01*
X012180Y019680D02*
X013210Y019680D01*
X013280Y019680D01*
X014030Y020430D01*
X014630Y020430D01*
X014930Y020430D01*
X015430Y019930D01*
X015430Y017180D01*
X014480Y017180D01*
X014680Y016840D01*
X014680Y014180D01*
X014680Y013680D01*
X013710Y013680D01*
X013710Y013180D02*
X012680Y013180D01*
X012680Y015430D01*
X011430Y016680D01*
X011430Y017180D01*
X011590Y017180D01*
X011680Y017180D01*
X011430Y017180D02*
X011430Y018180D01*
X011150Y018180D01*
X011930Y018180D02*
X011930Y019430D01*
X012180Y019680D01*
X011180Y019680D02*
X011180Y020180D01*
X011230Y020230D01*
X010780Y020680D01*
X008780Y020680D01*
X011230Y020230D02*
X011680Y020680D01*
X011590Y020680D01*
X011680Y020770D01*
X011680Y021180D01*
X012180Y021680D01*
X013180Y021680D01*
X013680Y022180D01*
X013680Y022680D01*
X014680Y023680D02*
X014680Y024280D01*
X019680Y024280D01*
X019680Y023680D01*
X019680Y024280D02*
X021680Y024280D01*
X025280Y024280D01*
X025280Y023280D01*
X024680Y022680D01*
X024680Y022080D01*
X017680Y022080D01*
X017680Y022680D01*
X018020Y021180D02*
X019180Y021180D01*
X020680Y021180D01*
X020680Y021086D01*
X020830Y021086D01*
X019180Y021180D02*
X019180Y021270D01*
X020830Y019274D02*
X021180Y019180D01*
X023530Y020180D02*
X023680Y020180D01*
X021680Y023680D02*
X021680Y024280D01*
X014680Y024280D02*
X011680Y024280D01*
X007680Y024280D01*
X007680Y023680D01*
X005680Y023680D02*
X005080Y023680D01*
X005080Y021530D01*
X004955Y021530D01*
X006680Y016680D02*
X006680Y015680D01*
X006680Y015180D01*
X007180Y014680D01*
X007180Y014270D01*
X005930Y014680D02*
X005930Y013530D01*
X003680Y013530D01*
X003680Y014180D01*
X003840Y014180D01*
X003680Y014180D02*
X003680Y015680D01*
X004680Y015680D02*
X004680Y015180D01*
X004930Y014930D01*
X004930Y014180D01*
X005020Y014180D01*
X004980Y014180D01*
X005680Y014930D02*
X005680Y015680D01*
X005680Y014930D02*
X005930Y014680D01*
X005930Y013530D02*
X005930Y012680D01*
X005020Y012680D01*
X004930Y012680D01*
X004930Y011430D01*
X005020Y011430D01*
X005680Y011430D01*
X005680Y011680D01*
X006340Y011680D01*
X007180Y011680D02*
X007520Y011680D01*
X007680Y011680D01*
X007680Y009680D01*
X006430Y009680D01*
X006380Y009980D01*
X006336Y010030D01*
X005480Y010080D02*
X005430Y010030D01*
X005430Y010780D01*
X004930Y010780D01*
X004930Y011430D01*
X004580Y010680D02*
X004580Y010180D01*
X004524Y010030D01*
X004580Y009980D01*
X004580Y008680D01*
X007680Y008680D01*
X005480Y007280D02*
X005430Y007330D01*
X005480Y007280D02*
X006480Y006280D01*
X007680Y006280D01*
X007761Y006261D01*
X011180Y010011D02*
X011680Y010511D01*
X011680Y011180D01*
X012680Y011180D01*
X012680Y013180D01*
X013710Y013180D02*
X015680Y013180D01*
X015680Y013090D01*
X015680Y013180D02*
X016430Y013180D01*
X015680Y014180D02*
X014680Y014180D01*
X015680Y014180D02*
X015680Y014270D01*
X017680Y016180D02*
X019180Y016180D01*
X020680Y016180D01*
X020680Y016086D01*
X020830Y016086D01*
X019180Y016180D02*
X019180Y016270D01*
X017680Y016270D02*
X017680Y016180D01*
X014680Y016840D02*
X014680Y016880D01*
X014380Y017180D01*
X013180Y017590D02*
X012770Y017180D01*
X012680Y017180D01*
X012680Y017430D01*
X011930Y018180D01*
X013180Y018180D02*
X013180Y017590D01*
X013180Y018180D02*
X013210Y018210D01*
X013210Y018180D01*
X011430Y016680D02*
X009680Y016680D01*
X009520Y016680D01*
X009680Y016680D02*
X009680Y015180D01*
X009180Y015180D01*
X009680Y015180D02*
X010180Y015180D01*
X008340Y016680D02*
X006680Y016680D01*
X007180Y013090D02*
X007180Y011680D01*
X004580Y010680D02*
X003780Y010680D01*
X003780Y011380D01*
X003840Y011430D01*
X003780Y011430D01*
X003780Y011380D01*
X003780Y011430D02*
X003780Y012680D01*
X003840Y012680D01*
X011650Y011180D02*
X011680Y011180D01*
X016180Y009930D02*
X016680Y009930D01*
X016930Y009770D01*
X016680Y009680D01*
X016730Y009730D01*
X016680Y009930D02*
X016680Y010680D01*
X016400Y010680D01*
X018180Y010680D02*
X018180Y009770D01*
X018180Y010680D02*
X018460Y010680D01*
X018460Y011180D02*
X019430Y011180D01*
X019430Y009930D01*
X019180Y009680D01*
X019180Y008680D01*
X018180Y008680D01*
X018180Y008590D01*
X018180Y008680D02*
X017580Y008680D01*
X017580Y006180D01*
X017599Y006261D01*
X017580Y008680D02*
X016680Y008680D01*
X016930Y008590D01*
X019430Y011180D02*
X020430Y011180D01*
X021680Y009930D01*
X021680Y009180D01*
X020680Y009180D02*
X020430Y008930D01*
X020430Y006930D01*
X021180Y006180D01*
X021180Y005180D01*
X025180Y006180D02*
X026180Y006180D01*
X026180Y011680D02*
X024930Y011680D01*
X024930Y011840D01*
X023680Y015180D02*
X023530Y015180D01*
X014680Y020380D02*
X014680Y020520D01*
X014680Y020480D01*
X014630Y020430D01*
X014680Y020380D01*
X011180Y019680D02*
X011150Y019680D01*
X011680Y023680D02*
X011680Y024280D01*
X002855Y005680D02*
X002805Y005680D01*
D31*
X010680Y010930D03*
X011180Y010011D03*
X012680Y012680D03*
X012430Y015930D03*
X010430Y016680D03*
X015430Y015930D03*
X019680Y013180D03*
X023430Y016680D03*
X026430Y018930D03*
X025180Y021180D03*
X025180Y009680D03*
X021930Y006180D03*
X021180Y005180D03*
X021680Y003180D03*
X019680Y007680D03*
D32*
X008930Y007930D03*
X003680Y008430D03*
X003680Y007180D03*
X003680Y009680D03*
X005930Y013180D03*
D33*
X008430Y012930D02*
X008430Y013930D01*
X008680Y014180D01*
X009180Y014180D01*
X010180Y014180D02*
X010680Y013680D01*
X011650Y013680D01*
X011650Y013180D02*
X011180Y013180D01*
X010430Y012430D01*
X008930Y012430D01*
X008430Y012930D01*
X009930Y011430D02*
X011180Y012680D01*
X011650Y012680D01*
X011650Y012180D02*
X011180Y012180D01*
X010180Y011180D01*
X010180Y009930D01*
X010930Y009180D01*
X010930Y007430D01*
X011044Y007316D01*
X011044Y005702D01*
X012135Y005702D02*
X012135Y005225D01*
X012680Y004680D01*
X015180Y004680D01*
X015680Y005180D01*
X015680Y007930D01*
X015180Y008430D01*
X015180Y012180D01*
X014680Y012680D01*
X013710Y012680D01*
X013710Y012180D02*
X014430Y012180D01*
X014930Y011680D01*
X014930Y008180D01*
X015430Y007680D01*
X015430Y005430D01*
X014930Y004930D01*
X012930Y004930D01*
X012680Y005180D01*
X012680Y005991D01*
X011851Y006820D01*
X011589Y006820D01*
X012680Y006820D02*
X012930Y007070D01*
X012930Y009680D01*
X013930Y010680D01*
X013930Y011180D01*
X013710Y011180D01*
X013680Y011180D01*
X013710Y011680D02*
X014430Y011680D01*
X014430Y010680D01*
X013180Y009430D01*
X013180Y007261D01*
X013225Y007215D01*
X013225Y005702D01*
X010680Y007430D02*
X010499Y007249D01*
X010499Y006820D01*
X010680Y007430D02*
X010680Y008930D01*
X009930Y009680D01*
X009930Y011430D01*
X010680Y011180D02*
X010680Y010930D01*
X010680Y011180D02*
X011180Y011680D01*
X011650Y011680D01*
X011650Y014180D02*
X011180Y014180D01*
X011180Y015880D01*
X013680Y016680D02*
X013680Y014180D01*
X013710Y014180D01*
X013680Y016680D02*
X013930Y016930D01*
X013930Y017680D01*
X014180Y017930D01*
X014430Y017930D01*
X014580Y018180D01*
X014680Y018020D01*
X014680Y018080D01*
X014580Y018180D01*
X014080Y018680D01*
X013210Y018680D01*
X013210Y019180D02*
X012880Y019180D01*
X012380Y018680D01*
X013210Y019180D02*
X014580Y019180D01*
X014680Y019280D01*
X014680Y019340D01*
X016430Y021180D02*
X015680Y021930D01*
X014430Y021930D01*
X014180Y022180D01*
X014180Y023180D01*
X012180Y023180D01*
X011680Y022680D01*
X007680Y022680D02*
X007680Y021180D01*
X009680Y019180D01*
X011150Y019180D01*
X011150Y018680D02*
X009680Y018680D01*
X006680Y021680D01*
X006680Y022680D01*
X016430Y021180D02*
X016840Y021180D01*
X016980Y015380D02*
X017480Y015380D01*
X017680Y015180D01*
X017680Y015090D01*
X017430Y012680D02*
X020180Y012680D01*
X022430Y010430D01*
X023430Y010430D01*
X023930Y009930D01*
X023930Y007930D01*
X023430Y007430D01*
X022930Y007430D01*
X022180Y008180D01*
X023180Y008180D02*
X023680Y008680D01*
X023680Y009680D01*
X023180Y010180D01*
X022180Y010180D01*
X020180Y012180D01*
X018460Y012180D01*
X018460Y011680D02*
X017430Y011680D01*
X017430Y012680D01*
D34*
X017430Y012680D03*
X014680Y013680D03*
X016980Y015380D03*
X013680Y016680D03*
X012380Y018680D03*
X011180Y015880D03*
X008780Y020680D03*
X016180Y009930D03*
D35*
X020830Y015180D02*
X023530Y015180D01*
X023680Y015180D02*
X023680Y012930D01*
X024930Y012930D01*
X027180Y012930D01*
X027180Y011680D01*
X026180Y011680D02*
X026180Y006180D01*
X026180Y005930D01*
X024180Y003930D01*
X007680Y003930D01*
X005930Y005680D01*
X005680Y005680D01*
X002855Y005680D01*
X004680Y015680D02*
X004680Y016680D01*
X005680Y023680D02*
X006680Y023680D01*
X020830Y020180D02*
X023530Y020180D01*
X023680Y020180D02*
X023680Y017930D01*
X024930Y017930D01*
X026180Y017930D01*
X026180Y015180D01*
D36*
X004955Y021530D02*
X002805Y021530D01*
X002805Y016680D01*
X002805Y005680D01*
X002805Y016680D02*
X004680Y016680D01*
M02*
