%
M48
M72
T01C0.0200
T02C0.0236
T03C0.0276
T04C0.0394
T05C0.0400
T06C0.1083
T07C0.1280
T08C0.1300
%
T01
X11180Y15880
X12380Y18680
X17430Y12680
X13680Y16680
X8780Y20680
X16980Y15380
X16180Y9930
X14680Y13680
T02
X11180Y10011
X12680Y12680
X19680Y13180
X21930Y6180
X25180Y9680
X26430Y18930
X25180Y21180
X12430Y15930
X10430Y16680
X19680Y7680
X23430Y16680
X15430Y15930
X21680Y3180
X10680Y10930
X21180Y5180
T03
X3680Y9680
X3680Y7180
X8930Y7930
X5930Y13180
X3680Y8430
T04
X5680Y22680
X5680Y23680
X6680Y22680
X6680Y23680
X7680Y22680
X7680Y23680
X8680Y22680
X8680Y23680
X9680Y22680
X9680Y23680
X10680Y22680
X10680Y23680
X11680Y22680
X11680Y23680
X12680Y22680
X12680Y23680
X13680Y22680
X13680Y23680
X14680Y22680
X14680Y23680
X15680Y22680
X15680Y23680
X16680Y22680
X16680Y23680
X17680Y22680
X17680Y23680
X18680Y22680
X18680Y23680
X19680Y22680
X19680Y23680
X20680Y22680
X20680Y23680
X21680Y22680
X21680Y23680
X22680Y22680
X22680Y23680
X23680Y22680
X23680Y23680
X24680Y22680
X24680Y23680
X26180Y11680
X27180Y11680
X27180Y15180
X26180Y15180
X4180Y18680
X4180Y19680
X4180Y20680
T05
X10180Y13180
X9180Y13180
X10180Y14180
X9180Y14180
X10180Y15180
X9180Y15180
X20680Y9180
X21180Y8180
X21680Y9180
X22180Y8180
X22680Y9180
X23180Y8180
X14861Y6820
X13771Y6820
X12680Y6820
X11589Y6820
X10499Y6820
X14316Y5702
X13225Y5702
X12135Y5702
X11044Y5702
X4680Y16680
X6680Y16680
X3680Y15680
X4680Y15680
X5680Y15680
X6680Y15680
X7680Y9680
X7680Y8680
X16680Y18680
X16680Y17680
X5680Y5680
X5680Y4680
X5680Y3680
X25180Y7180
X25180Y6180
X25180Y8180
T06
X3763Y3889
X3763Y23180
X26597Y23180
X26597Y3889
T07
X19930Y5680
X23930Y5680
T08
X17599Y6261
X7761Y6261
M30
