G75*
G70*
%OFA0B0*%
%FSLAX24Y24*%
%IPPOS*%
%LPD*%
%AMOC8*
5,1,8,0,0,1.08239X$1,22.5*
%
%ADD10C,0.0050*%
%ADD11C,0.0040*%
%ADD12C,0.0060*%
%ADD13C,0.0000*%
%ADD14C,0.0200*%
D10*
X016337Y011030D02*
X016337Y011105D01*
X016413Y011180D01*
X016638Y011180D01*
X016638Y011030D01*
X016563Y010955D01*
X016413Y010955D01*
X016337Y011030D01*
X016488Y011330D02*
X016638Y011180D01*
X016488Y011330D02*
X016337Y011405D01*
X016564Y011705D02*
X016639Y011780D01*
X016639Y012080D01*
X016714Y012005D02*
X016564Y012005D01*
X016875Y011930D02*
X016875Y011705D01*
X017100Y011705D01*
X017175Y011780D01*
X017100Y011855D01*
X016875Y011855D01*
X016875Y011930D02*
X016950Y012005D01*
X017100Y012005D01*
X017335Y011930D02*
X017335Y011705D01*
X017335Y011930D02*
X017410Y012005D01*
X017560Y012005D01*
X017635Y011930D01*
X017635Y012155D02*
X017635Y011705D01*
X017483Y011405D02*
X017333Y011405D01*
X017258Y011330D01*
X017559Y011030D01*
X017483Y010955D01*
X017333Y010955D01*
X017258Y011030D01*
X017258Y011330D01*
X017098Y011255D02*
X016948Y011405D01*
X016948Y010955D01*
X017098Y010955D02*
X016798Y010955D01*
X017559Y011030D02*
X017559Y011330D01*
X017483Y011405D01*
X017719Y011330D02*
X017794Y011405D01*
X017944Y011405D01*
X018019Y011330D01*
X017719Y011330D02*
X017719Y011255D01*
X018019Y010955D01*
X017719Y010955D01*
X018639Y011105D02*
X018940Y011105D01*
X018940Y011030D02*
X018940Y011180D01*
X018865Y011255D01*
X018715Y011255D01*
X018639Y011180D01*
X018639Y011105D01*
X018715Y010955D02*
X018865Y010955D01*
X018940Y011030D01*
X019097Y010955D02*
X019247Y010955D01*
X019172Y010955D02*
X019172Y011405D01*
X019247Y011405D01*
X019407Y011180D02*
X019407Y011030D01*
X019482Y010955D01*
X019707Y010955D01*
X019707Y010805D02*
X019707Y011255D01*
X019482Y011255D01*
X019407Y011180D01*
X019865Y011255D02*
X019941Y011255D01*
X020091Y011105D01*
X020091Y010955D02*
X020091Y011255D01*
X020251Y011180D02*
X020251Y010955D01*
X020476Y010955D01*
X020551Y011030D01*
X020476Y011105D01*
X020251Y011105D01*
X020251Y011180D02*
X020326Y011255D01*
X020476Y011255D01*
X020711Y011405D02*
X020711Y010955D01*
X021011Y010955D02*
X021011Y011405D01*
X020861Y011255D01*
X020711Y011405D01*
X020705Y011705D02*
X020705Y012155D01*
X020479Y012155D01*
X020404Y012080D01*
X020404Y011930D01*
X020479Y011855D01*
X020705Y011855D01*
X020244Y011705D02*
X020094Y011705D01*
X020169Y011705D02*
X020169Y012005D01*
X020244Y012005D01*
X020169Y012155D02*
X020169Y012230D01*
X019477Y012005D02*
X019477Y011705D01*
X019477Y011930D02*
X019177Y011930D01*
X019177Y012005D02*
X019177Y011705D01*
X019016Y011705D02*
X018791Y011705D01*
X018716Y011780D01*
X018716Y012080D01*
X018791Y012155D01*
X019016Y012155D01*
X019016Y011705D01*
X019177Y012005D02*
X019327Y012155D01*
X019477Y012005D01*
X018556Y012080D02*
X018556Y011780D01*
X018481Y011705D01*
X018331Y011705D01*
X018256Y011780D01*
X018256Y012080D02*
X018331Y012155D01*
X018481Y012155D01*
X018556Y012080D01*
X020021Y010580D02*
X020321Y010280D01*
X020246Y010205D01*
X020096Y010205D01*
X020021Y010280D01*
X020021Y010580D01*
X020096Y010655D01*
X020246Y010655D01*
X020321Y010580D01*
X020321Y010280D01*
X020476Y010280D02*
X020476Y010205D01*
X020551Y010205D01*
X020551Y010280D01*
X020476Y010280D01*
X020711Y010280D02*
X020711Y010355D01*
X020786Y010430D01*
X020861Y010430D01*
X020786Y010430D02*
X020711Y010505D01*
X020711Y010580D01*
X020786Y010655D01*
X020936Y010655D01*
X021011Y010580D01*
X021011Y010280D02*
X020936Y010205D01*
X020786Y010205D01*
X020711Y010280D01*
X021632Y010205D02*
X021632Y010505D01*
X021782Y010655D01*
X021932Y010505D01*
X021932Y010205D01*
X022092Y010280D02*
X022167Y010205D01*
X022318Y010205D01*
X022393Y010280D01*
X022318Y010430D02*
X022167Y010430D01*
X022092Y010355D01*
X022092Y010280D01*
X021932Y010430D02*
X021632Y010430D01*
X022092Y010580D02*
X022167Y010655D01*
X022318Y010655D01*
X022393Y010580D01*
X022393Y010505D01*
X022318Y010430D01*
X022553Y010430D02*
X022853Y010430D01*
X023013Y010580D02*
X023013Y010655D01*
X023013Y010580D02*
X023163Y010430D01*
X023163Y010205D01*
X023163Y010430D02*
X023313Y010580D01*
X023313Y010655D01*
X023474Y010580D02*
X023474Y010505D01*
X023549Y010430D01*
X023774Y010430D01*
X023934Y010430D02*
X024234Y010430D01*
X024394Y010280D02*
X024469Y010205D01*
X024620Y010205D01*
X024695Y010280D01*
X024695Y010580D01*
X024620Y010655D01*
X024469Y010655D01*
X024394Y010580D01*
X024388Y010955D02*
X024238Y011105D01*
X024238Y011255D01*
X024388Y011405D01*
X024548Y011330D02*
X024623Y011405D01*
X024773Y011405D01*
X024848Y011330D01*
X024848Y011030D01*
X024773Y010955D01*
X024623Y010955D01*
X024548Y011030D01*
X024930Y010655D02*
X024855Y010580D01*
X024930Y010655D02*
X025080Y010655D01*
X025155Y010580D01*
X025155Y010280D01*
X025080Y010205D01*
X024930Y010205D01*
X024855Y010280D01*
X025005Y010955D02*
X025155Y011105D01*
X025155Y011255D01*
X025005Y011405D01*
X025155Y011705D02*
X025155Y012155D01*
X024930Y012155D01*
X024855Y012080D01*
X024855Y011930D01*
X024930Y011855D01*
X025155Y011855D01*
X025005Y011855D02*
X024855Y011705D01*
X024695Y011780D02*
X024620Y011855D01*
X024394Y011855D01*
X024394Y011930D02*
X024394Y011705D01*
X024620Y011705D01*
X024695Y011780D01*
X024620Y012005D02*
X024469Y012005D01*
X024394Y011930D01*
X024234Y011930D02*
X024159Y011855D01*
X024009Y011855D01*
X023934Y011780D01*
X024009Y011705D01*
X024234Y011705D01*
X024234Y011930D02*
X024159Y012005D01*
X023934Y012005D01*
X023774Y012005D02*
X023549Y012005D01*
X023474Y011930D01*
X023474Y011780D01*
X023549Y011705D01*
X023774Y011705D01*
X023774Y011555D02*
X023774Y012005D01*
X023313Y012005D02*
X023088Y012005D01*
X023013Y011930D01*
X023013Y011780D01*
X023088Y011705D01*
X023313Y011705D01*
X023313Y012155D01*
X022853Y011930D02*
X022778Y012005D01*
X022628Y012005D01*
X022553Y011930D01*
X022553Y011855D01*
X022853Y011855D01*
X022853Y011780D02*
X022853Y011930D01*
X022853Y011780D02*
X022778Y011705D01*
X022628Y011705D01*
X022393Y011705D02*
X022393Y012005D01*
X022393Y011855D02*
X022243Y012005D01*
X022167Y012005D01*
X022009Y012005D02*
X022009Y011705D01*
X022009Y011855D02*
X021859Y012005D01*
X021784Y012005D01*
X021625Y012005D02*
X021625Y011780D01*
X021550Y011705D01*
X021325Y011705D01*
X021325Y011630D02*
X021400Y011555D01*
X021475Y011555D01*
X021325Y011630D02*
X021325Y012005D01*
X021707Y011255D02*
X021632Y011180D01*
X021632Y011105D01*
X021932Y011105D01*
X021932Y011030D02*
X021932Y011180D01*
X021857Y011255D01*
X021707Y011255D01*
X021707Y010955D02*
X021857Y010955D01*
X021932Y011030D01*
X022092Y011255D02*
X022243Y010955D01*
X022393Y011255D01*
X022553Y011180D02*
X022553Y011105D01*
X022853Y011105D01*
X022853Y011030D02*
X022853Y011180D01*
X022778Y011255D01*
X022628Y011255D01*
X022553Y011180D01*
X022628Y010955D02*
X022778Y010955D01*
X022853Y011030D01*
X023010Y010955D02*
X023085Y011030D01*
X023085Y011330D01*
X023160Y011255D02*
X023010Y011255D01*
X023320Y011330D02*
X023395Y011405D01*
X023545Y011405D01*
X023620Y011330D01*
X023620Y011255D01*
X023545Y011180D01*
X023395Y011180D01*
X023320Y011105D01*
X023320Y011030D01*
X023395Y010955D01*
X023545Y010955D01*
X023620Y011030D01*
X023549Y010655D02*
X023474Y010580D01*
X023549Y010655D02*
X023774Y010655D01*
X023774Y010205D01*
X023549Y010205D01*
X023474Y010280D01*
X023474Y010355D01*
X023549Y010430D01*
X023655Y021455D02*
X023655Y021905D01*
X023355Y021905D01*
X023195Y021905D02*
X023044Y021905D01*
X023120Y021905D02*
X023120Y021455D01*
X023195Y021455D02*
X023044Y021455D01*
X022738Y021455D02*
X022738Y021905D01*
X022888Y021905D02*
X022587Y021905D01*
X021967Y021680D02*
X021667Y021680D01*
X021507Y021530D02*
X021206Y021830D01*
X021206Y021530D01*
X021281Y021455D01*
X021431Y021455D01*
X021507Y021530D01*
X021507Y021830D01*
X021431Y021905D01*
X021281Y021905D01*
X021206Y021830D01*
X021742Y021905D02*
X021742Y021455D01*
X021967Y021680D02*
X021742Y021905D01*
X020586Y021905D02*
X020586Y021455D01*
X020586Y021605D02*
X020361Y021605D01*
X020285Y021680D01*
X020285Y021830D01*
X020361Y021905D01*
X020586Y021905D01*
X020125Y021905D02*
X019975Y021905D01*
X020050Y021905D02*
X020050Y021455D01*
X020125Y021455D02*
X019975Y021455D01*
X019818Y021455D02*
X019818Y021905D01*
X019518Y021455D01*
X019518Y021905D01*
X018898Y021830D02*
X018898Y021530D01*
X018823Y021455D01*
X018672Y021455D01*
X018597Y021530D01*
X018437Y021530D02*
X018437Y021830D01*
X018362Y021905D01*
X018212Y021905D01*
X018137Y021830D01*
X018137Y021530D01*
X018212Y021455D01*
X018362Y021455D01*
X018437Y021530D01*
X018597Y021830D02*
X018672Y021905D01*
X018823Y021905D01*
X018898Y021830D01*
X017977Y021905D02*
X017977Y021455D01*
X017677Y021455D02*
X017677Y021905D01*
X017516Y021905D02*
X017216Y021455D01*
X017216Y021905D01*
X017056Y021905D02*
X017056Y021455D01*
X016756Y021455D01*
X016596Y021530D02*
X016596Y021830D01*
X016521Y021905D01*
X016370Y021905D01*
X016295Y021830D01*
X016135Y021905D02*
X015835Y021905D01*
X015985Y021905D02*
X015985Y021455D01*
X015675Y021530D02*
X015675Y021830D01*
X015600Y021905D01*
X015450Y021905D01*
X015375Y021830D01*
X015375Y021530D01*
X015450Y021455D01*
X015600Y021455D01*
X015675Y021530D01*
X015214Y021455D02*
X015214Y021905D01*
X014989Y021905D01*
X014914Y021830D01*
X014914Y021680D01*
X014989Y021605D01*
X015214Y021605D01*
X015064Y021605D02*
X014914Y021455D01*
X014294Y021530D02*
X014219Y021455D01*
X014068Y021455D01*
X013993Y021530D01*
X013993Y021830D01*
X014068Y021905D01*
X014219Y021905D01*
X014294Y021830D01*
X014294Y021530D01*
X013833Y021455D02*
X013833Y021905D01*
X013533Y021455D01*
X013533Y021905D01*
X012913Y021905D02*
X012612Y021905D01*
X012762Y021905D02*
X012762Y021455D01*
X012452Y021455D02*
X012452Y021905D01*
X012452Y021680D02*
X012152Y021680D01*
X012152Y021905D02*
X012152Y021455D01*
X011992Y021455D02*
X011842Y021455D01*
X011917Y021455D02*
X011917Y021905D01*
X011992Y021905D02*
X011842Y021905D01*
X011685Y021830D02*
X011685Y021755D01*
X011610Y021680D01*
X011460Y021680D01*
X011385Y021605D01*
X011385Y021530D01*
X011460Y021455D01*
X011610Y021455D01*
X011685Y021530D01*
X011685Y021830D02*
X011610Y021905D01*
X011460Y021905D01*
X011385Y021830D01*
X010764Y021830D02*
X010764Y021755D01*
X010689Y021680D01*
X010539Y021680D01*
X010464Y021605D01*
X010464Y021530D01*
X010539Y021455D01*
X010689Y021455D01*
X010764Y021530D01*
X010764Y021830D02*
X010689Y021905D01*
X010539Y021905D01*
X010464Y021830D01*
X010304Y021905D02*
X010153Y021905D01*
X010229Y021905D02*
X010229Y021455D01*
X010304Y021455D02*
X010153Y021455D01*
X009997Y021455D02*
X009771Y021455D01*
X009696Y021530D01*
X009696Y021830D01*
X009771Y021905D01*
X009997Y021905D01*
X009997Y021455D01*
X009536Y021455D02*
X009236Y021455D01*
X009386Y021680D02*
X009536Y021680D01*
X009536Y021905D02*
X009536Y021455D01*
X009536Y021905D02*
X009236Y021905D01*
X005129Y022198D02*
X005129Y024166D01*
X025200Y024166D01*
X025200Y022198D01*
X005129Y022198D01*
X016295Y021530D02*
X016370Y021455D01*
X016521Y021455D01*
X016596Y021530D01*
X016906Y021680D02*
X017056Y021680D01*
X017056Y021905D02*
X016756Y021905D01*
X017516Y021905D02*
X017516Y021455D01*
X017677Y021455D02*
X017977Y021905D01*
X023505Y021680D02*
X023655Y021680D01*
D11*
X021750Y019532D02*
X021810Y019472D01*
X021810Y019352D01*
X021750Y019292D01*
X021750Y019163D02*
X021690Y019163D01*
X021630Y019103D01*
X021570Y019163D01*
X021510Y019163D01*
X021450Y019103D01*
X021450Y018983D01*
X021510Y018923D01*
X021510Y018795D02*
X021450Y018735D01*
X021450Y018615D01*
X021510Y018555D01*
X021750Y018555D01*
X021810Y018615D01*
X021810Y018735D01*
X021750Y018795D01*
X021750Y018923D02*
X021810Y018983D01*
X021810Y019103D01*
X021750Y019163D01*
X021630Y019103D02*
X021630Y019043D01*
X021450Y019292D02*
X021690Y019532D01*
X021750Y019532D01*
X021450Y019532D02*
X021450Y019292D01*
X021630Y018427D02*
X021630Y018187D01*
X021810Y018367D01*
X021450Y018367D01*
X021450Y018059D02*
X021450Y017818D01*
X021690Y018059D01*
X021750Y018059D01*
X021810Y017998D01*
X021810Y017878D01*
X021750Y017818D01*
X021750Y017690D02*
X021810Y017630D01*
X021810Y017510D01*
X021750Y017450D01*
X021510Y017450D01*
X021450Y017510D01*
X021450Y017630D01*
X021510Y017690D01*
X021950Y017630D02*
X022010Y017690D01*
X022310Y017690D01*
X022310Y017818D02*
X022310Y018059D01*
X022250Y018059D01*
X022010Y017818D01*
X021950Y017818D01*
X021950Y017630D02*
X021950Y017510D01*
X022010Y017450D01*
X022310Y017450D01*
X022230Y013560D02*
X022170Y013500D01*
X022170Y013380D01*
X022230Y013320D01*
X022410Y013320D01*
X022410Y013200D02*
X022410Y013560D01*
X022230Y013560D01*
X022042Y013500D02*
X022042Y013440D01*
X021982Y013380D01*
X021801Y013380D01*
X021801Y013260D02*
X021801Y013500D01*
X021862Y013560D01*
X021982Y013560D01*
X022042Y013500D01*
X022042Y013260D02*
X021982Y013200D01*
X021862Y013200D01*
X021801Y013260D01*
X021675Y013060D02*
X021555Y013060D01*
X021495Y013000D01*
X021495Y012760D01*
X021555Y012700D01*
X021675Y012700D01*
X021735Y012760D01*
X021675Y012880D02*
X021495Y012880D01*
X021675Y012880D02*
X021735Y012940D01*
X021735Y013000D01*
X021675Y013060D01*
X021862Y012940D02*
X022042Y012820D01*
X021862Y012700D01*
X022042Y012700D02*
X022042Y013060D01*
X022170Y013000D02*
X022170Y012940D01*
X022230Y012880D01*
X022170Y012820D01*
X022170Y012760D01*
X022230Y012700D01*
X022350Y012700D01*
X022410Y012760D01*
X022290Y012880D02*
X022230Y012880D01*
X022170Y013000D02*
X022230Y013060D01*
X022350Y013060D01*
X022410Y013000D01*
X022170Y013200D02*
X022290Y013320D01*
X020910Y013320D02*
X020730Y013320D01*
X020670Y013380D01*
X020670Y013500D01*
X020730Y013560D01*
X020910Y013560D01*
X020910Y013200D01*
X020850Y013060D02*
X020730Y013060D01*
X020670Y013000D01*
X020670Y012940D01*
X020730Y012880D01*
X020670Y012820D01*
X020670Y012760D01*
X020730Y012700D01*
X020850Y012700D01*
X020910Y012760D01*
X020790Y012880D02*
X020730Y012880D01*
X020542Y012820D02*
X020362Y012940D01*
X020235Y012940D02*
X020175Y012880D01*
X019995Y012880D01*
X019995Y012760D02*
X019995Y013000D01*
X020055Y013060D01*
X020175Y013060D01*
X020235Y013000D01*
X020235Y012940D01*
X020235Y012760D02*
X020175Y012700D01*
X020055Y012700D01*
X019995Y012760D01*
X020362Y012700D02*
X020542Y012820D01*
X020542Y012700D02*
X020542Y013060D01*
X020482Y013200D02*
X020542Y013260D01*
X020542Y013320D01*
X020482Y013380D01*
X020362Y013380D01*
X020301Y013320D01*
X020301Y013260D01*
X020362Y013200D01*
X020482Y013200D01*
X020482Y013380D02*
X020542Y013440D01*
X020542Y013500D01*
X020482Y013560D01*
X020362Y013560D01*
X020301Y013500D01*
X020301Y013440D01*
X020362Y013380D01*
X020670Y013200D02*
X020790Y013320D01*
X020850Y013060D02*
X020910Y013000D01*
X019160Y012940D02*
X019040Y013060D01*
X019040Y012700D01*
X019160Y012700D02*
X018920Y012700D01*
X018792Y012700D02*
X018792Y013060D01*
X018792Y013200D02*
X018792Y013260D01*
X018551Y013500D01*
X018551Y013560D01*
X018792Y013560D01*
X018920Y013500D02*
X018920Y013380D01*
X018980Y013320D01*
X019160Y013320D01*
X019160Y013200D02*
X019160Y013560D01*
X018980Y013560D01*
X018920Y013500D01*
X019040Y013320D02*
X018920Y013200D01*
X018792Y012820D02*
X018612Y012940D01*
X018792Y012820D02*
X018612Y012700D01*
X014310Y011307D02*
X013950Y011307D01*
X013950Y011187D02*
X013950Y011427D01*
X013810Y011367D02*
X013750Y011427D01*
X013510Y011187D01*
X013450Y011247D01*
X013450Y011367D01*
X013510Y011427D01*
X013750Y011427D01*
X013810Y011367D02*
X013810Y011247D01*
X013750Y011187D01*
X013510Y011187D01*
X013510Y011059D02*
X013450Y010998D01*
X013450Y010878D01*
X013510Y010818D01*
X013750Y011059D01*
X013510Y011059D01*
X013750Y011059D02*
X013810Y010998D01*
X013810Y010878D01*
X013750Y010818D01*
X013510Y010818D01*
X013450Y010690D02*
X013450Y010450D01*
X013450Y010570D02*
X013810Y010570D01*
X013690Y010450D01*
X013950Y010510D02*
X013950Y010630D01*
X014010Y010690D01*
X013950Y010818D02*
X013950Y011059D01*
X013950Y010938D02*
X014310Y010938D01*
X014190Y010818D01*
X014250Y010690D02*
X014310Y010630D01*
X014310Y010510D01*
X014250Y010450D01*
X014010Y010450D01*
X013950Y010510D01*
X014190Y011187D02*
X014310Y011307D01*
X013690Y011555D02*
X013690Y011735D01*
X013630Y011795D01*
X013510Y011795D01*
X013450Y011735D01*
X013450Y011555D01*
X013330Y011555D02*
X013690Y011555D01*
X012560Y011367D02*
X012560Y011247D01*
X012500Y011187D01*
X012560Y011367D02*
X012500Y011427D01*
X012440Y011427D01*
X012200Y011187D01*
X012200Y011427D01*
X012060Y011367D02*
X012060Y011247D01*
X012000Y011187D01*
X011760Y011187D01*
X012000Y011427D01*
X011760Y011427D01*
X011700Y011367D01*
X011700Y011247D01*
X011760Y011187D01*
X011760Y011059D02*
X011700Y010998D01*
X011700Y010878D01*
X011760Y010818D01*
X012000Y011059D01*
X011760Y011059D01*
X012000Y011059D02*
X012060Y010998D01*
X012060Y010878D01*
X012000Y010818D01*
X011760Y010818D01*
X011700Y010690D02*
X011700Y010450D01*
X011700Y010570D02*
X012060Y010570D01*
X011940Y010450D01*
X012200Y010510D02*
X012200Y010630D01*
X012260Y010690D01*
X012200Y010818D02*
X012200Y011059D01*
X012200Y010938D02*
X012560Y010938D01*
X012440Y010818D01*
X012500Y010690D02*
X012560Y010630D01*
X012560Y010510D01*
X012500Y010450D01*
X012260Y010450D01*
X012200Y010510D01*
X012060Y011367D02*
X012000Y011427D01*
X011940Y011555D02*
X011940Y011735D01*
X011880Y011795D01*
X011760Y011795D01*
X011700Y011735D01*
X011700Y011555D01*
X011580Y011555D02*
X011940Y011555D01*
X009660Y009250D02*
X009660Y009010D01*
X009600Y008950D01*
X009480Y008950D01*
X009420Y009010D01*
X009292Y008950D02*
X009051Y008950D01*
X009172Y008950D02*
X009172Y009310D01*
X009292Y009190D01*
X009420Y009250D02*
X009480Y009310D01*
X009600Y009310D01*
X009660Y009250D01*
X009540Y008810D02*
X009540Y008450D01*
X009660Y008450D02*
X009420Y008450D01*
X009292Y008510D02*
X009292Y008750D01*
X009232Y008810D01*
X009112Y008810D01*
X009051Y008750D01*
X009292Y008510D01*
X009232Y008450D01*
X009112Y008450D01*
X009051Y008510D01*
X009051Y008750D01*
X008923Y008750D02*
X008863Y008810D01*
X008743Y008810D01*
X008683Y008750D01*
X008923Y008510D01*
X008863Y008450D01*
X008743Y008450D01*
X008683Y008510D01*
X008683Y008750D01*
X008555Y008690D02*
X008375Y008690D01*
X008315Y008630D01*
X008315Y008510D01*
X008375Y008450D01*
X008555Y008450D01*
X008555Y008330D02*
X008555Y008690D01*
X008743Y008950D02*
X008863Y008950D01*
X008923Y009010D01*
X008803Y009130D02*
X008743Y009130D01*
X008683Y009070D01*
X008683Y009010D01*
X008743Y008950D01*
X008743Y009130D02*
X008683Y009190D01*
X008683Y009250D01*
X008743Y009310D01*
X008863Y009310D01*
X008923Y009250D01*
X008923Y008750D02*
X008923Y008510D01*
X009540Y008810D02*
X009660Y008690D01*
X008160Y010450D02*
X007920Y010450D01*
X007792Y010450D02*
X007792Y010810D01*
X007672Y010690D01*
X007551Y010810D01*
X007551Y010450D01*
X007423Y010510D02*
X007363Y010450D01*
X007243Y010450D01*
X007183Y010510D01*
X007183Y010570D01*
X007243Y010630D01*
X007423Y010630D01*
X007423Y010510D01*
X007423Y010630D02*
X007303Y010750D01*
X007183Y010810D01*
X007055Y010690D02*
X006935Y010810D01*
X006935Y010450D01*
X007055Y010450D02*
X006815Y010450D01*
X006318Y010510D02*
X006078Y010750D01*
X006078Y010630D02*
X006318Y010630D01*
X006318Y010750D02*
X006078Y010510D01*
X006198Y010510D02*
X006198Y010750D01*
X007551Y011010D02*
X007551Y011070D01*
X007612Y011130D01*
X007792Y011130D01*
X007792Y011010D01*
X007732Y010950D01*
X007612Y010950D01*
X007551Y011010D01*
X007672Y011250D02*
X007551Y011310D01*
X007672Y011250D02*
X007792Y011130D01*
X007920Y011010D02*
X007920Y011310D01*
X008160Y011310D02*
X008160Y011010D01*
X008100Y010950D01*
X007980Y010950D01*
X007920Y011010D01*
X008160Y010810D02*
X008160Y010450D01*
X003060Y009813D02*
X002700Y009813D01*
X002700Y009993D01*
X002760Y010053D01*
X002880Y010053D01*
X002940Y009993D01*
X002940Y009813D01*
X002940Y009685D02*
X002700Y009685D01*
X002700Y009505D01*
X002760Y009445D01*
X002940Y009445D01*
X002880Y009316D02*
X002700Y009316D01*
X002880Y009316D02*
X002940Y009256D01*
X002940Y009136D01*
X002880Y009076D01*
X002940Y008951D02*
X002940Y008831D01*
X003000Y008891D02*
X002760Y008891D01*
X002700Y008951D01*
X002700Y009076D02*
X003060Y009076D01*
X003060Y008645D02*
X003120Y008645D01*
X002940Y008645D02*
X002700Y008645D01*
X002700Y008585D02*
X002700Y008705D01*
X002940Y008645D02*
X002940Y008585D01*
X002940Y008457D02*
X002940Y008277D01*
X002880Y008217D01*
X002760Y008217D01*
X002700Y008277D01*
X002700Y008457D01*
X002640Y008457D02*
X002940Y008457D01*
X002640Y008457D02*
X002580Y008397D01*
X002580Y008337D01*
X002700Y007849D02*
X003060Y008089D01*
X003060Y007720D02*
X002700Y007480D01*
X002700Y007356D02*
X002700Y007296D01*
X002760Y007296D01*
X002760Y007356D01*
X002700Y007356D01*
X002880Y007356D02*
X002880Y007296D01*
X002940Y007296D01*
X002940Y007356D01*
X002880Y007356D01*
X002940Y007168D02*
X002940Y006988D01*
X002880Y006928D01*
X002820Y006988D01*
X002820Y007108D01*
X002760Y007168D01*
X002700Y007108D01*
X002700Y006928D01*
X002760Y006800D02*
X002700Y006740D01*
X002700Y006559D01*
X002580Y006559D02*
X002940Y006559D01*
X002940Y006740D01*
X002880Y006800D01*
X002760Y006800D01*
X002700Y006434D02*
X002760Y006374D01*
X003000Y006374D01*
X002940Y006314D02*
X002940Y006434D01*
X002940Y006188D02*
X002940Y006068D01*
X003000Y006128D02*
X002760Y006128D01*
X002700Y006188D01*
X002700Y005940D02*
X002880Y005940D01*
X002940Y005880D01*
X002940Y005760D01*
X002880Y005700D01*
X003060Y005700D02*
X002700Y005700D01*
X002700Y010181D02*
X002700Y010241D01*
X002760Y010241D01*
X002760Y010181D01*
X002700Y010181D01*
X002760Y010365D02*
X002700Y010425D01*
X002700Y010606D01*
X002760Y010734D02*
X002700Y010794D01*
X002700Y010914D01*
X002760Y010974D01*
X002880Y010974D01*
X002940Y010914D01*
X002940Y010794D01*
X002880Y010734D01*
X002760Y010734D01*
X002940Y010606D02*
X002940Y010425D01*
X002880Y010365D01*
X002760Y010365D01*
X002700Y011102D02*
X002940Y011102D01*
X002940Y011162D01*
X002880Y011222D01*
X002940Y011282D01*
X002880Y011342D01*
X002700Y011342D01*
X002700Y011222D02*
X002880Y011222D01*
X002700Y011470D02*
X003060Y011710D01*
X002880Y011839D02*
X002940Y011899D01*
X002940Y012079D01*
X002940Y012207D02*
X002940Y012327D01*
X003000Y012267D02*
X002760Y012267D01*
X002700Y012327D01*
X002760Y012452D02*
X002700Y012512D01*
X002700Y012633D01*
X002820Y012693D02*
X002820Y012452D01*
X002760Y012452D02*
X002880Y012452D01*
X002940Y012512D01*
X002940Y012633D01*
X002880Y012693D01*
X002820Y012693D01*
X002940Y012821D02*
X002700Y012941D01*
X002940Y013061D01*
X002880Y013189D02*
X002940Y013249D01*
X002940Y013369D01*
X002880Y013429D01*
X002820Y013429D01*
X002820Y013189D01*
X002760Y013189D02*
X002880Y013189D01*
X002760Y013189D02*
X002700Y013249D01*
X002700Y013369D01*
X002700Y013557D02*
X002940Y013557D01*
X002940Y013617D01*
X002880Y013677D01*
X002940Y013738D01*
X002880Y013798D01*
X002700Y013798D01*
X002700Y013677D02*
X002880Y013677D01*
X002760Y013926D02*
X002820Y013986D01*
X002820Y014166D01*
X002880Y014166D02*
X002700Y014166D01*
X002700Y013986D01*
X002760Y013926D01*
X002940Y013986D02*
X002940Y014106D01*
X002880Y014166D01*
X002820Y014294D02*
X002940Y014414D01*
X002940Y014474D01*
X002940Y014601D02*
X002580Y014601D01*
X002700Y014601D02*
X002700Y014781D01*
X002760Y014841D01*
X002880Y014841D01*
X002940Y014781D01*
X002940Y014601D01*
X002940Y014294D02*
X002700Y014294D01*
X002700Y014969D02*
X002700Y015089D01*
X002700Y015029D02*
X003060Y015029D01*
X003060Y014969D01*
X002880Y015215D02*
X002940Y015275D01*
X002940Y015395D01*
X002880Y015455D01*
X002820Y015455D01*
X002820Y015215D01*
X002760Y015215D02*
X002880Y015215D01*
X002760Y015215D02*
X002700Y015275D01*
X002700Y015395D01*
X002700Y015583D02*
X003060Y015823D01*
X003060Y015951D02*
X003060Y016132D01*
X003000Y016192D01*
X002880Y016192D01*
X002820Y016132D01*
X002820Y015951D01*
X002700Y015951D02*
X003060Y015951D01*
X002820Y016072D02*
X002700Y016192D01*
X002700Y016320D02*
X003060Y016320D01*
X003060Y016500D01*
X003000Y016560D01*
X002880Y016560D01*
X002820Y016500D01*
X002820Y016320D01*
X002700Y016688D02*
X002700Y016808D01*
X002700Y016748D02*
X002940Y016748D01*
X002940Y016688D01*
X003060Y016748D02*
X003120Y016748D01*
X002640Y016934D02*
X002640Y017174D01*
X002700Y017302D02*
X002940Y017302D01*
X003060Y017422D01*
X002940Y017542D01*
X002700Y017542D01*
X002700Y017670D02*
X002700Y017850D01*
X002760Y017910D01*
X003000Y017910D01*
X003060Y017850D01*
X003060Y017670D01*
X002700Y017670D01*
X002880Y017542D02*
X002880Y017302D01*
X002760Y018039D02*
X002700Y018099D01*
X002700Y018219D01*
X002760Y018279D01*
X002640Y018407D02*
X002640Y018647D01*
X002700Y018775D02*
X003060Y018775D01*
X002940Y018835D02*
X002940Y018955D01*
X002880Y019015D01*
X002700Y019015D01*
X002760Y019143D02*
X002700Y019204D01*
X002700Y019384D01*
X002880Y019384D01*
X002940Y019324D01*
X002940Y019204D01*
X002820Y019204D02*
X002820Y019384D01*
X002940Y019512D02*
X002940Y019632D01*
X003000Y019572D02*
X002760Y019572D01*
X002700Y019632D01*
X002820Y019204D02*
X002760Y019143D01*
X002940Y018835D02*
X002880Y018775D01*
X003000Y018279D02*
X003060Y018219D01*
X003060Y018099D01*
X003000Y018039D01*
X002760Y018039D01*
X005200Y020130D02*
X005560Y020130D01*
X005380Y019950D01*
X005380Y020190D01*
X005320Y020318D02*
X005440Y020498D01*
X005560Y020625D02*
X005560Y020865D01*
X005500Y020865D01*
X005260Y020625D01*
X005200Y020625D01*
X005200Y020498D02*
X005320Y020318D01*
X005200Y020318D02*
X005560Y020318D01*
X005700Y020318D02*
X005700Y020559D01*
X005700Y020438D02*
X006060Y020438D01*
X005940Y020318D01*
X005880Y020190D02*
X005820Y020130D01*
X005820Y019950D01*
X005700Y019950D02*
X006060Y019950D01*
X006060Y020130D01*
X006000Y020190D01*
X005880Y020190D01*
X005820Y020070D02*
X005700Y020190D01*
X005500Y021362D02*
X005260Y021602D01*
X005260Y021482D02*
X005500Y021482D01*
X005500Y021602D02*
X005260Y021362D01*
X005380Y021362D02*
X005380Y021602D01*
X008260Y021502D02*
X008500Y021262D01*
X008380Y021262D02*
X008380Y021502D01*
X008500Y021502D02*
X008260Y021262D01*
X008260Y021382D02*
X008500Y021382D01*
X008500Y020765D02*
X008260Y020525D01*
X008200Y020525D01*
X008200Y020398D02*
X008320Y020218D01*
X008440Y020398D01*
X008560Y020525D02*
X008560Y020765D01*
X008500Y020765D01*
X008700Y020459D02*
X008700Y020218D01*
X008940Y020459D01*
X009000Y020459D01*
X009060Y020398D01*
X009060Y020278D01*
X009000Y020218D01*
X009000Y020090D02*
X008880Y020090D01*
X008820Y020030D01*
X008820Y019850D01*
X008700Y019850D02*
X009060Y019850D01*
X009060Y020030D01*
X009000Y020090D01*
X008820Y019970D02*
X008700Y020090D01*
X008560Y020030D02*
X008380Y019850D01*
X008380Y020090D01*
X008200Y020030D02*
X008560Y020030D01*
X008560Y020218D02*
X008200Y020218D01*
X007910Y018060D02*
X007730Y018060D01*
X007670Y018000D01*
X007670Y017880D01*
X007730Y017820D01*
X007910Y017820D01*
X007910Y017700D02*
X007910Y018060D01*
X007790Y017820D02*
X007670Y017700D01*
X007542Y017760D02*
X007482Y017700D01*
X007362Y017700D01*
X007301Y017760D01*
X007301Y017820D01*
X007362Y017880D01*
X007542Y017880D01*
X007542Y017760D01*
X007542Y017880D02*
X007422Y018000D01*
X007301Y018060D01*
X007235Y017560D02*
X006995Y017560D01*
X006995Y017500D01*
X007235Y017260D01*
X007235Y017200D01*
X007362Y017200D02*
X007542Y017320D01*
X007362Y017440D01*
X007542Y017560D02*
X007542Y017200D01*
X007730Y017200D02*
X007730Y017560D01*
X007910Y017380D01*
X007670Y017380D01*
X006498Y017380D02*
X006258Y017380D01*
X006258Y017260D02*
X006498Y017500D01*
X006378Y017500D02*
X006378Y017260D01*
X006498Y017260D02*
X006258Y017500D01*
X008551Y016000D02*
X008551Y015940D01*
X008612Y015880D01*
X008551Y015820D01*
X008551Y015760D01*
X008612Y015700D01*
X008732Y015700D01*
X008792Y015760D01*
X008920Y015700D02*
X009040Y015820D01*
X008980Y015820D02*
X009160Y015820D01*
X009160Y015700D02*
X009160Y016060D01*
X008980Y016060D01*
X008920Y016000D01*
X008920Y015880D01*
X008980Y015820D01*
X008792Y016000D02*
X008732Y016060D01*
X008612Y016060D01*
X008551Y016000D01*
X008612Y015880D02*
X008672Y015880D01*
X002820Y012019D02*
X002820Y011899D01*
X002880Y011839D01*
X002700Y011839D02*
X002700Y012019D01*
X002760Y012079D01*
X002820Y012019D01*
X008183Y005060D02*
X008183Y005000D01*
X008423Y004760D01*
X008423Y004700D01*
X008551Y004700D02*
X008792Y004700D01*
X008672Y004700D02*
X008672Y005060D01*
X008792Y004940D01*
X008920Y005000D02*
X008980Y005060D01*
X009100Y005060D01*
X009160Y005000D01*
X009160Y004760D01*
X009100Y004700D01*
X008980Y004700D01*
X008920Y004760D01*
X008423Y005060D02*
X008183Y005060D01*
X008243Y003560D02*
X008183Y003500D01*
X008423Y003260D01*
X008363Y003200D01*
X008243Y003200D01*
X008183Y003260D01*
X008183Y003500D01*
X008243Y003560D02*
X008363Y003560D01*
X008423Y003500D01*
X008423Y003260D01*
X008551Y003260D02*
X008551Y003500D01*
X008792Y003260D01*
X008732Y003200D01*
X008612Y003200D01*
X008551Y003260D01*
X008551Y003500D02*
X008612Y003560D01*
X008732Y003560D01*
X008792Y003500D01*
X008792Y003260D01*
X008920Y003200D02*
X009160Y003200D01*
X009040Y003200D02*
X009040Y003560D01*
X009160Y003440D01*
X010315Y003380D02*
X010315Y003200D01*
X010315Y003380D02*
X010375Y003440D01*
X010555Y003440D01*
X010555Y003200D01*
X010683Y003260D02*
X010683Y003500D01*
X010923Y003260D01*
X010863Y003200D01*
X010743Y003200D01*
X010683Y003260D01*
X010683Y003500D02*
X010743Y003560D01*
X010863Y003560D01*
X010923Y003500D01*
X010923Y003260D01*
X011051Y003260D02*
X011051Y003500D01*
X011292Y003260D01*
X011232Y003200D01*
X011112Y003200D01*
X011051Y003260D01*
X011051Y003500D02*
X011112Y003560D01*
X011232Y003560D01*
X011292Y003500D01*
X011292Y003260D01*
X011420Y003200D02*
X011660Y003200D01*
X011540Y003200D02*
X011540Y003560D01*
X011660Y003440D01*
X011600Y004700D02*
X011480Y004700D01*
X011420Y004760D01*
X011292Y004700D02*
X011051Y004700D01*
X011172Y004700D02*
X011172Y005060D01*
X011292Y004940D01*
X011420Y005000D02*
X011480Y005060D01*
X011600Y005060D01*
X011660Y005000D01*
X011660Y004760D01*
X011600Y004700D01*
X010923Y004760D02*
X010863Y004700D01*
X010743Y004700D01*
X010683Y004760D01*
X010683Y004820D01*
X010743Y004880D01*
X010923Y004880D01*
X010923Y004760D01*
X010923Y004880D02*
X010803Y005000D01*
X010683Y005060D01*
X013315Y003380D02*
X013315Y003200D01*
X013315Y003380D02*
X013375Y003440D01*
X013555Y003440D01*
X013555Y003200D01*
X013683Y003260D02*
X013683Y003500D01*
X013923Y003260D01*
X013863Y003200D01*
X013743Y003200D01*
X013683Y003260D01*
X013683Y003500D02*
X013743Y003560D01*
X013863Y003560D01*
X013923Y003500D01*
X013923Y003260D01*
X014051Y003260D02*
X014051Y003500D01*
X014292Y003260D01*
X014232Y003200D01*
X014112Y003200D01*
X014051Y003260D01*
X014051Y003500D02*
X014112Y003560D01*
X014232Y003560D01*
X014292Y003500D01*
X014292Y003260D01*
X014420Y003200D02*
X014660Y003200D01*
X014540Y003200D02*
X014540Y003560D01*
X014660Y003440D01*
X015815Y003380D02*
X015815Y003200D01*
X015815Y003380D02*
X015875Y003440D01*
X016055Y003440D01*
X016055Y003200D01*
X016183Y003260D02*
X016183Y003500D01*
X016423Y003260D01*
X016363Y003200D01*
X016243Y003200D01*
X016183Y003260D01*
X016183Y003500D02*
X016243Y003560D01*
X016363Y003560D01*
X016423Y003500D01*
X016423Y003260D01*
X016551Y003260D02*
X016612Y003200D01*
X016732Y003200D01*
X016792Y003260D01*
X016551Y003500D01*
X016551Y003260D01*
X016551Y003500D02*
X016612Y003560D01*
X016732Y003560D01*
X016792Y003500D01*
X016792Y003260D01*
X016920Y003200D02*
X017160Y003200D01*
X017040Y003200D02*
X017040Y003560D01*
X017160Y003440D01*
X017100Y004700D02*
X016980Y004700D01*
X016920Y004760D01*
X016792Y004700D02*
X016551Y004700D01*
X016672Y004700D02*
X016672Y005060D01*
X016792Y004940D01*
X016920Y005000D02*
X016980Y005060D01*
X017100Y005060D01*
X017160Y005000D01*
X017160Y004760D01*
X017100Y004700D01*
X016423Y004880D02*
X016183Y004880D01*
X016243Y004700D02*
X016243Y005060D01*
X016423Y004880D01*
X014660Y004760D02*
X014600Y004700D01*
X014480Y004700D01*
X014420Y004760D01*
X014292Y004700D02*
X014051Y004700D01*
X014172Y004700D02*
X014172Y005060D01*
X014292Y004940D01*
X014420Y005000D02*
X014480Y005060D01*
X014600Y005060D01*
X014660Y005000D01*
X014660Y004760D01*
X013923Y004760D02*
X013863Y004700D01*
X013743Y004700D01*
X013683Y004760D01*
X013683Y004880D01*
X013743Y004940D01*
X013803Y004940D01*
X013923Y004880D01*
X013923Y005060D01*
X013683Y005060D01*
X008055Y003440D02*
X008055Y003200D01*
X007815Y003200D02*
X007815Y003380D01*
X007875Y003440D01*
X008055Y003440D01*
X016565Y019200D02*
X016565Y019380D01*
X016625Y019440D01*
X016805Y019440D01*
X016805Y019200D01*
X016933Y019260D02*
X016993Y019200D01*
X017113Y019200D01*
X017173Y019260D01*
X016933Y019500D01*
X016933Y019260D01*
X016933Y019500D02*
X016993Y019560D01*
X017113Y019560D01*
X017173Y019500D01*
X017173Y019260D01*
X017301Y019260D02*
X017362Y019200D01*
X017482Y019200D01*
X017542Y019260D01*
X017301Y019500D01*
X017301Y019260D01*
X017301Y019500D02*
X017362Y019560D01*
X017482Y019560D01*
X017542Y019500D01*
X017542Y019260D01*
X017670Y019200D02*
X017910Y019200D01*
X017790Y019200D02*
X017790Y019560D01*
X017910Y019440D01*
X017850Y019700D02*
X017730Y019700D01*
X017670Y019760D01*
X017542Y019700D02*
X017301Y019700D01*
X017422Y019700D02*
X017422Y020060D01*
X017542Y019940D01*
X017670Y020000D02*
X017730Y020060D01*
X017850Y020060D01*
X017910Y020000D01*
X017910Y019760D01*
X017850Y019700D01*
X017173Y019760D02*
X017173Y019820D01*
X017113Y019880D01*
X016993Y019880D01*
X016933Y019820D01*
X016933Y019760D01*
X016993Y019700D01*
X017113Y019700D01*
X017173Y019760D01*
X017113Y019880D02*
X017173Y019940D01*
X017173Y020000D01*
X017113Y020060D01*
X016993Y020060D01*
X016933Y020000D01*
X016933Y019940D01*
X016993Y019880D01*
D12*
X018080Y018340D02*
X018080Y018020D01*
X018780Y018020D02*
X018780Y018340D01*
X019230Y018890D02*
X019230Y017470D01*
X021130Y017470D02*
X021130Y018890D01*
X021330Y014840D02*
X021330Y014520D01*
X020780Y014520D02*
X020780Y014840D01*
X020080Y014840D02*
X020080Y014520D01*
X019530Y014520D02*
X019530Y014840D01*
X018830Y014840D02*
X018830Y014520D01*
X022030Y014520D02*
X022030Y014840D01*
X014280Y009421D02*
X014280Y009101D01*
X013580Y009101D02*
X013580Y009421D01*
X012530Y009421D02*
X012530Y009101D01*
X011830Y009101D02*
X011830Y009421D01*
X010530Y009421D02*
X010530Y009101D01*
X009830Y009101D02*
X009830Y009421D01*
X009800Y010481D02*
X009800Y011041D01*
X008560Y011041D02*
X008560Y010481D01*
X008770Y016130D02*
X009090Y016130D01*
X009090Y017230D02*
X008770Y017230D01*
X007340Y018330D02*
X007020Y018330D01*
X007020Y019030D02*
X007340Y019030D01*
X007330Y020520D02*
X007330Y020840D01*
X007030Y020840D02*
X007030Y020520D01*
X006330Y020520D02*
X006330Y020840D01*
X008030Y020840D02*
X008030Y020520D01*
X008520Y004530D02*
X008840Y004530D01*
X008840Y003830D02*
X008520Y003830D01*
X011020Y003830D02*
X011340Y003830D01*
X011340Y004530D02*
X011020Y004530D01*
X014020Y004530D02*
X014340Y004530D01*
X014340Y003830D02*
X014020Y003830D01*
X016520Y003830D02*
X016840Y003830D01*
X016840Y004530D02*
X016520Y004530D01*
D13*
X026794Y002511D02*
X003566Y002511D01*
X003500Y002513D01*
X003434Y002518D01*
X003368Y002528D01*
X003303Y002541D01*
X003239Y002557D01*
X003176Y002577D01*
X003114Y002601D01*
X003054Y002628D01*
X002995Y002658D01*
X002938Y002692D01*
X002883Y002729D01*
X002830Y002769D01*
X002779Y002811D01*
X002731Y002857D01*
X002685Y002905D01*
X002643Y002956D01*
X002603Y003009D01*
X002566Y003064D01*
X002532Y003121D01*
X002502Y003180D01*
X002475Y003240D01*
X002451Y003302D01*
X002431Y003365D01*
X002415Y003429D01*
X002402Y003494D01*
X002392Y003560D01*
X002387Y003626D01*
X002385Y003692D01*
X002385Y023377D01*
X002387Y023443D01*
X002392Y023509D01*
X002402Y023575D01*
X002415Y023640D01*
X002431Y023704D01*
X002451Y023767D01*
X002475Y023829D01*
X002502Y023889D01*
X002532Y023948D01*
X002566Y024005D01*
X002603Y024060D01*
X002643Y024113D01*
X002685Y024164D01*
X002731Y024212D01*
X002779Y024258D01*
X002830Y024300D01*
X002883Y024340D01*
X002938Y024377D01*
X002995Y024411D01*
X003054Y024441D01*
X003114Y024468D01*
X003176Y024492D01*
X003239Y024512D01*
X003303Y024528D01*
X003368Y024541D01*
X003434Y024551D01*
X003500Y024556D01*
X003566Y024558D01*
X026794Y024558D01*
X026860Y024556D01*
X026926Y024551D01*
X026992Y024541D01*
X027057Y024528D01*
X027121Y024512D01*
X027184Y024492D01*
X027246Y024468D01*
X027306Y024441D01*
X027365Y024411D01*
X027422Y024377D01*
X027477Y024340D01*
X027530Y024300D01*
X027581Y024258D01*
X027629Y024212D01*
X027675Y024164D01*
X027717Y024113D01*
X027757Y024060D01*
X027794Y024005D01*
X027828Y023948D01*
X027858Y023889D01*
X027885Y023829D01*
X027909Y023767D01*
X027929Y023704D01*
X027945Y023640D01*
X027958Y023575D01*
X027968Y023509D01*
X027973Y023443D01*
X027975Y023377D01*
X027975Y003692D01*
X027973Y003626D01*
X027968Y003560D01*
X027958Y003494D01*
X027945Y003429D01*
X027929Y003365D01*
X027909Y003302D01*
X027885Y003240D01*
X027858Y003180D01*
X027828Y003121D01*
X027794Y003064D01*
X027757Y003009D01*
X027717Y002956D01*
X027675Y002905D01*
X027629Y002857D01*
X027581Y002811D01*
X027530Y002769D01*
X027477Y002729D01*
X027422Y002692D01*
X027365Y002658D01*
X027306Y002628D01*
X027246Y002601D01*
X027184Y002577D01*
X027121Y002557D01*
X027057Y002541D01*
X026992Y002528D01*
X026926Y002518D01*
X026860Y002513D01*
X026794Y002511D01*
X026056Y003889D02*
X026058Y003935D01*
X026064Y003980D01*
X026073Y004025D01*
X026087Y004069D01*
X026104Y004112D01*
X026125Y004153D01*
X026149Y004192D01*
X026176Y004229D01*
X026206Y004263D01*
X026240Y004295D01*
X026275Y004324D01*
X026313Y004350D01*
X026353Y004372D01*
X026395Y004391D01*
X026439Y004406D01*
X026483Y004418D01*
X026528Y004426D01*
X026574Y004430D01*
X026620Y004430D01*
X026666Y004426D01*
X026711Y004418D01*
X026755Y004406D01*
X026799Y004391D01*
X026841Y004372D01*
X026881Y004350D01*
X026919Y004324D01*
X026954Y004295D01*
X026988Y004263D01*
X027018Y004229D01*
X027045Y004192D01*
X027069Y004153D01*
X027090Y004112D01*
X027107Y004069D01*
X027121Y004025D01*
X027130Y003980D01*
X027136Y003935D01*
X027138Y003889D01*
X027136Y003843D01*
X027130Y003798D01*
X027121Y003753D01*
X027107Y003709D01*
X027090Y003666D01*
X027069Y003625D01*
X027045Y003586D01*
X027018Y003549D01*
X026988Y003515D01*
X026954Y003483D01*
X026919Y003454D01*
X026881Y003428D01*
X026841Y003406D01*
X026799Y003387D01*
X026755Y003372D01*
X026711Y003360D01*
X026666Y003352D01*
X026620Y003348D01*
X026574Y003348D01*
X026528Y003352D01*
X026483Y003360D01*
X026439Y003372D01*
X026395Y003387D01*
X026353Y003406D01*
X026313Y003428D01*
X026275Y003454D01*
X026240Y003483D01*
X026206Y003515D01*
X026176Y003549D01*
X026149Y003586D01*
X026125Y003625D01*
X026104Y003666D01*
X026087Y003709D01*
X026073Y003753D01*
X026064Y003798D01*
X026058Y003843D01*
X026056Y003889D01*
X023290Y005680D02*
X023292Y005730D01*
X023298Y005780D01*
X023308Y005829D01*
X023321Y005878D01*
X023339Y005925D01*
X023360Y005971D01*
X023384Y006014D01*
X023412Y006056D01*
X023443Y006096D01*
X023477Y006133D01*
X023514Y006167D01*
X023554Y006198D01*
X023596Y006226D01*
X023639Y006250D01*
X023685Y006271D01*
X023732Y006289D01*
X023781Y006302D01*
X023830Y006312D01*
X023880Y006318D01*
X023930Y006320D01*
X023980Y006318D01*
X024030Y006312D01*
X024079Y006302D01*
X024128Y006289D01*
X024175Y006271D01*
X024221Y006250D01*
X024264Y006226D01*
X024306Y006198D01*
X024346Y006167D01*
X024383Y006133D01*
X024417Y006096D01*
X024448Y006056D01*
X024476Y006014D01*
X024500Y005971D01*
X024521Y005925D01*
X024539Y005878D01*
X024552Y005829D01*
X024562Y005780D01*
X024568Y005730D01*
X024570Y005680D01*
X024568Y005630D01*
X024562Y005580D01*
X024552Y005531D01*
X024539Y005482D01*
X024521Y005435D01*
X024500Y005389D01*
X024476Y005346D01*
X024448Y005304D01*
X024417Y005264D01*
X024383Y005227D01*
X024346Y005193D01*
X024306Y005162D01*
X024264Y005134D01*
X024221Y005110D01*
X024175Y005089D01*
X024128Y005071D01*
X024079Y005058D01*
X024030Y005048D01*
X023980Y005042D01*
X023930Y005040D01*
X023880Y005042D01*
X023830Y005048D01*
X023781Y005058D01*
X023732Y005071D01*
X023685Y005089D01*
X023639Y005110D01*
X023596Y005134D01*
X023554Y005162D01*
X023514Y005193D01*
X023477Y005227D01*
X023443Y005264D01*
X023412Y005304D01*
X023384Y005346D01*
X023360Y005389D01*
X023339Y005435D01*
X023321Y005482D01*
X023308Y005531D01*
X023298Y005580D01*
X023292Y005630D01*
X023290Y005680D01*
X019290Y005680D02*
X019292Y005730D01*
X019298Y005780D01*
X019308Y005829D01*
X019321Y005878D01*
X019339Y005925D01*
X019360Y005971D01*
X019384Y006014D01*
X019412Y006056D01*
X019443Y006096D01*
X019477Y006133D01*
X019514Y006167D01*
X019554Y006198D01*
X019596Y006226D01*
X019639Y006250D01*
X019685Y006271D01*
X019732Y006289D01*
X019781Y006302D01*
X019830Y006312D01*
X019880Y006318D01*
X019930Y006320D01*
X019980Y006318D01*
X020030Y006312D01*
X020079Y006302D01*
X020128Y006289D01*
X020175Y006271D01*
X020221Y006250D01*
X020264Y006226D01*
X020306Y006198D01*
X020346Y006167D01*
X020383Y006133D01*
X020417Y006096D01*
X020448Y006056D01*
X020476Y006014D01*
X020500Y005971D01*
X020521Y005925D01*
X020539Y005878D01*
X020552Y005829D01*
X020562Y005780D01*
X020568Y005730D01*
X020570Y005680D01*
X020568Y005630D01*
X020562Y005580D01*
X020552Y005531D01*
X020539Y005482D01*
X020521Y005435D01*
X020500Y005389D01*
X020476Y005346D01*
X020448Y005304D01*
X020417Y005264D01*
X020383Y005227D01*
X020346Y005193D01*
X020306Y005162D01*
X020264Y005134D01*
X020221Y005110D01*
X020175Y005089D01*
X020128Y005071D01*
X020079Y005058D01*
X020030Y005048D01*
X019980Y005042D01*
X019930Y005040D01*
X019880Y005042D01*
X019830Y005048D01*
X019781Y005058D01*
X019732Y005071D01*
X019685Y005089D01*
X019639Y005110D01*
X019596Y005134D01*
X019554Y005162D01*
X019514Y005193D01*
X019477Y005227D01*
X019443Y005264D01*
X019412Y005304D01*
X019384Y005346D01*
X019360Y005389D01*
X019339Y005435D01*
X019321Y005482D01*
X019308Y005531D01*
X019298Y005580D01*
X019292Y005630D01*
X019290Y005680D01*
X003222Y003889D02*
X003224Y003935D01*
X003230Y003980D01*
X003239Y004025D01*
X003253Y004069D01*
X003270Y004112D01*
X003291Y004153D01*
X003315Y004192D01*
X003342Y004229D01*
X003372Y004263D01*
X003406Y004295D01*
X003441Y004324D01*
X003479Y004350D01*
X003519Y004372D01*
X003561Y004391D01*
X003605Y004406D01*
X003649Y004418D01*
X003694Y004426D01*
X003740Y004430D01*
X003786Y004430D01*
X003832Y004426D01*
X003877Y004418D01*
X003921Y004406D01*
X003965Y004391D01*
X004007Y004372D01*
X004047Y004350D01*
X004085Y004324D01*
X004120Y004295D01*
X004154Y004263D01*
X004184Y004229D01*
X004211Y004192D01*
X004235Y004153D01*
X004256Y004112D01*
X004273Y004069D01*
X004287Y004025D01*
X004296Y003980D01*
X004302Y003935D01*
X004304Y003889D01*
X004302Y003843D01*
X004296Y003798D01*
X004287Y003753D01*
X004273Y003709D01*
X004256Y003666D01*
X004235Y003625D01*
X004211Y003586D01*
X004184Y003549D01*
X004154Y003515D01*
X004120Y003483D01*
X004085Y003454D01*
X004047Y003428D01*
X004007Y003406D01*
X003965Y003387D01*
X003921Y003372D01*
X003877Y003360D01*
X003832Y003352D01*
X003786Y003348D01*
X003740Y003348D01*
X003694Y003352D01*
X003649Y003360D01*
X003605Y003372D01*
X003561Y003387D01*
X003519Y003406D01*
X003479Y003428D01*
X003441Y003454D01*
X003406Y003483D01*
X003372Y003515D01*
X003342Y003549D01*
X003315Y003586D01*
X003291Y003625D01*
X003270Y003666D01*
X003253Y003709D01*
X003239Y003753D01*
X003230Y003798D01*
X003224Y003843D01*
X003222Y003889D01*
X003222Y023180D02*
X003224Y023226D01*
X003230Y023271D01*
X003239Y023316D01*
X003253Y023360D01*
X003270Y023403D01*
X003291Y023444D01*
X003315Y023483D01*
X003342Y023520D01*
X003372Y023554D01*
X003406Y023586D01*
X003441Y023615D01*
X003479Y023641D01*
X003519Y023663D01*
X003561Y023682D01*
X003605Y023697D01*
X003649Y023709D01*
X003694Y023717D01*
X003740Y023721D01*
X003786Y023721D01*
X003832Y023717D01*
X003877Y023709D01*
X003921Y023697D01*
X003965Y023682D01*
X004007Y023663D01*
X004047Y023641D01*
X004085Y023615D01*
X004120Y023586D01*
X004154Y023554D01*
X004184Y023520D01*
X004211Y023483D01*
X004235Y023444D01*
X004256Y023403D01*
X004273Y023360D01*
X004287Y023316D01*
X004296Y023271D01*
X004302Y023226D01*
X004304Y023180D01*
X004302Y023134D01*
X004296Y023089D01*
X004287Y023044D01*
X004273Y023000D01*
X004256Y022957D01*
X004235Y022916D01*
X004211Y022877D01*
X004184Y022840D01*
X004154Y022806D01*
X004120Y022774D01*
X004085Y022745D01*
X004047Y022719D01*
X004007Y022697D01*
X003965Y022678D01*
X003921Y022663D01*
X003877Y022651D01*
X003832Y022643D01*
X003786Y022639D01*
X003740Y022639D01*
X003694Y022643D01*
X003649Y022651D01*
X003605Y022663D01*
X003561Y022678D01*
X003519Y022697D01*
X003479Y022719D01*
X003441Y022745D01*
X003406Y022774D01*
X003372Y022806D01*
X003342Y022840D01*
X003315Y022877D01*
X003291Y022916D01*
X003270Y022957D01*
X003253Y023000D01*
X003239Y023044D01*
X003230Y023089D01*
X003224Y023134D01*
X003222Y023180D01*
X026056Y023180D02*
X026058Y023226D01*
X026064Y023271D01*
X026073Y023316D01*
X026087Y023360D01*
X026104Y023403D01*
X026125Y023444D01*
X026149Y023483D01*
X026176Y023520D01*
X026206Y023554D01*
X026240Y023586D01*
X026275Y023615D01*
X026313Y023641D01*
X026353Y023663D01*
X026395Y023682D01*
X026439Y023697D01*
X026483Y023709D01*
X026528Y023717D01*
X026574Y023721D01*
X026620Y023721D01*
X026666Y023717D01*
X026711Y023709D01*
X026755Y023697D01*
X026799Y023682D01*
X026841Y023663D01*
X026881Y023641D01*
X026919Y023615D01*
X026954Y023586D01*
X026988Y023554D01*
X027018Y023520D01*
X027045Y023483D01*
X027069Y023444D01*
X027090Y023403D01*
X027107Y023360D01*
X027121Y023316D01*
X027130Y023271D01*
X027136Y023226D01*
X027138Y023180D01*
X027136Y023134D01*
X027130Y023089D01*
X027121Y023044D01*
X027107Y023000D01*
X027090Y022957D01*
X027069Y022916D01*
X027045Y022877D01*
X027018Y022840D01*
X026988Y022806D01*
X026954Y022774D01*
X026919Y022745D01*
X026881Y022719D01*
X026841Y022697D01*
X026799Y022678D01*
X026755Y022663D01*
X026711Y022651D01*
X026666Y022643D01*
X026620Y022639D01*
X026574Y022639D01*
X026528Y022643D01*
X026483Y022651D01*
X026439Y022663D01*
X026395Y022678D01*
X026353Y022697D01*
X026313Y022719D01*
X026275Y022745D01*
X026240Y022774D01*
X026206Y022806D01*
X026176Y022840D01*
X026149Y022877D01*
X026125Y022916D01*
X026104Y022957D01*
X026087Y023000D01*
X026073Y023044D01*
X026064Y023089D01*
X026058Y023134D01*
X026056Y023180D01*
D14*
X019030Y018880D03*
M02*
